<?xml version="1.0" encoding="utf-8"?>
<!-- Generator: Adobe Illustrator 13.0.0, SVG Export Plug-In . SVG Version: 6.00 Build 14948)  -->
<!DOCTYPE svg PUBLIC "-//W3C//DTD SVG 1.1//EN" "http://www.w3.org/Graphics/SVG/1.1/DTD/svg11.dtd">
<svg version="1.1" id="Ebene_1" xmlns="http://www.w3.org/2000/svg" xmlns:xlink="http://www.w3.org/1999/xlink" x="0px" y="0px"
	 width="354.332px" height="91.896px" viewBox="0 0 354.332 91.896" enable-background="new 0 0 354.332 91.896"
	 xml:space="preserve">
<g>
	
		<rect x="173.494" y="35.035" transform="matrix(-0.9206 0.3904 -0.3904 -0.9206 361.0044 -1.3185)" fill="#929497" width="14.284" height="2.001"/>
	
		<rect x="114.788" y="40.095" transform="matrix(-0.6953 -0.7187 0.7187 -0.6953 187.9412 161.8685)" fill="#929497" width="26.989" height="2.001"/>
	
		<rect x="157.247" y="3.112" transform="matrix(-0.8275 -0.5614 0.5614 -0.8275 283.4174 107.6694)" fill="#929497" width="2" height="14.376"/>
	
		<rect x="159.245" y="51.891" transform="matrix(0.0747 -0.9972 0.9972 0.0747 107.0886 221.1947)" fill="#929497" width="26.989" height="2.001"/>
	
		<rect x="126.666" y="58.279" transform="matrix(-0.1081 -0.9941 0.9941 -0.1081 92.6987 201.7243)" fill="#929497" width="20.342" height="2.002"/>
	
		<rect x="116.294" y="32.427" transform="matrix(-0.3559 -0.9345 0.9345 -0.3559 144.7412 166.6154)" fill="#929497" width="26.99" height="2.001"/>
	
		<rect x="131.09" y="59.942" transform="matrix(-0.5589 -0.8293 0.8293 -0.5589 174.8526 214.8999)" fill="#929497" width="26.99" height="2.002"/>
	
		<rect x="118.913" y="45.932" transform="matrix(-0.9857 -0.1686 0.1686 -0.9857 248.4081 114.9596)" fill="#929497" width="20.344" height="2"/>
	
		<rect x="129.229" y="45.846" transform="matrix(-0.668 -0.7441 0.7441 -0.668 177.6677 185.5815)" fill="#929497" width="2.001" height="14.628"/>
	<line fill="none" x1="153.424" y1="17.466" x2="135.828" y2="7.657"/>
	
		<rect x="134.555" y="11.564" transform="matrix(-0.8735 -0.4869 0.4869 -0.8735 264.8408 93.9552)" fill="#929497" width="20.148" height="2.001"/>
	
		<rect x="149.957" y="3.362" transform="matrix(-0.9488 0.3158 -0.3158 -0.9488 297.5219 -27.1114)" fill="#929497" width="2.001" height="14.375"/>
	
		<rect x="161.386" y="3.135" transform="matrix(-0.4002 -0.9164 0.9164 -0.4002 214.4449 168.5603)" fill="#929497" width="2.001" height="21.929"/>
	
		<rect x="178.35" y="19.679" transform="matrix(-0.8537 -0.5207 0.5207 -0.8537 317.4073 147.0102)" fill="#929497" width="2.003" height="18.492"/>
	
		<rect x="174.508" y="41.95" transform="matrix(-0.8862 -0.4633 0.4633 -0.8862 322.7289 165.1728)" fill="#929497" width="14.285" height="2.001"/>
	
		<rect x="168.495" y="47.391" transform="matrix(-0.3864 -0.9223 0.9223 -0.3864 202.2601 231.342)" fill="#929497" width="19.178" height="2.001"/>
	
		<rect x="151.526" y="17.467" transform="matrix(-1 0.0093 -0.0093 -1 307.304 53.7789)" fill="#58595B" width="4.002" height="20.27"/>
	
		<rect x="142.682" y="32.667" transform="matrix(-0.5133 -0.8582 0.8582 -0.5133 181.9724 189.3636)" fill="#58595B" width="4.003" height="20.828"/>
	
		<rect x="153.607" y="36.083" transform="matrix(-0.9994 -0.0341 0.0341 -0.9994 326.3332 81.7381)" fill="#58595B" width="20.515" height="4.002"/>
	<path fill="#EB008B" d="M163.193,35.73c1.107,5.291-2.282,10.475-7.57,11.584c-5.29,1.106-10.478-2.283-11.584-7.573
		c-1.108-5.29,2.281-10.476,7.57-11.582C156.899,27.05,162.085,30.441,163.193,35.73"/>
	<path fill="#58595B" d="M158.305,16.444c0.564,2.696-1.163,5.339-3.858,5.903c-2.695,0.563-5.339-1.163-5.903-3.858
		c-0.563-2.696,1.164-5.339,3.859-5.903S157.742,13.748,158.305,16.444"/>
	<path fill="#58595B" d="M140.624,47.407c0.562,2.696-1.163,5.339-3.859,5.903c-2.695,0.563-5.338-1.163-5.903-3.858
		c-0.562-2.696,1.163-5.338,3.859-5.904C137.417,42.985,140.059,44.711,140.624,47.407"/>
	<path fill="#58595B" d="M178.54,37.511c0.562,2.695-1.164,5.339-3.86,5.902c-2.696,0.564-5.338-1.164-5.903-3.858
		c-0.562-2.696,1.163-5.339,3.858-5.904C175.332,33.086,177.974,34.815,178.54,37.511"/>
	<path fill="#929497" d="M187.782,20.088c0.402,1.926-0.83,3.813-2.756,4.217c-1.926,0.402-3.814-0.831-4.217-2.757
		c-0.404-1.926,0.831-3.812,2.756-4.216C185.493,16.93,187.379,18.162,187.782,20.088"/>
	<path fill="#929497" d="M191.077,45.257c0.401,1.927-0.832,3.813-2.757,4.218c-1.927,0.402-3.813-0.831-4.218-2.758
		c-0.404-1.926,0.832-3.812,2.757-4.216C188.786,42.099,190.672,43.332,191.077,45.257"/>
	<path fill="#929497" d="M185.52,57.322c0.402,1.925-0.83,3.812-2.757,4.216c-1.925,0.403-3.813-0.831-4.216-2.756
		c-0.403-1.927,0.83-3.812,2.756-4.216S185.118,55.397,185.52,57.322"/>
	<path fill="#929497" d="M177.027,8.204c0.403,1.926-0.83,3.813-2.756,4.216c-1.926,0.403-3.813-0.831-4.218-2.756
		s0.832-3.812,2.758-4.216C174.736,5.044,176.625,6.28,177.027,8.204"/>
	<path fill="#929497" d="M152.005,2.396c0.402,1.925-0.83,3.812-2.756,4.215c-1.926,0.404-3.814-0.831-4.218-2.756
		s0.832-3.812,2.757-4.215C149.714-0.764,151.602,0.47,152.005,2.396"/>
	<path fill="#929497" d="M139.312,6.927c0.403,1.926-0.83,3.812-2.756,4.216c-1.926,0.402-3.812-0.831-4.218-2.756
		c-0.403-1.927,0.832-3.813,2.758-4.218C137.021,3.768,138.911,5.001,139.312,6.927"/>
	<path fill="#929497" d="M122.9,44.531c0.403,1.925-0.83,3.814-2.755,4.216c-1.926,0.403-3.813-0.83-4.218-2.755
		c-0.403-1.926,0.831-3.812,2.757-4.217C120.61,41.371,122.498,42.606,122.9,44.531"/>
	<path fill="#929497" d="M128.809,57.226c0.402,1.925-0.831,3.812-2.757,4.217c-1.926,0.403-3.812-0.832-4.217-2.757
		c-0.403-1.927,0.831-3.813,2.757-4.216C126.518,54.066,128.406,55.3,128.809,57.226"/>
	<path fill="#929497" d="M141.252,68.16c0.401,1.925-0.831,3.812-2.757,4.216c-1.927,0.404-3.813-0.831-4.219-2.756
		c-0.401-1.927,0.832-3.812,2.759-4.216C138.961,65.001,140.849,66.235,141.252,68.16"/>
	<path fill="#005AA9" d="M21.96,20.89c10.663,0,14.124,5.959,14.124,5.959h0.193c0,0-0.101-1.25-0.101-2.884v-8.647
		c0-1.443-0.769-2.115-2.111-2.115h-3.841V2.824H41.85c4.518,0,6.535,2.017,6.535,6.534v49.296c0,1.347,0.768,2.115,2.117,2.115
		h3.742v10.283H43.005c-4.422,0-6.053-2.114-6.053-4.998v-1.824h-0.193c0,0-4.036,7.975-15.279,7.975
		C8.218,72.204-0.334,61.732-0.334,46.548C-0.334,30.982,8.985,20.89,21.96,20.89 M36.472,46.451c0-7.589-3.94-15.085-12.112-15.085
		c-6.722,0-12.3,5.475-12.3,15.182c0,9.32,4.903,15.373,12.111,15.373C30.512,61.921,36.472,57.313,36.472,46.451"/>
	<path fill="#00ADEE" d="M249.093,2.823c-4.611,0-6.534,2.019-6.534,6.534v31.23c0,3.941,0.674,9.611,0.674,9.611h-0.193
		c0,0-2.979-5.67-5.672-9.611L211.519,2.823H200.18v55.447c0,1.308-0.739,2.015-2.012,2.055v-0.005h-8.346
		c-2.601,4.101-5.873,7.729-9.668,10.732h13.777h4.236h8.064c4.614,0,6.531-1.924,6.531-6.535V33.383c0-3.941-0.667-9.61-0.667-9.61
		h0.188c0,0,2.979,5.766,5.672,9.61l25.942,37.67h11.244V15.605c0-1.343,0.769-2.114,2.117-2.114h4.13V2.823H249.093z"/>
	<path fill="#00ADEE" d="M274.079,13.49h-6.246V2.823h29.504c12.299,0,21.139,6.344,21.139,17.588c0,7.59-4.129,12.491-8.264,14.605
		v0.189c7.402,2.211,10.957,9.13,10.957,16.048c0,13.646-10.859,19.798-23.545,19.798h-17.012c-4.517,0-6.533-1.923-6.533-6.534
		V13.49L274.079,13.49z M297.431,30.692c5.284,0,8.265-3.842,8.265-8.743s-2.881-8.458-8.453-8.458h-10.574v17.201H297.431z
		 M288.784,60.386h9.803c6.146,0,9.607-4.134,9.607-9.897c0-5.67-3.555-9.801-9.607-9.801h-11.92v17.583
		C286.667,59.616,287.436,60.386,288.784,60.386"/>
	<polygon fill="#00ADEE" points="326.752,60.386 334.579,60.386 334.579,13.49 326.752,13.49 326.752,2.823 353.321,2.823 
		353.321,13.49 346.493,13.49 346.493,60.386 353.321,60.386 353.321,71.053 326.752,71.053 	"/>
	<path fill="#005AA9" d="M127.028,71.179l-0.187-0.138c-3.789-3.002-7.058-6.625-9.654-10.721H82.255h-0.001h-1.298
		c-5.758-0.63-8.17-3.946-9.028-11.658h33.827c0,0,0.287-3.076,0.287-4.516c0-12.976-7.685-23.256-21.714-23.256
		c-14.704,0-24.895,10.571-24.895,25.658c0,13.935,7.078,24.649,23.314,24.649c0.803,0,1.58-0.01,2.349-0.021L127.028,71.179
		L127.028,71.179z M84.329,30.308c4.998,0,9.032,4.037,9.221,9.897H72.315C73.66,34.056,78.082,30.308,84.329,30.308"/>
	<path fill="#231F20" d="M7.279,91.325l-0.497,0.134l-0.467-0.498c-0.275,0.17-0.565,0.296-0.868,0.376
		c-0.302,0.082-0.647,0.122-1.04,0.122c-1.076,0-1.888-0.369-2.433-1.107c-0.544-0.737-0.815-1.833-0.815-3.288
		c0-0.908,0.147-1.703,0.445-2.39c0.297-0.684,0.728-1.21,1.283-1.578c0.557-0.368,1.213-0.553,1.966-0.553
		c0.396,0,0.775,0.021,1.144,0.066c0.364,0.045,0.771,0.122,1.22,0.232v1.756H6.583c-0.115-0.384-0.251-0.684-0.409-0.897
		c-0.157-0.215-0.345-0.367-0.564-0.459c-0.219-0.091-0.495-0.137-0.832-0.137c-0.465,0-0.87,0.147-1.221,0.445
		c-0.348,0.3-0.618,0.737-0.812,1.318c-0.194,0.581-0.291,1.281-0.291,2.104c0,0.834,0.083,1.547,0.245,2.139
		c0.164,0.591,0.407,1.037,0.73,1.337c0.324,0.301,0.722,0.45,1.193,0.45c0.503,0,0.875-0.109,1.117-0.329
		c0.241-0.219,0.363-0.556,0.363-1.011v-0.385c0-0.384-0.021-0.659-0.062-0.83c-0.04-0.169-0.11-0.303-0.213-0.396
		s-0.271-0.169-0.504-0.229v-0.312h2.577v0.312c-0.152,0.053-0.269,0.11-0.345,0.177c-0.077,0.065-0.136,0.146-0.176,0.246
		c-0.041,0.098-0.067,0.218-0.083,0.358c-0.015,0.145-0.021,0.347-0.021,0.61L7.279,91.325L7.279,91.325z"/>
	<path fill="#231F20" d="M15.124,82.646v1.928h-0.625c-0.065-0.209-0.131-0.391-0.198-0.548c-0.069-0.159-0.139-0.29-0.211-0.397
		c-0.072-0.104-0.152-0.189-0.24-0.255c-0.086-0.062-0.188-0.106-0.308-0.131c-0.12-0.023-0.264-0.034-0.43-0.034h-2.017v3.345
		h1.366c0.187,0,0.333-0.026,0.438-0.08c0.107-0.054,0.194-0.145,0.268-0.271c0.067-0.127,0.136-0.327,0.199-0.6h0.601v2.451h-0.601
		c-0.061-0.256-0.126-0.447-0.197-0.577c-0.072-0.129-0.158-0.225-0.258-0.278c-0.102-0.055-0.25-0.082-0.45-0.082h-1.366v3.682
		h1.985c0.208,0,0.377-0.017,0.508-0.054c0.129-0.036,0.24-0.099,0.334-0.186c0.094-0.088,0.176-0.2,0.249-0.343
		c0.072-0.139,0.134-0.284,0.182-0.437c0.05-0.151,0.117-0.371,0.201-0.66h0.632l-0.121,2.238H9.156v-0.312
		c0.264-0.069,0.439-0.146,0.528-0.228c0.09-0.084,0.148-0.201,0.177-0.355c0.027-0.151,0.041-0.387,0.041-0.7V84.24
		c0-0.293-0.011-0.507-0.031-0.641c-0.021-0.136-0.057-0.238-0.105-0.312c-0.049-0.075-0.114-0.135-0.193-0.18
		c-0.082-0.045-0.22-0.095-0.416-0.15v-0.312H15.124z"/>
	<path fill="#231F20" d="M18.621,87.573v2.171c0,0.307,0.013,0.528,0.036,0.666c0.021,0.139,0.059,0.243,0.104,0.312
		c0.046,0.07,0.11,0.127,0.19,0.173c0.082,0.045,0.22,0.095,0.416,0.15v0.312h-2.694v-0.312c0.264-0.069,0.44-0.146,0.53-0.228
		c0.09-0.084,0.146-0.201,0.176-0.355c0.027-0.151,0.041-0.387,0.041-0.7V84.24c0-0.293-0.011-0.507-0.032-0.641
		c-0.021-0.136-0.056-0.238-0.104-0.312c-0.049-0.075-0.113-0.135-0.194-0.18s-0.219-0.096-0.415-0.15v-0.312h3.159
		c0.996,0,1.741,0.181,2.233,0.542c0.493,0.361,0.74,0.924,0.74,1.686c0,0.584-0.161,1.078-0.48,1.487
		c-0.322,0.407-0.805,0.729-1.446,0.958v0.052c0.26,0.105,0.483,0.257,0.667,0.455c0.186,0.197,0.391,0.505,0.616,0.923l0.573,1.047
		c0.165,0.308,0.31,0.54,0.43,0.701c0.118,0.162,0.239,0.285,0.361,0.371c0.124,0.084,0.288,0.145,0.492,0.18v0.312h-1.769
		c-0.161-0.227-0.314-0.469-0.459-0.729c-0.146-0.259-0.287-0.522-0.429-0.791l-0.562-1.064c-0.171-0.323-0.31-0.562-0.419-0.715
		c-0.107-0.153-0.208-0.263-0.299-0.321c-0.092-0.063-0.189-0.106-0.294-0.13c-0.104-0.022-0.26-0.034-0.47-0.034h-0.7V87.573z
		 M18.621,83.232v3.792h0.722c0.37,0,0.67-0.027,0.899-0.081c0.229-0.052,0.442-0.153,0.639-0.303
		c0.196-0.148,0.353-0.354,0.47-0.621s0.175-0.594,0.175-0.98c0-0.405-0.068-0.74-0.207-1.008c-0.139-0.269-0.348-0.473-0.628-0.613
		c-0.281-0.14-0.659-0.21-1.137-0.21C19.17,83.207,18.858,83.215,18.621,83.232"/>
	<path fill="#231F20" d="M33.908,82.957c-0.188,0.048-0.322,0.095-0.405,0.142c-0.083,0.048-0.148,0.104-0.198,0.176
		c-0.048,0.069-0.085,0.175-0.107,0.315c-0.023,0.141-0.035,0.357-0.035,0.65v5.522c0,0.283,0.01,0.493,0.028,0.625
		c0.021,0.132,0.051,0.234,0.097,0.312c0.044,0.076,0.109,0.142,0.197,0.192c0.088,0.052,0.229,0.103,0.425,0.151v0.312h-2.661
		v-0.312c0.242-0.06,0.41-0.127,0.503-0.203c0.095-0.076,0.157-0.188,0.191-0.339s0.053-0.396,0.053-0.739v-2.444
		c0-0.645,0.009-1.294,0.028-1.952c0.019-0.656,0.04-1.104,0.065-1.349H31.98l-2.526,6.323h-0.734l-2.349-6.426h-0.107
		c0.021,0.259,0.041,0.729,0.061,1.41c0.02,0.682,0.027,1.381,0.027,2.1v2.339c0,0.283,0.01,0.493,0.029,0.625
		s0.051,0.234,0.096,0.312c0.045,0.076,0.11,0.142,0.198,0.192c0.087,0.052,0.229,0.103,0.424,0.151v0.312h-2.329v-0.312
		c0.264-0.067,0.439-0.144,0.529-0.226c0.09-0.084,0.147-0.201,0.176-0.355c0.027-0.152,0.041-0.387,0.041-0.7V84.24
		c0-0.293-0.01-0.508-0.031-0.641c-0.021-0.136-0.057-0.238-0.104-0.312c-0.049-0.075-0.114-0.135-0.195-0.18
		c-0.08-0.045-0.219-0.096-0.414-0.15v-0.312h2.277l2.241,6.211l2.463-6.211h2.158v0.312H33.908z"/>
	<path fill="#231F20" d="M39.761,91.357v-0.312c0.212-0.042,0.371-0.09,0.475-0.14c0.104-0.052,0.183-0.122,0.233-0.214
		s0.076-0.214,0.076-0.367c0-0.145-0.018-0.302-0.051-0.469c-0.034-0.169-0.083-0.356-0.147-0.565l-0.235-0.823h-2.974l-0.218,0.625
		c-0.11,0.315-0.184,0.555-0.217,0.716c-0.034,0.162-0.053,0.31-0.053,0.439c0,0.256,0.065,0.443,0.195,0.562
		c0.13,0.118,0.329,0.195,0.596,0.234v0.312h-2.725v-0.312c0.239-0.039,0.445-0.176,0.623-0.415
		c0.176-0.236,0.348-0.578,0.514-1.021l2.662-7.064h1.008l2.17,7.116c0.103,0.332,0.191,0.586,0.271,0.759
		c0.079,0.176,0.174,0.312,0.284,0.409c0.109,0.097,0.262,0.171,0.453,0.217v0.312H39.761z M37.309,87.911h2.668l-1.213-4.116
		L37.309,87.911z"/>
	<path fill="#231F20" d="M48.722,87.905c0.152,0.256,0.281,0.479,0.386,0.669c0.104,0.192,0.214,0.408,0.323,0.646h0.082
		c-0.021-0.26-0.04-0.773-0.058-1.549c-0.018-0.771-0.024-1.468-0.024-2.088V84.24c0-0.293-0.01-0.508-0.025-0.645
		c-0.019-0.138-0.049-0.24-0.094-0.312c-0.044-0.072-0.105-0.131-0.185-0.176s-0.217-0.096-0.411-0.15v-0.312h2.297v0.312
		c-0.19,0.053-0.327,0.1-0.405,0.142c-0.078,0.043-0.143,0.099-0.189,0.166c-0.05,0.067-0.087,0.17-0.113,0.307
		c-0.023,0.137-0.038,0.359-0.038,0.67v7.155H49.47l-3.556-5.962c-0.223-0.369-0.378-0.642-0.474-0.812
		c-0.094-0.171-0.18-0.338-0.262-0.504h-0.107c0.029,0.328,0.051,0.921,0.063,1.777c0.012,0.856,0.02,1.712,0.02,2.562v1.305
		c0,0.283,0.01,0.493,0.027,0.625c0.021,0.132,0.052,0.234,0.096,0.312c0.047,0.076,0.112,0.142,0.198,0.192
		c0.087,0.052,0.229,0.103,0.424,0.151v0.312h-2.328v-0.312c0.265-0.067,0.439-0.144,0.528-0.226
		c0.09-0.084,0.147-0.201,0.177-0.355c0.026-0.151,0.041-0.387,0.041-0.7V84.24c0-0.293-0.012-0.507-0.031-0.641
		c-0.021-0.136-0.058-0.238-0.105-0.312c-0.048-0.075-0.113-0.135-0.194-0.18s-0.22-0.096-0.414-0.15v-0.312h1.996L48.722,87.905z"
		/>
	<path fill="#231F20" d="M60.498,87.905c0.151,0.256,0.281,0.479,0.387,0.669c0.104,0.192,0.212,0.408,0.322,0.646h0.083
		c-0.021-0.26-0.04-0.773-0.059-1.549c-0.017-0.771-0.024-1.468-0.024-2.088V84.24c0-0.293-0.009-0.508-0.025-0.645
		c-0.018-0.138-0.048-0.24-0.093-0.312c-0.044-0.072-0.107-0.131-0.187-0.176c-0.078-0.045-0.216-0.096-0.41-0.15v-0.312h2.298
		v0.312c-0.192,0.053-0.327,0.1-0.405,0.142c-0.08,0.043-0.143,0.099-0.191,0.166s-0.086,0.17-0.111,0.307s-0.038,0.359-0.038,0.67
		v7.155h-0.798l-3.556-5.962c-0.222-0.369-0.379-0.642-0.474-0.812c-0.093-0.171-0.179-0.338-0.261-0.504h-0.108
		c0.03,0.328,0.051,0.921,0.064,1.777c0.012,0.856,0.019,1.712,0.019,2.562v1.305c0,0.283,0.01,0.493,0.028,0.625
		s0.052,0.234,0.096,0.312c0.045,0.076,0.111,0.142,0.198,0.192c0.087,0.052,0.229,0.103,0.424,0.151v0.312h-2.33v-0.312
		c0.266-0.067,0.441-0.144,0.53-0.226c0.09-0.084,0.147-0.201,0.176-0.355c0.027-0.151,0.042-0.387,0.042-0.7V84.24
		c0-0.293-0.012-0.507-0.033-0.641c-0.021-0.136-0.056-0.238-0.104-0.312c-0.048-0.075-0.112-0.135-0.193-0.18
		c-0.082-0.045-0.219-0.096-0.416-0.15v-0.312h1.999L60.498,87.905z"/>
	<path fill="#231F20" d="M70.237,82.646v1.928h-0.626c-0.062-0.209-0.129-0.391-0.196-0.548c-0.069-0.159-0.141-0.29-0.21-0.397
		c-0.073-0.104-0.153-0.189-0.24-0.255c-0.087-0.062-0.19-0.106-0.31-0.131c-0.119-0.023-0.262-0.034-0.429-0.034h-2.017v3.345
		h1.365c0.188,0,0.334-0.026,0.44-0.08c0.105-0.054,0.193-0.145,0.266-0.271c0.068-0.127,0.137-0.327,0.199-0.6h0.602v2.451H68.48
		c-0.06-0.256-0.126-0.447-0.195-0.577c-0.073-0.129-0.16-0.225-0.26-0.278c-0.101-0.055-0.251-0.082-0.45-0.082h-1.365v3.682h1.984
		c0.208,0,0.378-0.017,0.509-0.054c0.13-0.036,0.239-0.099,0.335-0.186c0.093-0.088,0.176-0.2,0.248-0.343
		c0.071-0.139,0.134-0.284,0.182-0.437c0.05-0.151,0.117-0.371,0.201-0.66H70.3l-0.121,2.239h-5.91v-0.312
		c0.265-0.069,0.44-0.146,0.529-0.228c0.091-0.084,0.148-0.201,0.177-0.355c0.026-0.151,0.041-0.387,0.041-0.7v-5.521
		c0-0.293-0.012-0.507-0.032-0.641c-0.021-0.136-0.056-0.238-0.104-0.312c-0.048-0.075-0.113-0.135-0.194-0.18
		s-0.219-0.096-0.415-0.15v-0.312L70.237,82.646L70.237,82.646z"/>
	<path fill="#231F20" d="M71.437,82.646h6.906v2.222h-0.626c-0.094-0.366-0.187-0.655-0.277-0.868
		c-0.092-0.213-0.188-0.374-0.291-0.483c-0.102-0.111-0.211-0.19-0.329-0.236c-0.115-0.048-0.292-0.07-0.524-0.07h-0.812v6.536
		c0,0.25,0.016,0.45,0.041,0.599c0.028,0.149,0.071,0.268,0.128,0.354c0.06,0.087,0.137,0.155,0.233,0.204s0.251,0.098,0.459,0.146
		v0.312h-2.917v-0.312c0.128-0.031,0.241-0.062,0.339-0.097c0.099-0.035,0.179-0.076,0.239-0.126
		c0.062-0.049,0.113-0.111,0.153-0.187c0.041-0.077,0.071-0.183,0.096-0.313c0.023-0.132,0.035-0.325,0.035-0.58v-6.536h-0.805
		c-0.199,0-0.364,0.02-0.493,0.058c-0.132,0.039-0.251,0.118-0.361,0.239c-0.11,0.12-0.211,0.294-0.303,0.518
		c-0.094,0.224-0.179,0.505-0.26,0.846h-0.632L71.437,82.646L71.437,82.646z"/>
	<path fill="#231F20" d="M84.77,84.272l-2.042,7.131h-1.035l-1.855-6.933c-0.077-0.288-0.147-0.525-0.211-0.708
		c-0.064-0.183-0.127-0.327-0.192-0.432c-0.062-0.104-0.132-0.184-0.206-0.235c-0.075-0.055-0.183-0.1-0.321-0.139v-0.312h2.729
		v0.312c-0.263,0.052-0.447,0.128-0.552,0.229c-0.104,0.103-0.155,0.245-0.155,0.429c0,0.148,0.02,0.324,0.057,0.529
		c0.039,0.204,0.094,0.437,0.161,0.695l1.281,5.041l2.055-7.236h1.074l1.665,7.245l1.507-4.869c0.184-0.595,0.273-1.016,0.273-1.268
		c0-0.257-0.054-0.444-0.163-0.562c-0.107-0.113-0.287-0.192-0.539-0.235v-0.312h2.516v0.312c-0.128,0.043-0.229,0.091-0.307,0.146
		c-0.077,0.052-0.15,0.125-0.221,0.216c-0.07,0.092-0.147,0.232-0.229,0.426c-0.084,0.19-0.18,0.448-0.29,0.771l-2.324,6.889h-0.912
		L84.77,84.272z"/>
	<path fill="#231F20" d="M94.727,91.459c-0.509,0-0.975-0.084-1.393-0.252c-0.42-0.168-0.779-0.429-1.08-0.785
		c-0.299-0.354-0.531-0.81-0.695-1.361c-0.163-0.554-0.246-1.215-0.246-1.986c0-0.948,0.146-1.763,0.436-2.443
		c0.289-0.681,0.703-1.198,1.241-1.555c0.537-0.354,1.162-0.532,1.874-0.532c0.757,0,1.395,0.168,1.91,0.501
		c0.518,0.334,0.906,0.825,1.168,1.475c0.262,0.648,0.394,1.439,0.394,2.371c0,0.996-0.148,1.836-0.447,2.521
		c-0.298,0.686-0.718,1.196-1.261,1.538C96.084,91.29,95.452,91.459,94.727,91.459 M92.628,86.896c0,1.307,0.188,2.301,0.57,2.979
		c0.382,0.683,0.938,1.021,1.67,1.021c0.463,0,0.856-0.147,1.181-0.443c0.323-0.295,0.565-0.729,0.728-1.297
		c0.162-0.571,0.242-1.237,0.242-1.999c0-0.928-0.095-1.696-0.284-2.308c-0.188-0.61-0.446-1.055-0.774-1.331
		c-0.327-0.275-0.708-0.415-1.144-0.415c-0.383,0-0.711,0.089-0.983,0.269c-0.276,0.18-0.503,0.434-0.686,0.764
		c-0.181,0.329-0.312,0.728-0.395,1.195S92.628,86.322,92.628,86.896"/>
	<path fill="#231F20" d="M101.812,87.573v2.171c0,0.307,0.014,0.528,0.035,0.666c0.022,0.139,0.059,0.243,0.105,0.312
		c0.046,0.07,0.11,0.127,0.189,0.173c0.082,0.045,0.221,0.095,0.416,0.15v0.312h-2.692v-0.312c0.264-0.069,0.44-0.146,0.529-0.228
		c0.09-0.084,0.147-0.201,0.177-0.355c0.026-0.151,0.04-0.387,0.04-0.7V84.24c0-0.293-0.011-0.507-0.031-0.641
		c-0.021-0.136-0.057-0.238-0.105-0.312c-0.048-0.075-0.113-0.135-0.192-0.18c-0.082-0.045-0.221-0.096-0.416-0.15v-0.312h3.159
		c0.995,0,1.74,0.181,2.233,0.542S106,84.112,106,84.873c0,0.584-0.161,1.078-0.482,1.487c-0.321,0.407-0.804,0.729-1.444,0.958
		v0.052c0.259,0.105,0.481,0.257,0.666,0.455c0.187,0.197,0.391,0.505,0.616,0.923l0.573,1.047c0.166,0.308,0.31,0.54,0.429,0.701
		c0.119,0.162,0.239,0.285,0.363,0.371c0.123,0.084,0.287,0.145,0.491,0.18v0.312h-1.769c-0.161-0.227-0.314-0.469-0.46-0.729
		c-0.145-0.259-0.286-0.522-0.428-0.791l-0.562-1.064c-0.171-0.323-0.311-0.562-0.418-0.715c-0.108-0.153-0.208-0.263-0.301-0.321
		c-0.092-0.063-0.188-0.106-0.294-0.13c-0.104-0.022-0.26-0.034-0.47-0.034h-0.7V87.573z M101.812,83.232v3.792h0.722
		c0.369,0,0.67-0.027,0.898-0.081c0.23-0.052,0.443-0.153,0.641-0.303c0.194-0.148,0.352-0.354,0.469-0.621s0.176-0.594,0.176-0.98
		c0-0.405-0.069-0.74-0.208-1.008c-0.139-0.269-0.348-0.473-0.628-0.613c-0.282-0.14-0.659-0.21-1.137-0.21
		C102.361,83.207,102.051,83.215,101.812,83.232"/>
	<path fill="#231F20" d="M109.919,86.583h0.189c0.162,0,0.311-0.025,0.444-0.077c0.134-0.05,0.283-0.146,0.449-0.285
		c0.166-0.143,0.42-0.402,0.76-0.786c0.409-0.455,0.688-0.786,0.837-0.989c0.188-0.242,0.312-0.446,0.376-0.613
		c0.051-0.122,0.077-0.241,0.077-0.356c0-0.17-0.05-0.294-0.146-0.372c-0.099-0.08-0.231-0.127-0.401-0.146v-0.312h2.781v0.312
		c-0.136,0.029-0.27,0.082-0.401,0.156s-0.267,0.177-0.405,0.306c-0.138,0.13-0.341,0.346-0.608,0.643l-2.146,2.415l2.324,3.375
		c0.248,0.356,0.44,0.605,0.581,0.751c0.141,0.142,0.274,0.246,0.401,0.312c0.128,0.064,0.265,0.109,0.408,0.13v0.312h-2.814v-0.312
		c0.158-0.013,0.271-0.042,0.345-0.09c0.072-0.045,0.109-0.116,0.109-0.21c0-0.077-0.024-0.169-0.074-0.276
		c-0.048-0.108-0.126-0.239-0.233-0.393l-1.485-2.216c-0.175-0.265-0.303-0.438-0.383-0.523c-0.082-0.086-0.168-0.146-0.263-0.188
		c-0.094-0.04-0.219-0.061-0.376-0.061h-0.34v2.674c0,0.283,0.011,0.493,0.029,0.625c0.02,0.132,0.052,0.234,0.096,0.312
		c0.046,0.076,0.111,0.142,0.198,0.192c0.088,0.052,0.229,0.103,0.424,0.151v0.312h-2.687v-0.312
		c0.264-0.067,0.439-0.144,0.529-0.226c0.089-0.084,0.146-0.201,0.175-0.355c0.028-0.151,0.041-0.387,0.041-0.7V84.24
		c0-0.293-0.01-0.507-0.029-0.641c-0.021-0.136-0.059-0.238-0.106-0.312c-0.049-0.075-0.113-0.135-0.194-0.18
		c-0.08-0.045-0.22-0.096-0.414-0.15v-0.312h2.687v0.312c-0.188,0.048-0.32,0.095-0.404,0.142c-0.082,0.048-0.148,0.104-0.198,0.176
		c-0.049,0.069-0.086,0.175-0.107,0.315c-0.023,0.141-0.036,0.357-0.036,0.65L109.919,86.583z"/>
	<path fill="#231F20" d="M124.912,82.646v1.928h-0.625c-0.095-0.289-0.186-0.521-0.272-0.702c-0.087-0.178-0.179-0.313-0.272-0.407
		c-0.097-0.096-0.208-0.159-0.335-0.198c-0.129-0.038-0.297-0.058-0.506-0.058h-1.868v3.473h1.313c0.188,0,0.333-0.031,0.44-0.094
		c0.105-0.062,0.193-0.166,0.265-0.31c0.069-0.146,0.137-0.369,0.201-0.669h0.6v2.69h-0.6c-0.064-0.287-0.133-0.507-0.205-0.652
		c-0.071-0.146-0.157-0.251-0.259-0.312c-0.1-0.062-0.247-0.093-0.442-0.093h-1.313v2.503c0,0.255,0.014,0.459,0.044,0.612
		c0.029,0.153,0.079,0.272,0.146,0.363c0.067,0.09,0.159,0.155,0.273,0.2c0.114,0.044,0.258,0.085,0.428,0.126v0.312h-2.833v-0.312
		c0.264-0.069,0.439-0.146,0.529-0.228c0.09-0.084,0.146-0.201,0.176-0.355c0.027-0.151,0.042-0.387,0.042-0.7v-5.521
		c0-0.293-0.012-0.507-0.033-0.641c-0.021-0.136-0.056-0.238-0.104-0.312c-0.049-0.075-0.113-0.135-0.193-0.18
		c-0.082-0.045-0.219-0.096-0.415-0.15v-0.312L124.912,82.646L124.912,82.646z"/>
	<path fill="#231F20" d="M129.412,91.459c-0.511,0-0.977-0.084-1.395-0.252c-0.42-0.168-0.78-0.429-1.08-0.785
		c-0.299-0.354-0.53-0.81-0.694-1.361c-0.164-0.553-0.246-1.215-0.246-1.986c0-0.948,0.145-1.763,0.435-2.443
		c0.289-0.681,0.702-1.198,1.241-1.555c0.538-0.354,1.163-0.532,1.874-0.532c0.757,0,1.394,0.168,1.911,0.501
		c0.517,0.334,0.904,0.825,1.169,1.475c0.26,0.648,0.392,1.439,0.392,2.371c0,0.996-0.148,1.836-0.447,2.521
		c-0.298,0.686-0.718,1.196-1.26,1.538C130.767,91.29,130.135,91.459,129.412,91.459 M127.311,86.896
		c0,1.307,0.189,2.301,0.57,2.979c0.382,0.683,0.938,1.021,1.669,1.021c0.464,0,0.858-0.147,1.181-0.443
		c0.324-0.295,0.566-0.729,0.729-1.297c0.162-0.571,0.243-1.237,0.243-1.999c0-0.928-0.097-1.696-0.285-2.308
		c-0.189-0.61-0.447-1.055-0.775-1.331c-0.327-0.275-0.708-0.415-1.143-0.415c-0.383,0-0.712,0.089-0.985,0.269
		c-0.274,0.18-0.503,0.434-0.684,0.764c-0.182,0.329-0.312,0.728-0.396,1.195C127.353,85.8,127.311,86.322,127.311,86.896"/>
	<path fill="#231F20" d="M136.497,87.573v2.171c0,0.307,0.012,0.528,0.035,0.666c0.022,0.139,0.058,0.243,0.104,0.312
		c0.047,0.07,0.11,0.127,0.191,0.173c0.081,0.045,0.219,0.095,0.415,0.15v0.312h-2.693v-0.312c0.264-0.069,0.438-0.146,0.528-0.228
		c0.091-0.084,0.147-0.201,0.177-0.355c0.027-0.151,0.042-0.387,0.042-0.7V84.24c0-0.293-0.012-0.507-0.033-0.641
		c-0.021-0.136-0.056-0.238-0.104-0.312c-0.049-0.075-0.113-0.135-0.193-0.18c-0.082-0.045-0.22-0.096-0.415-0.15v-0.312h3.159
		c0.994,0,1.74,0.181,2.233,0.542c0.492,0.361,0.74,0.924,0.74,1.686c0,0.584-0.162,1.078-0.482,1.487
		c-0.319,0.407-0.803,0.729-1.445,0.958v0.052c0.26,0.105,0.483,0.257,0.668,0.455c0.185,0.197,0.391,0.505,0.614,0.923l0.574,1.047
		c0.165,0.308,0.31,0.54,0.429,0.701c0.119,0.162,0.238,0.285,0.362,0.371c0.124,0.084,0.288,0.145,0.492,0.18v0.312h-1.769
		c-0.16-0.227-0.313-0.469-0.459-0.729c-0.146-0.259-0.286-0.522-0.428-0.791l-0.562-1.064c-0.171-0.323-0.31-0.562-0.418-0.715
		c-0.109-0.153-0.209-0.263-0.3-0.321c-0.091-0.063-0.188-0.106-0.294-0.13c-0.104-0.022-0.262-0.034-0.471-0.034h-0.698V87.573z
		 M136.497,83.232v3.792h0.721c0.37,0,0.671-0.027,0.899-0.081c0.229-0.052,0.442-0.153,0.639-0.303
		c0.196-0.148,0.353-0.354,0.469-0.621c0.119-0.267,0.176-0.594,0.176-0.98c0-0.405-0.068-0.74-0.206-1.008
		c-0.14-0.269-0.349-0.473-0.629-0.613c-0.281-0.14-0.659-0.21-1.136-0.21C137.045,83.207,136.733,83.215,136.497,83.232"/>
	<path fill="#231F20" d="M145.546,91.357v-0.312c0.265-0.067,0.439-0.144,0.53-0.226c0.09-0.084,0.147-0.201,0.176-0.355
		c0.026-0.151,0.041-0.387,0.041-0.7v-5.521c0-0.293-0.01-0.508-0.032-0.641c-0.021-0.136-0.056-0.238-0.104-0.312
		c-0.051-0.075-0.115-0.135-0.195-0.18s-0.219-0.096-0.415-0.15v-0.312h3.492c0.676,0,1.221,0.072,1.631,0.216
		c0.41,0.146,0.716,0.36,0.916,0.643c0.199,0.283,0.3,0.648,0.3,1.096c0,0.371-0.071,0.691-0.215,0.965
		c-0.143,0.271-0.328,0.496-0.56,0.676c-0.229,0.179-0.524,0.343-0.886,0.498v0.057c0.577,0.175,1.018,0.444,1.314,0.809
		c0.298,0.361,0.446,0.797,0.446,1.3c0,0.578-0.129,1.05-0.387,1.416s-0.618,0.632-1.081,0.795
		c-0.464,0.164-1.025,0.245-1.687,0.245h-3.286V91.357z M148.603,86.552c0.647,0,1.143-0.156,1.484-0.47
		c0.343-0.312,0.514-0.767,0.514-1.362c0-0.293-0.048-0.537-0.144-0.73c-0.098-0.193-0.229-0.348-0.396-0.464
		c-0.168-0.113-0.366-0.196-0.596-0.245c-0.23-0.05-0.48-0.072-0.747-0.072c-0.163,0-0.375,0.004-0.64,0.013
		c-0.265,0.008-0.461,0.018-0.595,0.024v3.308L148.603,86.552L148.603,86.552z M147.486,90.75c0.312,0.03,0.657,0.045,1.041,0.045
		c0.559,0,0.991-0.069,1.3-0.21c0.309-0.142,0.529-0.349,0.67-0.622c0.139-0.273,0.207-0.618,0.207-1.03
		c0-0.413-0.074-0.754-0.227-1.021c-0.15-0.269-0.384-0.469-0.7-0.601c-0.313-0.132-0.749-0.197-1.302-0.197h-0.989V90.75z"/>
	<path fill="#231F20" d="M155.484,89.763c0,0.283,0.012,0.493,0.028,0.625c0.021,0.132,0.051,0.234,0.097,0.312
		c0.044,0.076,0.108,0.142,0.196,0.192c0.088,0.052,0.229,0.103,0.426,0.151v0.312h-2.693v-0.312
		c0.264-0.067,0.44-0.144,0.529-0.226c0.091-0.084,0.148-0.201,0.177-0.355c0.026-0.151,0.042-0.388,0.042-0.7V84.24
		c0-0.293-0.013-0.507-0.033-0.641c-0.021-0.136-0.057-0.238-0.105-0.312c-0.049-0.075-0.112-0.135-0.192-0.18
		c-0.082-0.045-0.221-0.096-0.416-0.15v-0.312h2.693v0.312c-0.187,0.048-0.322,0.095-0.404,0.142
		c-0.084,0.048-0.15,0.104-0.198,0.176c-0.049,0.069-0.084,0.175-0.108,0.315c-0.021,0.141-0.035,0.357-0.035,0.65v5.522H155.484z"
		/>
	<path fill="#231F20" d="M161.178,91.459c-0.511,0-0.976-0.084-1.395-0.252s-0.779-0.429-1.079-0.785
		c-0.301-0.354-0.531-0.81-0.694-1.361c-0.165-0.554-0.247-1.215-0.247-1.986c0-0.948,0.146-1.763,0.436-2.443
		c0.288-0.681,0.702-1.198,1.24-1.555c0.539-0.354,1.163-0.532,1.874-0.532c0.757,0,1.395,0.168,1.91,0.501
		c0.52,0.334,0.906,0.825,1.169,1.475c0.261,0.648,0.394,1.439,0.394,2.371c0,0.996-0.149,1.836-0.448,2.521
		c-0.296,0.686-0.717,1.196-1.259,1.538C162.535,91.29,161.901,91.459,161.178,91.459 M159.078,86.896
		c0,1.307,0.189,2.301,0.57,2.979c0.381,0.683,0.938,1.021,1.67,1.021c0.464,0,0.856-0.147,1.181-0.443
		c0.324-0.295,0.566-0.729,0.729-1.297c0.161-0.571,0.242-1.237,0.242-1.999c0-0.928-0.095-1.696-0.284-2.308
		c-0.188-0.61-0.446-1.055-0.774-1.331c-0.327-0.275-0.709-0.415-1.144-0.415c-0.383,0-0.711,0.089-0.985,0.269
		s-0.504,0.434-0.683,0.764c-0.182,0.329-0.312,0.728-0.396,1.195C159.121,85.8,159.078,86.322,159.078,86.896"/>
	<path fill="#231F20" d="M168.264,89.763c0,0.283,0.01,0.493,0.027,0.625c0.021,0.132,0.052,0.234,0.097,0.312
		c0.045,0.076,0.11,0.142,0.197,0.192c0.088,0.052,0.229,0.103,0.426,0.151v0.312h-2.695v-0.312c0.266-0.067,0.441-0.144,0.53-0.226
		c0.091-0.084,0.148-0.201,0.177-0.355c0.027-0.151,0.042-0.388,0.042-0.7V84.24c0-0.293-0.012-0.507-0.033-0.641
		c-0.021-0.136-0.056-0.238-0.104-0.312c-0.049-0.075-0.113-0.135-0.193-0.18c-0.082-0.045-0.22-0.096-0.417-0.15v-0.312h2.695
		v0.312c-0.188,0.048-0.323,0.095-0.405,0.142c-0.084,0.048-0.148,0.104-0.197,0.176c-0.05,0.069-0.085,0.175-0.108,0.315
		s-0.035,0.357-0.035,0.65v5.522H168.264z"/>
	<path fill="#231F20" d="M175.68,87.905c0.154,0.256,0.282,0.479,0.386,0.669c0.105,0.192,0.213,0.408,0.324,0.646h0.082
		c-0.021-0.26-0.04-0.773-0.059-1.549c-0.018-0.771-0.023-1.468-0.023-2.088V84.24c0-0.293-0.009-0.508-0.025-0.645
		c-0.018-0.138-0.049-0.24-0.094-0.312s-0.104-0.131-0.186-0.176c-0.078-0.045-0.216-0.096-0.411-0.15v-0.312h2.299v0.312
		c-0.193,0.053-0.327,0.1-0.407,0.142c-0.077,0.043-0.142,0.099-0.188,0.166c-0.051,0.067-0.087,0.17-0.113,0.307
		c-0.024,0.137-0.037,0.359-0.037,0.67v7.155h-0.799l-3.555-5.962c-0.223-0.369-0.38-0.642-0.474-0.812
		c-0.093-0.171-0.181-0.338-0.262-0.504h-0.107c0.027,0.328,0.051,0.921,0.063,1.777c0.012,0.856,0.018,1.712,0.018,2.562v1.305
		c0,0.283,0.011,0.493,0.029,0.625c0.021,0.132,0.051,0.234,0.096,0.312c0.046,0.076,0.111,0.142,0.197,0.192
		c0.088,0.052,0.229,0.103,0.425,0.151v0.312h-2.328v-0.312c0.264-0.067,0.438-0.144,0.528-0.226
		c0.09-0.084,0.148-0.201,0.176-0.355c0.027-0.151,0.042-0.387,0.042-0.7V84.24c0-0.293-0.012-0.507-0.031-0.641
		c-0.021-0.136-0.059-0.238-0.106-0.312c-0.048-0.075-0.113-0.135-0.192-0.18c-0.081-0.045-0.221-0.096-0.415-0.15v-0.312h1.997
		L175.68,87.905z"/>
	<path fill="#231F20" d="M185.272,82.646v1.928h-0.625c-0.094-0.289-0.186-0.521-0.271-0.702c-0.088-0.178-0.18-0.313-0.273-0.407
		c-0.098-0.096-0.209-0.159-0.336-0.198c-0.128-0.038-0.295-0.058-0.504-0.058h-1.87v3.473h1.315c0.187,0,0.334-0.031,0.439-0.094
		c0.105-0.062,0.193-0.166,0.266-0.31c0.068-0.146,0.137-0.369,0.199-0.669h0.602v2.69h-0.602c-0.062-0.287-0.132-0.507-0.203-0.652
		c-0.072-0.146-0.16-0.251-0.26-0.312c-0.1-0.061-0.246-0.093-0.441-0.093h-1.315v2.503c0,0.255,0.017,0.459,0.045,0.612
		s0.078,0.272,0.146,0.363c0.068,0.09,0.16,0.155,0.273,0.2c0.116,0.044,0.26,0.085,0.43,0.126v0.312h-2.836v-0.312
		c0.266-0.069,0.441-0.146,0.531-0.228c0.09-0.084,0.148-0.201,0.176-0.355c0.027-0.151,0.041-0.387,0.041-0.7v-5.521
		c0-0.293-0.012-0.507-0.031-0.641c-0.021-0.136-0.057-0.238-0.104-0.312c-0.051-0.075-0.114-0.135-0.194-0.18
		c-0.082-0.045-0.22-0.096-0.416-0.15v-0.312L185.272,82.646L185.272,82.646z"/>
	<path fill="#231F20" d="M189.772,91.459c-0.51,0-0.975-0.084-1.395-0.252s-0.777-0.429-1.078-0.785
		c-0.301-0.354-0.531-0.81-0.694-1.361c-0.165-0.554-0.247-1.215-0.247-1.986c0-0.948,0.145-1.763,0.436-2.443
		c0.287-0.681,0.703-1.198,1.24-1.555c0.539-0.354,1.162-0.532,1.873-0.532c0.758,0,1.396,0.168,1.912,0.501
		c0.518,0.334,0.905,0.825,1.168,1.475c0.262,0.648,0.393,1.439,0.393,2.371c0,0.996-0.149,1.836-0.446,2.521
		c-0.299,0.686-0.72,1.196-1.261,1.538C191.129,91.29,190.497,91.459,189.772,91.459 M187.672,86.896
		c0,1.307,0.191,2.301,0.572,2.979c0.381,0.683,0.938,1.021,1.67,1.021c0.463,0,0.855-0.147,1.18-0.443
		c0.324-0.295,0.566-0.729,0.729-1.297c0.161-0.571,0.242-1.237,0.242-1.999c0-0.928-0.095-1.696-0.283-2.308
		c-0.189-0.61-0.447-1.055-0.775-1.331c-0.327-0.275-0.709-0.415-1.143-0.415c-0.384,0-0.713,0.089-0.986,0.269
		c-0.275,0.18-0.502,0.434-0.684,0.764c-0.181,0.329-0.312,0.728-0.396,1.195S187.672,86.322,187.672,86.896"/>
	<path fill="#231F20" d="M196.857,87.573v2.171c0,0.307,0.013,0.528,0.036,0.666c0.021,0.139,0.057,0.243,0.104,0.312
		c0.049,0.07,0.111,0.127,0.191,0.173c0.081,0.045,0.219,0.095,0.415,0.15v0.312h-2.692v-0.312c0.264-0.069,0.439-0.146,0.528-0.228
		c0.09-0.084,0.149-0.201,0.177-0.355c0.027-0.151,0.041-0.387,0.041-0.7V84.24c0-0.293-0.011-0.507-0.033-0.641
		c-0.02-0.136-0.055-0.238-0.104-0.312c-0.049-0.075-0.113-0.135-0.193-0.18c-0.082-0.045-0.22-0.096-0.416-0.15v-0.312h3.159
		c0.996,0,1.741,0.181,2.234,0.542s0.739,0.924,0.739,1.686c0,0.584-0.16,1.078-0.481,1.487c-0.321,0.407-0.803,0.729-1.444,0.958
		v0.052c0.258,0.105,0.482,0.257,0.666,0.455c0.187,0.197,0.391,0.505,0.616,0.923l0.575,1.047c0.164,0.308,0.309,0.54,0.428,0.701
		c0.117,0.162,0.239,0.285,0.363,0.371c0.123,0.084,0.286,0.145,0.49,0.18v0.312h-1.768c-0.162-0.227-0.314-0.469-0.46-0.729
		c-0.146-0.259-0.288-0.522-0.429-0.791l-0.562-1.064c-0.168-0.323-0.309-0.562-0.416-0.715c-0.108-0.153-0.209-0.263-0.302-0.321
		c-0.091-0.063-0.188-0.106-0.293-0.13c-0.104-0.022-0.261-0.034-0.47-0.034h-0.7V87.573z M196.857,83.232v3.792h0.722
		c0.371,0,0.67-0.027,0.899-0.081c0.229-0.052,0.442-0.153,0.64-0.303c0.194-0.148,0.353-0.354,0.469-0.621
		c0.117-0.267,0.176-0.594,0.176-0.98c0-0.405-0.069-0.74-0.207-1.008c-0.139-0.269-0.35-0.473-0.629-0.613
		c-0.281-0.14-0.659-0.21-1.137-0.21C197.407,83.207,197.096,83.215,196.857,83.232"/>
	<path fill="#231F20" d="M212.144,82.957c-0.187,0.048-0.321,0.095-0.403,0.142c-0.084,0.048-0.148,0.104-0.199,0.176
		c-0.049,0.069-0.084,0.175-0.107,0.315c-0.021,0.141-0.035,0.357-0.035,0.65v5.522c0,0.283,0.01,0.493,0.028,0.625
		c0.021,0.132,0.051,0.234,0.097,0.312c0.044,0.076,0.109,0.142,0.197,0.192c0.087,0.052,0.229,0.103,0.424,0.151v0.312h-2.661
		v-0.312c0.243-0.06,0.411-0.127,0.505-0.203s0.158-0.188,0.19-0.339c0.034-0.15,0.052-0.396,0.052-0.739v-2.444
		c0-0.645,0.01-1.294,0.029-1.952c0.02-0.656,0.041-1.104,0.066-1.349h-0.108l-2.527,6.323h-0.733l-2.35-6.426H204.5
		c0.021,0.259,0.043,0.729,0.06,1.41c0.021,0.682,0.028,1.381,0.028,2.1v2.339c0,0.283,0.011,0.493,0.029,0.625
		c0.02,0.132,0.053,0.234,0.096,0.312c0.046,0.076,0.111,0.142,0.197,0.192c0.088,0.052,0.229,0.103,0.426,0.151v0.312h-2.33v-0.312
		c0.264-0.067,0.439-0.144,0.527-0.226c0.092-0.084,0.15-0.201,0.178-0.355c0.027-0.152,0.041-0.387,0.041-0.7V84.24
		c0-0.293-0.01-0.508-0.032-0.641c-0.021-0.136-0.056-0.238-0.104-0.312c-0.049-0.075-0.113-0.135-0.193-0.18
		s-0.219-0.096-0.416-0.15v-0.312h2.279l2.24,6.211l2.465-6.211h2.155v0.312H212.144z"/>
	<path fill="#231F20" d="M217.999,91.357v-0.312c0.211-0.042,0.371-0.09,0.475-0.14c0.104-0.052,0.182-0.122,0.232-0.214
		s0.078-0.214,0.078-0.367c0-0.145-0.02-0.302-0.053-0.469c-0.033-0.169-0.083-0.356-0.146-0.565l-0.235-0.823h-2.976l-0.217,0.625
		c-0.111,0.315-0.183,0.555-0.219,0.716c-0.031,0.162-0.05,0.31-0.05,0.439c0,0.256,0.065,0.443,0.194,0.562
		c0.131,0.118,0.328,0.195,0.597,0.234v0.312h-2.726v-0.312c0.238-0.039,0.445-0.176,0.623-0.415
		c0.178-0.236,0.348-0.578,0.514-1.021l2.66-7.064h1.01l2.171,7.116c0.103,0.332,0.192,0.586,0.271,0.759
		c0.078,0.176,0.174,0.312,0.285,0.409c0.11,0.098,0.262,0.171,0.451,0.217v0.312H217.999z M215.547,87.911h2.666l-1.211-4.116
		L215.547,87.911z"/>
	<path fill="#231F20" d="M220.717,82.646h6.904v2.222h-0.625c-0.094-0.366-0.187-0.655-0.277-0.868
		c-0.092-0.213-0.188-0.374-0.291-0.483c-0.104-0.111-0.211-0.19-0.328-0.236c-0.116-0.048-0.293-0.07-0.525-0.07h-0.812v6.536
		c0,0.25,0.014,0.45,0.042,0.599c0.025,0.149,0.07,0.268,0.127,0.354c0.059,0.087,0.136,0.155,0.234,0.204
		c0.097,0.049,0.25,0.098,0.459,0.146v0.312h-2.918v-0.312c0.129-0.031,0.24-0.062,0.34-0.097c0.097-0.035,0.176-0.076,0.238-0.126
		c0.062-0.049,0.112-0.111,0.152-0.187c0.04-0.077,0.072-0.183,0.098-0.313c0.022-0.132,0.033-0.325,0.033-0.58v-6.536h-0.804
		c-0.2,0-0.366,0.02-0.495,0.058c-0.13,0.039-0.25,0.118-0.359,0.239c-0.111,0.12-0.213,0.294-0.305,0.518
		c-0.091,0.224-0.177,0.505-0.259,0.846h-0.632v-2.224H220.717z"/>
	<path fill="#231F20" d="M230.763,89.763c0,0.283,0.01,0.493,0.028,0.625c0.02,0.132,0.051,0.234,0.097,0.312
		c0.044,0.076,0.108,0.142,0.196,0.192c0.088,0.052,0.229,0.103,0.426,0.151v0.312h-2.694v-0.312c0.265-0.067,0.44-0.144,0.53-0.226
		c0.089-0.084,0.148-0.201,0.176-0.355c0.027-0.151,0.041-0.388,0.041-0.7V84.24c0-0.293-0.011-0.507-0.031-0.641
		c-0.021-0.136-0.058-0.238-0.105-0.312c-0.049-0.075-0.113-0.135-0.194-0.18s-0.22-0.096-0.415-0.15v-0.312h2.694v0.312
		c-0.188,0.048-0.323,0.095-0.405,0.142c-0.084,0.048-0.15,0.104-0.199,0.176c-0.049,0.069-0.084,0.175-0.106,0.315
		c-0.024,0.141-0.035,0.357-0.035,0.65v5.522H230.763z"/>
	<path fill="#231F20" d="M238.933,82.83v1.769h-0.632c-0.102-0.37-0.232-0.665-0.391-0.885c-0.156-0.22-0.341-0.376-0.549-0.47
		c-0.207-0.093-0.459-0.14-0.754-0.14c-0.438,0-0.828,0.146-1.17,0.438c-0.344,0.292-0.613,0.729-0.809,1.314
		c-0.196,0.585-0.293,1.293-0.293,2.122c0,0.833,0.08,1.545,0.242,2.135s0.399,1.034,0.715,1.334c0.314,0.301,0.701,0.45,1.162,0.45
		c0.348,0,0.633-0.05,0.854-0.149c0.221-0.101,0.408-0.259,0.561-0.477c0.15-0.216,0.293-0.536,0.43-0.957h0.633v1.825
		c-0.4,0.105-0.809,0.187-1.229,0.239c-0.42,0.054-0.881,0.079-1.383,0.079c-1.08,0-1.898-0.366-2.451-1.097
		c-0.554-0.732-0.828-1.824-0.828-3.274c0-0.912,0.143-1.709,0.43-2.394c0.287-0.688,0.71-1.215,1.268-1.59
		c0.559-0.374,1.223-0.562,1.998-0.562c0.387,0,0.744,0.021,1.071,0.062C238.137,82.645,238.511,82.72,238.933,82.83"/>
	<path fill="#231F20" d="M240.905,89.372c0.086,0.375,0.2,0.67,0.346,0.889c0.144,0.217,0.332,0.378,0.562,0.48
		c0.229,0.104,0.524,0.156,0.886,0.156c0.5,0,0.881-0.129,1.146-0.39c0.267-0.261,0.4-0.639,0.4-1.137
		c0-0.317-0.057-0.587-0.168-0.804c-0.109-0.218-0.291-0.422-0.541-0.612c-0.252-0.192-0.636-0.416-1.148-0.672
		c-0.498-0.246-0.893-0.488-1.182-0.724c-0.291-0.235-0.506-0.492-0.647-0.771c-0.144-0.274-0.215-0.577-0.215-0.905
		c0-0.478,0.112-0.89,0.336-1.239c0.224-0.353,0.551-0.623,0.981-0.814c0.434-0.19,0.928-0.287,1.484-0.287
		c0.322,0,0.641,0.018,0.947,0.053c0.309,0.032,0.693,0.108,1.158,0.229v1.723h-0.631c-0.1-0.375-0.222-0.667-0.371-0.874
		c-0.148-0.209-0.322-0.354-0.522-0.438c-0.201-0.083-0.46-0.123-0.778-0.123c-0.277,0-0.525,0.051-0.744,0.152
		c-0.22,0.103-0.393,0.256-0.521,0.463c-0.129,0.206-0.19,0.452-0.19,0.736c0,0.304,0.055,0.559,0.162,0.768
		c0.108,0.207,0.275,0.4,0.508,0.581c0.229,0.178,0.57,0.378,1.021,0.599c0.544,0.272,0.967,0.526,1.267,0.76
		c0.301,0.234,0.535,0.5,0.702,0.803c0.169,0.299,0.252,0.648,0.252,1.049c0,0.445-0.069,0.825-0.21,1.134
		c-0.141,0.308-0.335,0.56-0.584,0.753s-0.547,0.334-0.895,0.422c-0.346,0.086-0.728,0.13-1.139,0.13
		c-0.668,0-1.438-0.112-2.311-0.338v-1.75H240.905z"/>
	<path fill="#231F20" d="M251.633,89.763c0,0.283,0.01,0.493,0.027,0.625c0.021,0.132,0.053,0.234,0.098,0.312
		c0.044,0.076,0.109,0.142,0.197,0.192c0.086,0.052,0.229,0.103,0.424,0.151v0.312h-2.692v-0.312
		c0.265-0.067,0.44-0.144,0.528-0.226c0.09-0.084,0.148-0.201,0.177-0.355c0.028-0.151,0.042-0.388,0.042-0.7V84.24
		c0-0.293-0.012-0.507-0.033-0.641c-0.021-0.136-0.057-0.238-0.105-0.312c-0.049-0.075-0.112-0.135-0.192-0.18
		c-0.081-0.045-0.219-0.096-0.415-0.15v-0.312h2.693v0.312c-0.188,0.048-0.323,0.095-0.405,0.142
		c-0.084,0.048-0.149,0.104-0.198,0.176c-0.049,0.069-0.085,0.175-0.107,0.315c-0.023,0.141-0.035,0.357-0.035,0.65v5.522H251.633z"
		/>
	<path fill="#231F20" d="M259.049,87.905c0.154,0.256,0.281,0.479,0.387,0.669c0.104,0.192,0.212,0.408,0.322,0.646h0.082
		c-0.021-0.26-0.039-0.773-0.057-1.549c-0.018-0.771-0.025-1.468-0.025-2.088V84.24c0-0.293-0.008-0.508-0.025-0.645
		c-0.018-0.138-0.048-0.24-0.093-0.312c-0.044-0.072-0.106-0.131-0.185-0.176c-0.08-0.045-0.217-0.096-0.412-0.15v-0.312h2.299
		v0.312c-0.193,0.053-0.327,0.1-0.405,0.142c-0.08,0.043-0.144,0.099-0.192,0.166s-0.086,0.17-0.111,0.307s-0.037,0.359-0.037,0.67
		v7.155h-0.799l-3.555-5.962c-0.222-0.369-0.381-0.642-0.474-0.812c-0.093-0.171-0.181-0.338-0.263-0.504H255.4
		c0.029,0.328,0.052,0.921,0.063,1.777s0.018,1.712,0.018,2.562v1.305c0,0.283,0.01,0.493,0.029,0.625s0.052,0.234,0.096,0.312
		c0.045,0.076,0.111,0.142,0.197,0.192c0.09,0.052,0.229,0.103,0.425,0.151v0.312h-2.329v-0.312c0.264-0.067,0.441-0.144,0.53-0.226
		c0.089-0.084,0.147-0.201,0.176-0.355c0.026-0.151,0.041-0.387,0.041-0.7V84.24c0-0.293-0.011-0.507-0.032-0.641
		c-0.021-0.136-0.057-0.238-0.104-0.312c-0.05-0.075-0.113-0.135-0.194-0.18c-0.08-0.045-0.22-0.096-0.415-0.15v-0.312h1.999
		L259.049,87.905z"/>
	<path fill="#231F20" d="M268.644,82.646v1.928h-0.625c-0.095-0.289-0.185-0.521-0.272-0.702c-0.086-0.178-0.178-0.313-0.272-0.407
		c-0.097-0.096-0.208-0.159-0.335-0.198c-0.129-0.038-0.296-0.058-0.506-0.058h-1.869v3.473h1.316c0.186,0,0.332-0.031,0.438-0.094
		c0.106-0.062,0.194-0.166,0.265-0.31c0.069-0.146,0.139-0.369,0.2-0.669h0.603v2.69h-0.603c-0.062-0.287-0.132-0.507-0.204-0.652
		c-0.07-0.146-0.158-0.251-0.259-0.312s-0.246-0.093-0.44-0.093h-1.316v2.503c0,0.255,0.016,0.459,0.046,0.612
		c0.028,0.153,0.078,0.272,0.146,0.363c0.068,0.09,0.16,0.155,0.274,0.2c0.114,0.044,0.256,0.085,0.427,0.126v0.312h-2.834v-0.312
		c0.264-0.069,0.44-0.146,0.529-0.228c0.091-0.084,0.148-0.201,0.176-0.355c0.028-0.151,0.042-0.387,0.042-0.7v-5.521
		c0-0.293-0.011-0.507-0.032-0.641c-0.021-0.136-0.056-0.238-0.104-0.312c-0.049-0.075-0.115-0.135-0.195-0.18
		s-0.219-0.096-0.415-0.15v-0.312L268.644,82.646L268.644,82.646z"/>
	<path fill="#231F20" d="M271.782,87.573v2.171c0,0.307,0.012,0.528,0.035,0.666c0.023,0.139,0.059,0.243,0.105,0.312
		c0.047,0.07,0.109,0.127,0.191,0.173c0.079,0.045,0.219,0.095,0.414,0.15v0.312h-2.695v-0.312c0.267-0.069,0.441-0.146,0.533-0.228
		c0.088-0.084,0.146-0.201,0.176-0.355c0.025-0.151,0.039-0.387,0.039-0.7V84.24c0-0.293-0.01-0.507-0.03-0.641
		c-0.021-0.136-0.058-0.238-0.104-0.312c-0.051-0.075-0.115-0.135-0.195-0.18s-0.219-0.096-0.416-0.15v-0.312h3.16
		c0.996,0,1.74,0.181,2.234,0.542c0.493,0.361,0.739,0.924,0.739,1.686c0,0.584-0.161,1.078-0.481,1.487
		c-0.32,0.407-0.804,0.729-1.445,0.958v0.052c0.261,0.105,0.481,0.257,0.668,0.455c0.186,0.197,0.391,0.505,0.615,0.923l0.574,1.047
		c0.165,0.308,0.309,0.54,0.428,0.701c0.119,0.162,0.24,0.285,0.364,0.371c0.122,0.084,0.286,0.145,0.491,0.18v0.312h-1.768
		c-0.162-0.227-0.315-0.469-0.461-0.729c-0.146-0.259-0.287-0.522-0.428-0.791l-0.562-1.064c-0.171-0.323-0.31-0.562-0.419-0.715
		c-0.108-0.153-0.209-0.263-0.299-0.321c-0.092-0.063-0.19-0.106-0.295-0.13c-0.104-0.022-0.262-0.034-0.469-0.034h-0.701V87.573z
		 M271.782,83.232v3.792h0.723c0.369,0,0.67-0.027,0.898-0.081c0.23-0.052,0.443-0.153,0.639-0.303
		c0.195-0.148,0.354-0.354,0.471-0.621s0.175-0.594,0.175-0.98c0-0.405-0.067-0.74-0.208-1.008
		c-0.139-0.269-0.348-0.473-0.629-0.613c-0.28-0.14-0.659-0.21-1.135-0.21C272.331,83.207,272.021,83.215,271.782,83.232"/>
	<path fill="#231F20" d="M282.265,91.357v-0.312c0.211-0.042,0.368-0.09,0.474-0.14c0.104-0.052,0.184-0.122,0.234-0.214
		c0.05-0.092,0.074-0.214,0.074-0.367c0-0.145-0.016-0.302-0.049-0.469c-0.035-0.169-0.084-0.356-0.147-0.565l-0.235-0.823h-2.977
		l-0.215,0.625c-0.111,0.315-0.186,0.555-0.219,0.716c-0.033,0.162-0.051,0.31-0.051,0.439c0,0.256,0.064,0.443,0.194,0.562
		c0.129,0.118,0.329,0.195,0.597,0.234v0.312h-2.726v-0.312c0.239-0.039,0.444-0.176,0.622-0.415
		c0.177-0.236,0.348-0.578,0.514-1.021l2.661-7.064h1.011l2.17,7.116c0.102,0.332,0.191,0.586,0.271,0.759
		c0.078,0.176,0.172,0.312,0.283,0.409s0.263,0.171,0.453,0.217v0.312H282.265z M279.811,87.911h2.669l-1.214-4.116L279.811,87.911z
		"/>
	<path fill="#231F20" d="M286.489,89.372c0.086,0.375,0.2,0.67,0.344,0.889c0.146,0.217,0.332,0.378,0.562,0.48
		c0.23,0.104,0.525,0.156,0.889,0.156c0.498,0,0.879-0.129,1.146-0.39c0.266-0.261,0.399-0.639,0.399-1.137
		c0-0.317-0.058-0.587-0.168-0.804c-0.109-0.218-0.291-0.422-0.543-0.612c-0.25-0.192-0.633-0.416-1.147-0.672
		c-0.498-0.246-0.892-0.488-1.181-0.724s-0.506-0.492-0.647-0.771c-0.142-0.274-0.214-0.577-0.214-0.905
		c0-0.478,0.111-0.89,0.334-1.239c0.225-0.353,0.552-0.623,0.982-0.814c0.432-0.19,0.928-0.287,1.485-0.287
		c0.322,0,0.64,0.018,0.947,0.053c0.309,0.032,0.694,0.108,1.157,0.229v1.723h-0.631c-0.099-0.375-0.223-0.667-0.371-0.874
		c-0.148-0.209-0.322-0.354-0.522-0.438s-0.459-0.123-0.778-0.123c-0.277,0-0.523,0.051-0.744,0.152
		c-0.219,0.103-0.394,0.256-0.521,0.463c-0.128,0.206-0.19,0.452-0.19,0.736c0,0.304,0.053,0.559,0.164,0.768
		c0.106,0.207,0.274,0.4,0.506,0.581c0.229,0.178,0.569,0.378,1.021,0.599c0.546,0.272,0.969,0.526,1.269,0.76
		c0.299,0.234,0.533,0.5,0.703,0.803c0.168,0.299,0.25,0.648,0.25,1.049c0,0.445-0.068,0.825-0.209,1.134
		c-0.141,0.308-0.336,0.56-0.585,0.753c-0.247,0.193-0.547,0.334-0.894,0.422c-0.348,0.086-0.727,0.13-1.141,0.13
		c-0.666,0-1.438-0.112-2.311-0.338v-1.75H286.489z"/>
	<path fill="#231F20" d="M291.881,82.646h6.906v2.222h-0.625c-0.095-0.366-0.188-0.655-0.277-0.868
		c-0.092-0.213-0.188-0.374-0.291-0.483c-0.102-0.111-0.211-0.19-0.328-0.236c-0.116-0.048-0.292-0.07-0.525-0.07h-0.812v6.536
		c0,0.25,0.014,0.45,0.042,0.599c0.025,0.149,0.07,0.268,0.127,0.354c0.059,0.087,0.135,0.155,0.234,0.204
		c0.096,0.049,0.25,0.098,0.459,0.146v0.312h-2.918v-0.312c0.127-0.031,0.24-0.062,0.34-0.097c0.096-0.035,0.177-0.076,0.236-0.126
		c0.062-0.049,0.114-0.111,0.154-0.187c0.04-0.077,0.072-0.183,0.098-0.313c0.021-0.132,0.033-0.325,0.033-0.58v-6.536h-0.804
		c-0.2,0-0.366,0.02-0.495,0.058c-0.13,0.039-0.251,0.118-0.359,0.239c-0.111,0.12-0.213,0.294-0.304,0.518
		c-0.092,0.224-0.179,0.505-0.26,0.846h-0.632V82.646L291.881,82.646z"/>
	<path fill="#231F20" d="M301.928,87.573v2.171c0,0.307,0.014,0.528,0.035,0.666c0.023,0.139,0.059,0.243,0.105,0.312
		c0.047,0.07,0.109,0.127,0.191,0.173c0.08,0.045,0.219,0.095,0.414,0.15v0.312h-2.693v-0.312c0.264-0.069,0.439-0.146,0.529-0.228
		c0.09-0.084,0.148-0.201,0.178-0.355c0.025-0.151,0.041-0.387,0.041-0.7V84.24c0-0.293-0.012-0.507-0.033-0.641
		c-0.021-0.136-0.057-0.238-0.105-0.312c-0.049-0.075-0.111-0.135-0.193-0.18s-0.219-0.096-0.414-0.15v-0.312h3.158
		c0.996,0,1.74,0.181,2.234,0.542s0.74,0.924,0.74,1.686c0,0.584-0.162,1.078-0.482,1.487c-0.32,0.407-0.803,0.729-1.443,0.958
		v0.052c0.258,0.105,0.48,0.257,0.666,0.455c0.186,0.197,0.391,0.505,0.613,0.923l0.576,1.047c0.166,0.308,0.309,0.54,0.428,0.701
		c0.119,0.162,0.24,0.285,0.363,0.371c0.123,0.084,0.287,0.145,0.492,0.18v0.312h-1.77c-0.16-0.227-0.314-0.469-0.459-0.729
		c-0.145-0.259-0.287-0.522-0.428-0.791l-0.562-1.064c-0.17-0.323-0.309-0.562-0.418-0.715c-0.107-0.153-0.207-0.263-0.301-0.321
		c-0.092-0.063-0.188-0.106-0.293-0.13c-0.104-0.022-0.262-0.034-0.469-0.034h-0.701V87.573z M301.928,83.232v3.792h0.723
		c0.369,0,0.67-0.027,0.898-0.081c0.23-0.052,0.443-0.153,0.641-0.303c0.193-0.148,0.352-0.354,0.469-0.621s0.174-0.594,0.174-0.98
		c0-0.405-0.068-0.74-0.207-1.008c-0.139-0.269-0.348-0.473-0.629-0.613c-0.279-0.14-0.66-0.21-1.135-0.21
		C302.477,83.207,302.167,83.215,301.928,83.232"/>
	<path fill="#231F20" d="M314.215,88.345c0,0.464-0.043,0.863-0.129,1.199c-0.08,0.32-0.201,0.603-0.363,0.85
		c-0.148,0.222-0.334,0.41-0.555,0.565c-0.223,0.155-0.488,0.275-0.805,0.366c-0.314,0.089-0.686,0.134-1.109,0.134
		c-0.516,0-0.957-0.057-1.326-0.173c-0.365-0.112-0.672-0.302-0.912-0.563s-0.412-0.569-0.52-0.926
		c-0.107-0.355-0.16-0.809-0.16-1.355v-4.2c0-0.332-0.01-0.557-0.031-0.673c-0.021-0.117-0.053-0.21-0.094-0.278
		c-0.041-0.066-0.1-0.127-0.178-0.176c-0.074-0.049-0.217-0.102-0.426-0.156v-0.312h2.682v0.312
		c-0.238,0.061-0.404,0.128-0.498,0.201c-0.094,0.075-0.156,0.187-0.191,0.335c-0.033,0.15-0.051,0.397-0.051,0.747v4.52
		c0,0.412,0.043,0.76,0.131,1.039c0.086,0.281,0.209,0.5,0.365,0.654c0.158,0.155,0.346,0.27,0.564,0.34
		c0.217,0.069,0.484,0.104,0.811,0.104c0.297,0,0.559-0.052,0.783-0.156c0.227-0.104,0.414-0.264,0.564-0.476
		c0.15-0.213,0.256-0.476,0.312-0.785c0.055-0.311,0.08-0.729,0.08-1.251v-3.989c0-0.37-0.018-0.623-0.053-0.76
		c-0.037-0.137-0.098-0.24-0.18-0.313c-0.084-0.069-0.254-0.142-0.514-0.21v-0.312h2.547v0.312c-0.246,0.064-0.416,0.135-0.508,0.21
		c-0.092,0.077-0.154,0.188-0.189,0.332c-0.031,0.146-0.051,0.393-0.051,0.741v4.104H314.215z"/>
	<path fill="#231F20" d="M322.155,82.83v1.769h-0.631c-0.104-0.37-0.234-0.665-0.391-0.885c-0.158-0.22-0.342-0.376-0.551-0.47
		c-0.207-0.093-0.459-0.14-0.754-0.14c-0.438,0-0.826,0.146-1.17,0.438c-0.342,0.292-0.611,0.729-0.809,1.314
		c-0.195,0.585-0.293,1.293-0.293,2.122c0,0.833,0.08,1.545,0.242,2.135s0.4,1.034,0.715,1.334c0.316,0.301,0.703,0.45,1.162,0.45
		c0.35,0,0.635-0.05,0.855-0.149c0.221-0.101,0.408-0.259,0.559-0.477c0.152-0.216,0.295-0.536,0.432-0.957h0.631v1.825
		c-0.398,0.105-0.811,0.187-1.229,0.239c-0.42,0.054-0.881,0.079-1.383,0.079c-1.08,0-1.896-0.366-2.451-1.097
		c-0.553-0.732-0.828-1.824-0.828-3.274c0-0.912,0.145-1.709,0.432-2.394c0.287-0.688,0.709-1.215,1.266-1.59
		c0.557-0.374,1.225-0.562,1.998-0.562c0.387,0,0.744,0.021,1.072,0.062C321.36,82.645,321.733,82.72,322.155,82.83"/>
	<path fill="#231F20" d="M323.278,82.646h6.906v2.222h-0.627c-0.094-0.366-0.186-0.655-0.275-0.868
		c-0.092-0.213-0.189-0.374-0.291-0.483c-0.104-0.111-0.211-0.19-0.33-0.236c-0.115-0.048-0.291-0.07-0.525-0.07h-0.811v6.536
		c0,0.25,0.014,0.45,0.041,0.599c0.027,0.149,0.07,0.268,0.129,0.354c0.057,0.087,0.135,0.155,0.23,0.204
		c0.098,0.049,0.252,0.098,0.461,0.146v0.312h-2.918v-0.312c0.127-0.031,0.24-0.062,0.34-0.097c0.098-0.035,0.178-0.076,0.238-0.126
		c0.062-0.049,0.111-0.111,0.152-0.187c0.041-0.077,0.074-0.183,0.096-0.313c0.023-0.132,0.035-0.325,0.035-0.58v-6.536h-0.803
		c-0.201,0-0.365,0.02-0.494,0.058c-0.131,0.039-0.252,0.118-0.361,0.239c-0.109,0.12-0.213,0.294-0.303,0.518
		c-0.092,0.224-0.18,0.505-0.26,0.846h-0.633v-2.224H323.278z"/>
	<path fill="#231F20" d="M337.786,88.345c0,0.464-0.043,0.863-0.129,1.199c-0.08,0.32-0.201,0.603-0.361,0.85
		c-0.15,0.222-0.336,0.41-0.557,0.565c-0.223,0.155-0.488,0.275-0.805,0.366c-0.314,0.089-0.684,0.134-1.109,0.134
		c-0.518,0-0.957-0.057-1.324-0.173c-0.369-0.112-0.674-0.302-0.914-0.563s-0.412-0.569-0.52-0.926
		c-0.107-0.354-0.158-0.809-0.158-1.355v-4.2c0-0.332-0.012-0.557-0.033-0.673c-0.02-0.117-0.053-0.21-0.094-0.278
		c-0.039-0.066-0.1-0.127-0.176-0.176s-0.219-0.102-0.428-0.156v-0.312h2.684v0.312c-0.24,0.061-0.406,0.128-0.498,0.201
		c-0.096,0.075-0.158,0.187-0.193,0.335c-0.033,0.15-0.051,0.397-0.051,0.747v4.52c0,0.412,0.043,0.76,0.131,1.039
		c0.088,0.281,0.211,0.5,0.367,0.654c0.158,0.155,0.344,0.27,0.562,0.34c0.217,0.069,0.486,0.104,0.811,0.104
		c0.299,0,0.559-0.052,0.785-0.156c0.227-0.104,0.414-0.264,0.564-0.476c0.15-0.213,0.254-0.476,0.311-0.785
		c0.055-0.311,0.082-0.729,0.082-1.251v-3.989c0-0.37-0.018-0.623-0.055-0.76c-0.035-0.137-0.096-0.24-0.178-0.313
		c-0.084-0.069-0.256-0.142-0.514-0.21v-0.312h2.545v0.312c-0.246,0.064-0.416,0.135-0.508,0.21
		c-0.09,0.077-0.152,0.188-0.188,0.332c-0.033,0.146-0.053,0.393-0.053,0.741v4.104H337.786z"/>
	<path fill="#231F20" d="M341.793,87.573v2.171c0,0.307,0.012,0.528,0.035,0.666c0.023,0.139,0.059,0.243,0.104,0.312
		c0.051,0.07,0.111,0.127,0.191,0.173c0.082,0.045,0.221,0.095,0.416,0.15v0.312h-2.695v-0.312c0.268-0.069,0.441-0.146,0.531-0.228
		c0.09-0.084,0.148-0.201,0.176-0.355c0.027-0.151,0.041-0.387,0.041-0.7V84.24c0-0.293-0.01-0.507-0.031-0.641
		c-0.021-0.136-0.057-0.238-0.105-0.312c-0.049-0.075-0.113-0.135-0.195-0.18c-0.078-0.045-0.217-0.096-0.414-0.15v-0.312h3.16
		c0.996,0,1.74,0.181,2.234,0.542s0.74,0.924,0.74,1.686c0,0.584-0.16,1.078-0.482,1.487c-0.322,0.407-0.805,0.729-1.445,0.958
		v0.052c0.26,0.105,0.482,0.257,0.668,0.455c0.186,0.197,0.391,0.505,0.615,0.923l0.574,1.047c0.164,0.308,0.309,0.54,0.428,0.701
		c0.119,0.162,0.24,0.285,0.365,0.371c0.121,0.084,0.285,0.145,0.49,0.18v0.312h-1.77c-0.162-0.227-0.312-0.469-0.459-0.729
		c-0.146-0.259-0.287-0.522-0.428-0.791l-0.562-1.064c-0.172-0.323-0.311-0.562-0.418-0.715c-0.109-0.153-0.209-0.263-0.301-0.321
		c-0.09-0.063-0.189-0.106-0.293-0.13c-0.104-0.022-0.262-0.034-0.469-0.034h-0.701V87.573z M341.793,83.232v3.792h0.723
		c0.369,0,0.668-0.027,0.898-0.081c0.229-0.052,0.443-0.153,0.639-0.303c0.195-0.148,0.354-0.354,0.471-0.621
		c0.115-0.267,0.174-0.594,0.174-0.98c0-0.405-0.068-0.74-0.207-1.008c-0.139-0.269-0.348-0.473-0.627-0.613
		c-0.283-0.14-0.66-0.21-1.139-0.21C342.342,83.207,342.032,83.215,341.793,83.232"/>
	<path fill="#231F20" d="M353.932,82.646v1.928h-0.625c-0.062-0.209-0.129-0.391-0.195-0.548c-0.068-0.159-0.139-0.29-0.211-0.397
		c-0.072-0.104-0.152-0.189-0.24-0.255c-0.088-0.062-0.189-0.106-0.311-0.131c-0.117-0.023-0.26-0.034-0.428-0.034h-2.016v3.345
		h1.365c0.188,0,0.334-0.026,0.439-0.08s0.193-0.145,0.266-0.271c0.068-0.127,0.139-0.327,0.199-0.6h0.602v2.451h-0.602
		c-0.059-0.256-0.125-0.447-0.197-0.577c-0.07-0.129-0.156-0.225-0.258-0.278c-0.1-0.055-0.25-0.082-0.449-0.082h-1.365v3.682h1.982
		c0.209,0,0.381-0.017,0.51-0.054c0.129-0.036,0.24-0.099,0.334-0.186c0.094-0.088,0.178-0.2,0.25-0.343
		c0.07-0.139,0.133-0.284,0.182-0.437c0.049-0.151,0.115-0.371,0.201-0.66h0.631l-0.119,2.239h-5.912v-0.312
		c0.266-0.069,0.439-0.146,0.531-0.228c0.088-0.084,0.146-0.201,0.176-0.355c0.025-0.151,0.039-0.387,0.039-0.7v-5.521
		c0-0.293-0.01-0.507-0.031-0.641c-0.02-0.136-0.057-0.238-0.104-0.312c-0.051-0.075-0.115-0.135-0.195-0.18
		s-0.219-0.096-0.416-0.15v-0.312L353.932,82.646L353.932,82.646z"/>
	<path fill="#929497" d="M127.541,18.281c0.402,1.925-0.831,3.812-2.756,4.215c-1.927,0.404-3.814-0.83-4.219-2.755
		c-0.402-1.926,0.831-3.812,2.758-4.216C125.25,15.121,127.136,16.356,127.541,18.281"/>
	<path fill="#929497" d="M156.069,71.913c0.402,1.926-0.83,3.813-2.757,4.217c-1.926,0.404-3.812-0.83-4.217-2.757
		c-0.403-1.925,0.831-3.812,2.757-4.216C153.778,68.754,155.667,69.989,156.069,71.913"/>
	<path fill="#929497" d="M175.172,66.916c0.403,1.925-0.83,3.812-2.756,4.216c-1.926,0.404-3.814-0.83-4.218-2.756
		c-0.403-1.927,0.832-3.812,2.758-4.217C172.882,63.757,174.769,64.99,175.172,66.916"/>
	<path fill="#929497" d="M165.957,3.275c0.402,1.926-0.83,3.812-2.756,4.216c-1.927,0.403-3.813-0.831-4.218-2.756
		c-0.402-1.925,0.831-3.813,2.758-4.216C163.667,0.115,165.554,1.349,165.957,3.275"/>
	<path fill="#929497" d="M122.396,30.449c0.403,1.926-0.83,3.813-2.756,4.216c-1.926,0.403-3.812-0.831-4.217-2.756
		c-0.404-1.926,0.831-3.812,2.757-4.216S121.994,28.524,122.396,30.449"/>
	<path fill="#929497" d="M191.763,32.101c0.403,1.925-0.83,3.812-2.755,4.216c-1.928,0.403-3.815-0.83-4.219-2.756
		c-0.403-1.927,0.832-3.813,2.758-4.216C189.473,28.941,191.36,30.174,191.763,32.101"/>
</g>
</svg>
