<svg id="Layer_2" data-name="Layer 2" xmlns="http://www.w3.org/2000/svg" xmlns:xlink="http://www.w3.org/1999/xlink" viewBox="0 0 177.36 120"><defs><style>.cls-1{fill:none;}.cls-2{opacity:0.3;}.cls-3{fill:#5c5c68;}.cls-4{clip-path:url(#clip-path);}.cls-5{fill:#fff;}.cls-6{fill:#e54a3b;}.cls-7{clip-path:url(#clip-path-2);}</style><clipPath id="clip-path"><rect class="cls-1" x="78.04" y="23.89" width="23.39" height="143.88" transform="translate(-6.1 185.56) rotate(-90)"/></clipPath><clipPath id="clip-path-2"><ellipse class="cls-1" cx="94.29" cy="29.14" rx="17.22" ry="16.93"/></clipPath></defs><title>InformaticsMatters_NewLogo</title><g class="cls-2"><path class="cls-3" d="M62.74,39.27,68.3,41c1.82.57,3.65,1.13,5.46,1.73a1.27,1.27,0,0,0,1.14-.11c3.1-1.77,6.21-3.53,9.32-5.28l.78-.41.52.82c-.24.15-.45.29-.66.41q-4.74,2.7-9.48,5.39a.84.84,0,0,0-.5.84q0,9,0,18a.85.85,0,0,0,.49.85q8,4.53,15.93,9.09a.94.94,0,0,0,1,0c3.05-1.5,6.12-3,9.18-4.47l.74-.34.46.86c-.25.14-.46.26-.68.37-2.48,1.22-5,2.44-7.45,3.63a1,1,0,0,0-.65,1.05c0,5.71,0,11.42,0,17.13,0,.25,0,.5,0,.72-1,.28-1.07.2-1.07-.68q0-8.25,0-16.5c0-.25,0-.49,0-.85-.68.35-1.3.72-2-.1,0,.48,0,.72,0,1q0,8.25,0,16.5c0,.87,0,.9-1.07.72,0-.25,0-.51,0-.77,0-5.75,0-11.5,0-17.25a1,1,0,0,0-.61-1q-7.14-4-14.26-8.14A1.48,1.48,0,0,0,73.52,64c-3.37,1.08-6.75,2.13-10.13,3.19l-.63.17-.34-.92,1.19-.41c3.17-1,6.34-2,9.51-3,.48-.15.68-.33.68-.86q0-8.85,0-17.69a.74.74,0,0,0-.63-.83c-3.36-1-6.71-2.12-10.07-3.19l-.68-.24Z"/><path class="cls-3" d="M93.21,91.69a.58.58,0,0,1-.36-.11c-.24-.18-.26-.52-.26-1v-17a1.45,1.45,0,0,1-1.57,0v.44q0,8.25,0,16.5c0,.46,0,.75-.22.92s-.54.14-1.13,0l-.19,0V86.26q0-6.47,0-12.94a.81.81,0,0,0-.5-.83c-5-2.85-9.69-5.51-14.26-8.14a1.24,1.24,0,0,0-1.13-.12c-2.62.84-5.24,1.66-7.87,2.48l-2.27.71-.39.11-.45.12-.49-1.34.64-.22.78-.26,1.79-.57c2.57-.82,5.15-1.64,7.73-2.45.42-.13.52-.25.52-.64,0-5.65,0-11.61,0-17.69,0-.37-.09-.49-.46-.61q-4-1.25-8-2.53L63,40.68l-.4-.14-.5-.17L62.59,39l7.18,2.25c1.36.42,2.71.85,4.07,1.29a1,1,0,0,0,1-.1q3.85-2.2,7.72-4.38l1.6-.9.53-.28.45-.23.75,1.2-.41.26-.45.28-1.59.91q-3.94,2.25-7.89,4.48a.61.61,0,0,0-.38.63c0,6.08,0,12.14,0,18a.62.62,0,0,0,.37.64q8,4.53,15.93,9.09a.71.71,0,0,0,.79,0q3.76-1.85,7.53-3.67l1.65-.8.48-.22.46-.21L103,68.5l-.42.23-.47.26-1.59.78c-1.92.94-3.9,1.92-5.86,2.85a.76.76,0,0,0-.52.84q0,6.66,0,13.32v4.7l-.17,0A2.88,2.88,0,0,1,93.21,91.69ZM93,72.9V90.63c0,.44,0,.56.07.58s.23,0,.54-.08V86.78q0-6.66,0-13.32a1.21,1.21,0,0,1,.78-1.26c2-.93,3.94-1.91,5.85-2.85l1.59-.78.45-.24h0l-.25-.47-.07,0-.46.21-1.65.8q-3.77,1.83-7.53,3.67a1.16,1.16,0,0,1-1.22,0q-8-4.56-15.93-9.09a1.08,1.08,0,0,1-.61-1c0-5.87,0-11.93,0-18a1.07,1.07,0,0,1,.62-1q4-2.23,7.89-4.48L84.75,38l.44-.27h0l-.28-.45-.07,0-.51.27-1.6.9Q78.87,40.64,75,42.83a1.5,1.5,0,0,1-1.33.13c-1.35-.44-2.7-.87-4.06-1.29l-6.74-2.12-.17.52.07,0,.39.13,2.07.66q4,1.27,8,2.53A1,1,0,0,1,74,44.48c0,6.09,0,12,0,17.69a1,1,0,0,1-.84,1.08c-2.58.8-5.15,1.62-7.72,2.45l-1.79.57-.76.26-.2.07.18.5h0l.37-.11,2.27-.71c2.62-.82,5.25-1.64,7.86-2.48A1.7,1.7,0,0,1,75,64c4.57,2.63,9.23,5.29,14.25,8.14a1.26,1.26,0,0,1,.73,1.24q0,6.47,0,12.94v4.89a1.55,1.55,0,0,0,.56,0,1.8,1.8,0,0,0,0-.56q0-8.25,0-16.5V72.57L91,73c.59.66,1,.42,1.68.09Z"/><path class="cls-3" d="M125.82,35.35l.54.88-2.78,1.65Q117,41.75,110.49,45.6a1,1,0,0,0-.57,1c0,2.91,0,5.81,0,8.72,0,.82-.07.87-1,.69,0-.22,0-.47,0-.71,0-3.43,0-6.86,0-10.29a1.23,1.23,0,0,0-.7-1.24c-3.2-1.86-6.36-3.77-9.54-5.66-.16-.1-.31-.21-.52-.35l.5-.81c.23.12.44.22.64.33,2.67,1.57,5.34,3.14,8,4.74a1.07,1.07,0,0,0,1.28,0q7.52-4.48,15.06-8.91l.62-.34.55.86L108.89,43c.8.32,1.26.76,1,1.73Z"/><path class="cls-3" d="M109.52,56.33a3.86,3.86,0,0,1-.67-.09l-.18,0,0-.41c0-.16,0-.32,0-.49V53.14c0-2.66,0-5.42,0-8.13a1,1,0,0,0-.59-1c-2.48-1.45-5-2.94-7.42-4.39L98.5,38.31l-.34-.23-.38-.26.73-1.18.41.21.42.22,1.71,1c2.1,1.24,4.2,2.47,6.29,3.73a.85.85,0,0,0,1,0q6-3.6,12.09-7.16l3-1.75.4-.22.41-.23.8,1.24L109.39,43a1.33,1.33,0,0,1,.79,1.3L125.89,35l.79,1.28-1.2.72-1.78,1.05-2.33,1.38Q116,42.64,110.61,45.8a.77.77,0,0,0-.46.8c0,2.23,0,4.46,0,6.69v2c0,.43,0,.72-.22.89A.61.61,0,0,1,109.52,56.33Zm-.41-.51a1.32,1.32,0,0,0,.52,0,1.25,1.25,0,0,0,.05-.53v-2c0-2.23,0-4.46,0-6.68a1.23,1.23,0,0,1,.69-1.2q5.39-3.16,10.76-6.34l2.33-1.38,1.77-1.05.8-.48-.3-.49-16.27,9.58.17-.57c.22-.74,0-1.12-.83-1.45l-.44-.17,16-9.51-.31-.48,0,0-.38.21-3,1.75q-6.05,3.57-12.09,7.16a1.3,1.3,0,0,1-1.52,0c-2.09-1.26-4.19-2.49-6.29-3.73l-1.71-1-.4-.21,0,0h0l-.27.44h0l.31.21,2.12,1.27c2.43,1.45,4.93,2.94,7.42,4.39a1.46,1.46,0,0,1,.82,1.45c0,2.71,0,5.46,0,8.12V55.3c0,.16,0,.31,0,.46Z"/><path class="cls-3" d="M91.67,104.11c-3.34,0-5.41-2.14-5.24-5.42a8.51,8.51,0,0,1,.2-1.49A4.58,4.58,0,0,1,91,93.55a8.14,8.14,0,0,1,2.37.18A4.7,4.7,0,0,1,97,98.38a7.64,7.64,0,0,1-.17,2.05C96.25,102.83,94.42,104.11,91.67,104.11Zm3.77-5.22c0-.33,0-.6,0-.87A3.42,3.42,0,0,0,92,94.71a3.47,3.47,0,0,0-3.86,2.71,6.65,6.65,0,0,0-.16,2,3.46,3.46,0,0,0,1.79,3.08,3.75,3.75,0,0,0,5.61-2.65A8.85,8.85,0,0,0,95.44,98.89Z"/><path class="cls-3" d="M91.68,104.34h0a5.53,5.53,0,0,1-4.14-1.59,5.35,5.35,0,0,1-1.33-4.08,8.85,8.85,0,0,1,.2-1.53A4.8,4.8,0,0,1,91,93.32a8.6,8.6,0,0,1,2.44.19,4.93,4.93,0,0,1,3.79,4.87,7.92,7.92,0,0,1-.17,2.12C96.46,103,94.56,104.34,91.68,104.34Zm-.12-10.58-.56,0a4.35,4.35,0,0,0-4.15,3.47,8.51,8.51,0,0,0-.19,1.45,4.9,4.9,0,0,0,1.21,3.73,5.08,5.08,0,0,0,3.8,1.44h0c2.64,0,4.38-1.24,4.89-3.49a7.48,7.48,0,0,0,.16-2A4.49,4.49,0,0,0,93.3,94,7.52,7.52,0,0,0,91.56,93.76Zm.16,9.45a4.42,4.42,0,0,1-2.06-.52,3.67,3.67,0,0,1-1.91-3.27,6.89,6.89,0,0,1,.16-2.06A3.7,3.7,0,0,1,92,94.47,3.64,3.64,0,0,1,95.63,98c0,.18,0,.37,0,.57v.33h0c0,.08,0,.17,0,.25a5.24,5.24,0,0,1-.05.71,3.91,3.91,0,0,1-3.89,3.34Zm0-8.29a3.22,3.22,0,0,0-3.31,2.55,6.41,6.41,0,0,0-.15,1.92,3.2,3.2,0,0,0,1.67,2.89,3.7,3.7,0,0,0,3.4.11,3.48,3.48,0,0,0,1.87-2.59,4.78,4.78,0,0,0,0-.65c0-.09,0-.17,0-.26v-.31c0-.19,0-.36,0-.54A3.21,3.21,0,0,0,92,94.94Z"/><path class="cls-3" d="M132,26c3.8,0,5.57,2.69,5.18,6-.44,3.74-4,5.66-7.61,4.17A4.42,4.42,0,0,1,127,33.42a6.64,6.64,0,0,1-.23-3.47C127.26,27.36,129.1,26,132,26Zm3.68,5.25h0c0-.15,0-.29,0-.44a3.72,3.72,0,0,0-7.38-.51,6.12,6.12,0,0,0-.07,1.44,3.58,3.58,0,0,0,3.55,3.67,3.44,3.44,0,0,0,3.85-3.1A10.64,10.64,0,0,0,135.67,31.24Z"/><path class="cls-3" d="M132,36.91a6.61,6.61,0,0,1-2.54-.52,4.65,4.65,0,0,1-2.69-2.89,6.88,6.88,0,0,1-.24-3.59c.51-2.67,2.44-4.15,5.42-4.15H132a5.36,5.36,0,0,1,4.14,1.65A5.8,5.8,0,0,1,137.39,32a5.39,5.39,0,0,1-2.6,4.14A5.49,5.49,0,0,1,132,36.91Zm0-10.68c-2.78,0-4.5,1.3-5,3.77a6.42,6.42,0,0,0,.22,3.35A4.21,4.21,0,0,0,129.65,36a5.48,5.48,0,0,0,4.91-.18,4.93,4.93,0,0,0,2.38-3.8,5.33,5.33,0,0,0-1.11-4.26,4.91,4.91,0,0,0-3.8-1.49H132Zm0,9.41h-.25A3.8,3.8,0,0,1,128,31.75a6.29,6.29,0,0,1,.07-1.49,3.95,3.95,0,0,1,7.84.54c0,.07,0,.14,0,.22h0v.25c0,.11,0,.22,0,.33a5.45,5.45,0,0,1-.06.76A3.64,3.64,0,0,1,132,35.64Zm-.13-8.23a3.18,3.18,0,0,0-3.37,2.93,5.92,5.92,0,0,0-.07,1.38,3.36,3.36,0,0,0,3.33,3.46H132a3.18,3.18,0,0,0,3.38-2.91,5.45,5.45,0,0,0,.06-.7v-.47c0-.09,0-.19,0-.28a3.26,3.26,0,0,0-3.21-3.4Z"/><path class="cls-3" d="M88.57,32.09c0,2.63,0,5.2,0,7.77a.72.72,0,0,1-1.12.69.52.52,0,0,1-.2-.4c0-3.14,0-6.27,0-9.41,0-.36.18-.44.51-.47a1.63,1.63,0,0,1,1.77.87c1.6,2.58,3.29,5.1,5,7.76,0-.4,0-.68,0-1,0-2.36,0-4.73,0-7.09,0-.49.21-.59.66-.59s.71.07.7.61c0,3.05,0,6.11,0,9.16,0,.45-.17.54-.6.58a1.65,1.65,0,0,1-1.76-.89c-1.48-2.41-3-4.76-4.59-7.13Z"/><path class="cls-3" d="M87.88,40.9a1.22,1.22,0,0,1-.54-.14.74.74,0,0,1-.32-.61q0-2.69,0-5.38,0-2,0-4c0-.63.49-.68.72-.7a1.86,1.86,0,0,1,2,1c1.15,1.86,2.33,3.65,3.57,5.55l1,1.55V36.06c0-1.73,0-3.46,0-5.2a.85.85,0,0,1,.2-.62.93.93,0,0,1,.69-.2,1,1,0,0,1,.73.21.84.84,0,0,1,.2.63c0,3.33,0,6.64,0,9.16,0,.68-.42.78-.82.81a1.85,1.85,0,0,1-2-1c-1.07-1.75-2.22-3.5-3.32-5.19L88.8,32.85v7a1,1,0,0,1-.45.91A.88.88,0,0,1,87.88,40.9ZM88,30.48l-.28,0c-.31,0-.31.07-.31.24q0,2,0,4,0,2.69,0,5.38a.36.36,0,0,0,.08.2.57.57,0,0,0,.55,0,.58.58,0,0,0,.23-.52V31.34l.55.81.22.32,1.26,1.93c1.11,1.7,2.25,3.45,3.33,5.2a1.42,1.42,0,0,0,1.54.78c.37,0,.39-.07.39-.34,0-2.52,0-5.83,0-9.16a.46.46,0,0,0-.06-.3.72.72,0,0,0-.43-.07.54.54,0,0,0-.34.07.43.43,0,0,0-.06.29c0,1.73,0,3.47,0,5.2v3.62L94.33,39l-1.44-2.2c-1.25-1.9-2.43-3.7-3.58-5.56A1.36,1.36,0,0,0,88,30.48Z"/><path class="cls-3" d="M53.77,38.12c0,2.63,0,5.2,0,7.77a.73.73,0,0,1-1.13.69.53.53,0,0,1-.19-.41c0-3.14,0-6.27,0-9.41,0-.15.26-.4.43-.44a1.57,1.57,0,0,1,1.83.84c1.48,2.43,3.08,4.79,4.63,7.18l.37.55c0-.46,0-.81,0-1.17,0-2.26,0-4.52,0-6.78,0-.49.15-.66.66-.65s.7.08.7.62q0,4.55,0,9.1c0,.51-.2.59-.67.64a1.6,1.6,0,0,1-1.69-.9c-1.49-2.4-3.05-4.76-4.59-7.13Z"/><path class="cls-3" d="M53.08,46.93a1.18,1.18,0,0,1-.54-.14.74.74,0,0,1-.32-.61c0-3,0-6.2,0-9.41a.85.85,0,0,1,.62-.66,1.79,1.79,0,0,1,2.07,1c1.07,1.75,2.21,3.49,3.32,5.17l1.25,1.91V41.81c0-1.62,0-3.25,0-4.87a.93.93,0,0,1,.21-.69.91.91,0,0,1,.69-.2c.45,0,.93.09.92.85,0,2.92,0,5.9,0,9.09,0,.73-.42.83-.89.87a1.81,1.81,0,0,1-1.91-1c-1.09-1.76-2.25-3.53-3.36-5.24L54,38.87v1.22c0,2,0,3.88,0,5.8a1,1,0,0,1-.45.91A.9.9,0,0,1,53.08,46.93Zm.26-10.42a2.14,2.14,0,0,0-.4,0,.5.5,0,0,0-.25.23c0,3.2,0,6.41,0,9.39a.38.38,0,0,0,.07.21.5.5,0,0,0,.78-.49c0-1.93,0-3.85,0-5.8V37.37l.55.79.22.32,1.23,1.88c1.12,1.71,2.27,3.48,3.37,5.25a1.37,1.37,0,0,0,1.47.79c.43,0,.47-.07.46-.4,0-3.2,0-6.18,0-9.1,0-.33,0-.37-.47-.38a.58.58,0,0,0-.35.07.53.53,0,0,0-.07.35c0,1.62,0,3.25,0,4.87v3.83l-.55-.81-.24-.36-1.31-2c-1.11-1.69-2.26-3.43-3.33-5.19A1.32,1.32,0,0,0,53.34,36.51Z"/><path class="cls-3" d="M106.42,60.71c0,2.63,0,5.2,0,7.77a.73.73,0,0,1-1.13.69.53.53,0,0,1-.19-.41c0-3.14,0-6.27,0-9.41,0-.15.26-.4.43-.44a1.57,1.57,0,0,1,1.83.84c1.48,2.43,3.08,4.79,4.63,7.18l.37.55c0-.46,0-.81,0-1.17,0-2.26,0-4.52,0-6.78,0-.49.15-.66.66-.65s.7.08.7.62q0,4.55,0,9.1c0,.51-.2.59-.67.64a1.6,1.6,0,0,1-1.69-.9c-1.49-2.4-3.05-4.76-4.59-7.13Z"/><path class="cls-3" d="M105.72,69.52a1.18,1.18,0,0,1-.54-.14.75.75,0,0,1-.32-.61c0-2.78,0-6.07,0-9.42a.85.85,0,0,1,.62-.66,1.79,1.79,0,0,1,2.07,1c1.07,1.76,2.23,3.51,3.34,5.2l1.23,1.88v-2c0-1.71,0-3.43,0-5.14a.92.92,0,0,1,.21-.69.91.91,0,0,1,.69-.2c.45,0,.93.09.92.85,0,3,0,6.08,0,9.09,0,.73-.42.83-.89.87a1.81,1.81,0,0,1-1.91-1c-1.09-1.75-2.24-3.52-3.35-5.22l-1.15-1.77v7a1,1,0,0,1-.46.91A.9.9,0,0,1,105.72,69.52ZM106,59.1a2.14,2.14,0,0,0-.4,0,.51.51,0,0,0-.25.23c0,3.33,0,6.62,0,9.4a.39.39,0,0,0,.08.21.56.56,0,0,0,.55,0,.57.57,0,0,0,.23-.51V60l.54.78.23.33,1.24,1.9c1.11,1.7,2.26,3.47,3.35,5.23A1.36,1.36,0,0,0,113,69c.43,0,.47-.07.46-.4,0-3,0-6.08,0-9.1,0-.33,0-.37-.47-.38-.2,0-.3,0-.35.07a.52.52,0,0,0-.07.35c0,1.71,0,3.43,0,5.14v3.57l-.57-.85-.22-.33-1.29-2c-1.12-1.7-2.27-3.46-3.35-5.22A1.33,1.33,0,0,0,106,59.1Z"/><path class="cls-3" d="M59.72,69.47c0-2.69,0-5.29,0-7.88,0-.49.1-.71.67-.71s.69.19.69.69q0,4.49,0,9c0,.51-.14.67-.68.69a1.6,1.6,0,0,1-1.65-.85c-1.49-2.42-3.07-4.79-4.62-7.18-.1-.16-.21-.3-.34-.48,0,1.2,0,2.35,0,3.51,0,1.46,0,2.93,0,4.39,0,.54-.25.6-.7.61s-.65-.11-.65-.6q0-4.58,0-9.16c0-.43.15-.56.6-.59a1.58,1.58,0,0,1,1.67.83c1.51,2.44,3.1,4.82,4.67,7.23Z"/><path class="cls-3" d="M60.24,71.48a1.8,1.8,0,0,1-1.7-1c-1.09-1.76-2.24-3.53-3.36-5.24L54,63.47v4c0,1,0,2.09,0,3.13a.83.83,0,0,1-.19.63,1,1,0,0,1-.74.22.91.91,0,0,1-.68-.2.87.87,0,0,1-.2-.63c0-2.71,0-5.62,0-9.16,0-.55.23-.78.81-.82a1.8,1.8,0,0,1,1.88.94c1.1,1.78,2.27,3.56,3.4,5.29l1.2,1.83V67.45c0-2,0-3.92,0-5.86a1,1,0,0,1,.21-.73.91.91,0,0,1,.68-.21h0a.79.79,0,0,1,.92.93c0,3.09,0,6.1,0,9,0,.64-.24.9-.91.93ZM53.54,62l.53.74.24.34L55.57,65c1.12,1.71,2.27,3.48,3.36,5.25a1.37,1.37,0,0,0,1.44.74c.43,0,.47-.09.46-.46,0-2.87,0-5.89,0-9a.6.6,0,0,0-.07-.37.59.59,0,0,0-.38-.09h0a.55.55,0,0,0-.35.08c-.05.05-.08.18-.07.4,0,1.94,0,3.88,0,5.86v2.76l-.57-.83-.22-.32L57.9,67.14c-1.13-1.73-2.3-3.51-3.4-5.3A1.37,1.37,0,0,0,53,61.12c-.35,0-.38.07-.38.36,0,3.54,0,6.46,0,9.16a.46.46,0,0,0,.06.3.54.54,0,0,0,.35.06.73.73,0,0,0,.42-.08.45.45,0,0,0,.06-.29c0-1,0-2.11,0-3.14Z"/><path class="cls-3" d="M106.77,12.47H105.4V7.79H99.74v4.66h-1.5V2.24a1,1,0,0,1,.22-.08c1.27-.09,1.27-.09,1.27,1.14,0,.86,0,1.72,0,2.57,0,.42.1.61.57.6,1.51,0,3,0,4.53,0,.42,0,.56-.15.55-.56,0-1.11,0-2.22,0-3.32,0-.51.33-.48.65-.44s.86-.26.86.41q0,4.86,0,9.72S106.81,12.37,106.77,12.47Z"/><path class="cls-3" d="M106.92,12.7h-1.76V8H100v4.66H98V2.08L98.23,2a.6.6,0,0,1,.2-.06c.71-.05,1.06-.08,1.29.14s.23.55.23,1.23V4c0,.61,0,1.22,0,1.84a.47.47,0,0,0,.05.3.39.39,0,0,0,.28.06c1.36,0,2.85,0,4.53,0a.52.52,0,0,0,.27-.05s.05-.08,0-.27c0-.56,0-1.11,0-1.67s0-1.11,0-1.66a.68.68,0,0,1,.19-.55.86.86,0,0,1,.71-.12.94.94,0,0,0,.22,0,.78.78,0,0,1,.65.11.68.68,0,0,1,.19.54q0,4.05,0,8.1v1.62a.39.39,0,0,1-.05.18Zm-1.29-.46h1V10.67q0-4.05,0-8.1c0-.16,0-.19,0-.19a.65.65,0,0,0-.28,0,1.27,1.27,0,0,1-.34,0c-.09,0-.29,0-.35,0a.29.29,0,0,0,0,.19c0,.56,0,1.11,0,1.67s0,1.11,0,1.66a.82.82,0,0,1-.18.6.84.84,0,0,1-.6.19c-1.69,0-3.16,0-4.52,0a.81.81,0,0,1-.62-.2.86.86,0,0,1-.19-.64c0-.61,0-1.21,0-1.82V3.3a2.14,2.14,0,0,0-.08-.89,2.29,2.29,0,0,0-.94,0h0v9.82h1V7.55h6.12Z"/><path class="cls-3" d="M147.41,76.53h-5.64v4.7h-1.49V71c1.46-.24,1.47-.23,1.47,1.11,0,.86,0,1.72,0,2.57,0,.39.1.57.54.57,1.53,0,3.06,0,4.59,0,.39,0,.52-.15.52-.52,0-1.11,0-2.22,0-3.33,0-.41.2-.54.55-.47s.94-.3.95.38c0,3.28,0,6.56,0,9.9h-1.49Z"/><path class="cls-3" d="M142,81.46h-2V70.8l.2,0c.81-.13,1.22-.2,1.49,0s.26.61.26,1.31v.76c0,.61,0,1.22,0,1.82,0,.18,0,.25,0,.28s.08.05.24.05h0c1.53,0,3.06,0,4.6,0h0c.16,0,.21,0,.23,0s0-.07,0-.24c0-.56,0-1.11,0-1.67s0-1.11,0-1.66a.71.71,0,0,1,.22-.59.68.68,0,0,1,.61-.1,1,1,0,0,0,.27,0,.82.82,0,0,1,.67.1.65.65,0,0,1,.2.52c0,2.39,0,4.79,0,7.2v2.94h-2V76.76H142ZM140.52,81h1V76.3h6.1V81h1V78.51c0-2.41,0-4.81,0-7.2,0-.14,0-.17,0-.17s-.21,0-.3,0a1.15,1.15,0,0,1-.43,0,.32.32,0,0,0-.22,0s-.05.06-.05.23c0,.56,0,1.11,0,1.67s0,1.11,0,1.66a.78.78,0,0,1-.18.57.69.69,0,0,1-.57.19c-1.53,0-3.06,0-4.59,0h0a.78.78,0,0,1-.57-.19.82.82,0,0,1-.18-.61c0-.6,0-1.2,0-1.81v-.76a2.21,2.21,0,0,0-.09-1,2,2,0,0,0-.92,0Z"/><path class="cls-3" d="M29.42,96.56H28V91.85H22.39v4.68h-1.5V86.33a1,1,0,0,1,.21-.08c1.27-.09,1.27-.09,1.27,1.14,0,.86,0,1.72,0,2.57,0,.41.1.61.57.6,1.51,0,3,0,4.53,0,.42,0,.56-.15.55-.55,0-1.11,0-2.22,0-3.32,0-.5.33-.48.64-.44s.86-.26.86.41q0,4.86,0,9.72A.78.78,0,0,1,29.42,96.56Z"/><path class="cls-3" d="M29.58,96.79H27.8V92.08H22.63v4.68h-2V86.17l.23-.09a.58.58,0,0,1,.2-.06c.7-.05,1.06-.08,1.29.14s.23.55.23,1.23v.75c0,.61,0,1.22,0,1.83a.49.49,0,0,0,.05.31.42.42,0,0,0,.26.06h0c1.36,0,2.85,0,4.53,0,.19,0,.25,0,.27-.05s.05-.08,0-.26c0-.56,0-1.11,0-1.67s0-1.11,0-1.66a.68.68,0,0,1,.2-.55.86.86,0,0,1,.71-.12h.23a.79.79,0,0,1,.65.11.68.68,0,0,1,.19.54q0,4.17,0,8.33v1.39a.42.42,0,0,1-.05.19Zm-1.32-.46h1V95q0-4.17,0-8.33a.32.32,0,0,0,0-.19s-.19,0-.28,0a1.25,1.25,0,0,1-.34,0c-.08,0-.29,0-.34,0a.29.29,0,0,0,0,.2c0,.56,0,1.11,0,1.67s0,1.11,0,1.66a.82.82,0,0,1-.18.6.8.8,0,0,1-.6.19c-1.68,0-3.16,0-4.52,0a.83.83,0,0,1-.62-.2.87.87,0,0,1-.19-.65c0-.6,0-1.21,0-1.81v-.75a2.13,2.13,0,0,0-.08-.89,2.26,2.26,0,0,0-.94,0V96.3h1V91.62h6.1Z"/><path class="cls-3" d="M95.22,9.28l1.19.58a4.39,4.39,0,0,1-3.14,2.6c-3.34.74-6.56-.8-6.65-4.92a7.75,7.75,0,0,1,.26-2.16A4.41,4.41,0,0,1,91.26,2a10.52,10.52,0,0,1,2.84.38A3.44,3.44,0,0,1,96.32,4.6,10.37,10.37,0,0,1,95.15,5c-.12,0-.34-.12-.42-.25a3.52,3.52,0,0,0-4-1.38,3.21,3.21,0,0,0-2.52,2.92,8.23,8.23,0,0,0,.24,2.83,3.15,3.15,0,0,0,3,2.29,3.44,3.44,0,0,0,3.28-1.47Z"/><path class="cls-3" d="M91.68,12.87a5.48,5.48,0,0,1-3.41-1.08,5.31,5.31,0,0,1-1.88-4.24,8,8,0,0,1,.26-2.23,4.66,4.66,0,0,1,4.61-3.5h0a10.79,10.79,0,0,1,2.88.39,3.67,3.67,0,0,1,2.37,2.31l.1.23-.24.08L96,4.93a6.12,6.12,0,0,1-.85.26.77.77,0,0,1-.66-.34,3.28,3.28,0,0,0-3.72-1.28,3,3,0,0,0-2.34,2.71A7.94,7.94,0,0,0,88.72,9a2.94,2.94,0,0,0,2.79,2.12,3.2,3.2,0,0,0,3.08-1.38l.3-.42L95.14,9l1.57.77-.1.21a4.61,4.61,0,0,1-3.3,2.72A7.57,7.57,0,0,1,91.68,12.87Zm-.4-10.59h0A4.16,4.16,0,0,0,87.1,5.43a7.52,7.52,0,0,0-.25,2.1,4.86,4.86,0,0,0,1.71,3.89,5.56,5.56,0,0,0,4.66.81A4.13,4.13,0,0,0,96.1,10l-.8-.39,0,0L95,10a3.66,3.66,0,0,1-3.49,1.57,3.39,3.39,0,0,1-3.2-2.45A8.43,8.43,0,0,1,88,6.24a3.44,3.44,0,0,1,2.7-3.13,3.75,3.75,0,0,1,4.2,1.47.47.47,0,0,0,.21.15,6.44,6.44,0,0,0,.77-.24l.11,0a3.08,3.08,0,0,0-2-1.81A10.28,10.28,0,0,0,91.28,2.27Z"/><path class="cls-3" d="M138.35,73.38a6.3,6.3,0,0,1-1,.33.69.69,0,0,1-.55-.21,3.58,3.58,0,0,0-4-1.37,3.23,3.23,0,0,0-2.47,3,8.31,8.31,0,0,0,.25,2.77,3.16,3.16,0,0,0,3,2.29,3.44,3.44,0,0,0,3.29-1.46l.44-.63,1.32.62a11.56,11.56,0,0,1-1.44,1.64,5.44,5.44,0,0,1-5.61.65,4.53,4.53,0,0,1-2.85-4.27,8,8,0,0,1,.16-2.3,4.46,4.46,0,0,1,4.07-3.56,6.22,6.22,0,0,1,3.53.47A3.75,3.75,0,0,1,138.35,73.38Z"/><path class="cls-3" d="M133.9,81.68a6.78,6.78,0,0,1-2.47-.5,4.74,4.74,0,0,1-3-4.47,8.28,8.28,0,0,1,.17-2.37,4.67,4.67,0,0,1,4.27-3.74,6.35,6.35,0,0,1,3.66.49,4,4,0,0,1,2,2.2l.09.23-.23.08-.32.12a3.6,3.6,0,0,1-.74.22.92.92,0,0,1-.77-.3,3.33,3.33,0,0,0-3.78-1.28,3,3,0,0,0-2.3,2.75,8,8,0,0,0,.24,2.7,2.92,2.92,0,0,0,2.79,2.13,3.21,3.21,0,0,0,3.08-1.37l.26-.37.29-.41,1.77.83-.2.23c-.16.19-.31.38-.46.57a6,6,0,0,1-1,1.1A5.39,5.39,0,0,1,133.9,81.68ZM134,71a9.09,9.09,0,0,0-1,.06,4.22,4.22,0,0,0-3.87,3.38,7.77,7.77,0,0,0-.16,2.23,4.26,4.26,0,0,0,2.71,4.08,5.19,5.19,0,0,0,5.38-.61,5.67,5.67,0,0,0,.93-1l.28-.35-.87-.41-.06.09-.27.38a3.66,3.66,0,0,1-3.5,1.55,3.39,3.39,0,0,1-3.19-2.46,8.5,8.5,0,0,1-.26-2.85,3.46,3.46,0,0,1,2.65-3.17A3.81,3.81,0,0,1,137,73.36a.53.53,0,0,0,.33.12,3.24,3.24,0,0,0,.65-.2l.1,0a3.47,3.47,0,0,0-1.71-1.74A5.24,5.24,0,0,0,134,71Z"/><path class="cls-3" d="M47.94,88.67c-.26.1-.44.16-.61.24-.51.24-.82.16-1.18-.36-1.35-1.94-4.9-1.57-5.92.61a5.14,5.14,0,0,0-.09,4.15,3.29,3.29,0,0,0,3,2.16A3.44,3.44,0,0,0,46.37,94c.15-.2.29-.41.47-.67l1.2.57a4.43,4.43,0,0,1-3.16,2.6c-3.36.74-6.55-.82-6.64-4.93a7.87,7.87,0,0,1,.16-1.86A4.61,4.61,0,0,1,43,86.1a6.34,6.34,0,0,1,3,.49A3.85,3.85,0,0,1,47.94,88.67Z"/><path class="cls-3" d="M43.31,97a5.48,5.48,0,0,1-3.42-1.09A5.33,5.33,0,0,1,38,91.62a8.13,8.13,0,0,1,.17-1.92A4.82,4.82,0,0,1,43,85.87a6.57,6.57,0,0,1,3.06.51,4.1,4.1,0,0,1,2.08,2.2l.1.22-.46.18-.36.14A1,1,0,0,1,46,88.68a3,3,0,0,0-2.79-1.15,3.25,3.25,0,0,0-2.73,1.73,4.88,4.88,0,0,0-.08,4,3.05,3.05,0,0,0,2.85,2,3.23,3.23,0,0,0,3-1.34l.29-.41.29-.41,1.58.76-.1.21a4.66,4.66,0,0,1-3.32,2.72A7.58,7.58,0,0,1,43.31,97Zm.07-10.62H43a4.38,4.38,0,0,0-4.4,3.46,7.6,7.6,0,0,0-.16,1.81,4.88,4.88,0,0,0,1.71,3.89,5.58,5.58,0,0,0,4.65.82,4.17,4.17,0,0,0,2.9-2.26l-.81-.39-.06.09-.3.42a3.63,3.63,0,0,1-3.38,1.53,3.52,3.52,0,0,1-3.25-2.31,5.33,5.33,0,0,1,.1-4.33,3.71,3.71,0,0,1,3.11-2,3.46,3.46,0,0,1,3.21,1.35c.31.44.5.46.89.28l.39-.16h0a3.55,3.55,0,0,0-1.75-1.74A5.74,5.74,0,0,0,43.38,86.33Z"/><path class="cls-3" d="M50.88,62.45,50.1,63c-.13-.14-.25-.26-.35-.39q-3.3-4.49-6.61-9a.58.58,0,0,1,0-.82c2.25-3,4.48-6,6.72-9.07a3.49,3.49,0,0,1,.25-.27l.8.53c-.16.24-.28.44-.43.64-2,2.69-3.94,5.39-5.93,8.07a.69.69,0,0,0,0,1c2,2.67,3.92,5.35,5.87,8C50.55,62,50.7,62.19,50.88,62.45Z"/><path class="cls-3" d="M50.06,63.33l-.26-.28a2.83,2.83,0,0,1-.25-.28l-2.35-3.2L43,53.79a.8.8,0,0,1,0-1.1q2.37-3.17,4.71-6.35l2-2.71a1.62,1.62,0,0,1,.17-.19l.24-.25L51.2,44l-.28.43c-.1.15-.18.28-.28.42l-1.25,1.71Q47,49.69,44.7,52.86a.47.47,0,0,0,0,.71q2.32,3.14,4.62,6.31l1.26,1.72.32.46.31.45Zm0-19.54-.1.11-2,2.71Q45.66,49.79,43.29,53c-.16.21-.15.29,0,.55l4.26,5.79,2.35,3.2a2.22,2.22,0,0,0,.19.22l.44-.31,0-.07-.31-.45-1.26-1.72q-2.3-3.16-4.61-6.31a.92.92,0,0,1,0-1.26q2.35-3.17,4.68-6.35l1.25-1.71c.09-.12.18-.25.27-.39l0,0Z"/><path class="cls-3" d="M110.41,11.44v-.82c.44-.06.86-.09,1.27-.18a1.19,1.19,0,0,0,1.06-1.29,1.21,1.21,0,0,0-1.11-1.25c-.68-.14-1.49.08-1.69.61s-.66.77-1.35.52a1.81,1.81,0,0,1,.94-1.61A3.29,3.29,0,0,1,113,7.34a2,2,0,0,1,0,3.43l-.4.22c1.22.48,1.72,1.12,1.64,2.09a2.15,2.15,0,0,1-2,2.1,6.21,6.21,0,0,1-2-.09,2,2,0,0,1-1.52-1.32c-.09-.26-.41-.63.1-.77s.82-.22,1,.39.9,1,1.84.93a1.36,1.36,0,0,0,1.36-1,1.26,1.26,0,0,0-1-1.65C111.41,11.53,110.94,11.51,110.41,11.44Z"/><path class="cls-3" d="M111.44,15.46a7.09,7.09,0,0,1-1.39-.14,2.19,2.19,0,0,1-1.69-1.48,1.06,1.06,0,0,0-.06-.14.75.75,0,0,1-.09-.63.59.59,0,0,1,.41-.3c.36-.1,1-.28,1.3.55.19.58.74.84,1.61.77a1.14,1.14,0,0,0,1.15-.87,1.09,1.09,0,0,0-.09-.86,1.16,1.16,0,0,0-.78-.5,8.9,8.9,0,0,0-.94-.13l-.5-.06-.2,0V10.42l.2,0,.42-.05c.29,0,.57-.07.84-.13a1,1,0,0,0,.88-1.06,1,1,0,0,0-.93-1c-.56-.11-1.27,0-1.43.47-.37,1-1.08.86-1.64.65l-.15-.06V9a2,2,0,0,1,1.05-1.81,3.51,3.51,0,0,1,3.67-.08A2.12,2.12,0,0,1,114.18,9,2.24,2.24,0,0,1,113,11a2.06,2.06,0,0,1,1.35,2.13,2.38,2.38,0,0,1-2.22,2.31A5.27,5.27,0,0,1,111.44,15.46Zm-2.3-2.32a1.65,1.65,0,0,0-.4.08.26.26,0,0,0-.11,0,.88.88,0,0,0,.09.23c0,.07.06.13.08.19a1.71,1.71,0,0,0,1.34,1.17,5.92,5.92,0,0,0,2,.09,1.91,1.91,0,0,0,1.82-1.89c.07-.86-.37-1.41-1.49-1.85L112,11l.84-.46a1.75,1.75,0,0,0,.9-1.56,1.66,1.66,0,0,0-.86-1.47,3.07,3.07,0,0,0-3.21.07,1.58,1.58,0,0,0-.82,1.25c.5.15.71,0,.89-.44a1.71,1.71,0,0,1,2-.76A1.44,1.44,0,0,1,113,9.14a1.42,1.42,0,0,1-1.24,1.52c-.29.06-.59.1-.88.14l-.21,0v.41l.29,0a9.32,9.32,0,0,1,1,.14,1.6,1.6,0,0,1,1.08.71,1.54,1.54,0,0,1,.14,1.23,1.6,1.6,0,0,1-1.57,1.21c-1.39.12-1.9-.53-2.08-1.09C109.41,13.23,109.32,13.14,109.15,13.14Z"/><path class="cls-3" d="M154.57,79.89c1.33.55,1.78,1.23,1.59,2.33a2.23,2.23,0,0,1-2.35,1.91,6,6,0,0,1-2-.26A2,2,0,0,1,150.47,82c.77-.33,1-.27,1.3.38a1.73,1.73,0,0,0,1.87.81A1.37,1.37,0,0,0,155,82.12a1.26,1.26,0,0,0-1-1.59c-.46-.1-.93-.12-1.45-.19v-.83c.34,0,.7-.06,1.05-.13.83-.16,1.23-.55,1.26-1.2a1.19,1.19,0,0,0-.92-1.33c-.79-.23-1.7,0-1.92.61s-.73.64-1.28.5a2,2,0,0,1,1.41-1.9,3.63,3.63,0,0,1,2.41-.06,2,2,0,0,1,1.5,1.78,1.88,1.88,0,0,1-1.17,2Z"/><path class="cls-3" d="M153.66,84.37a6.13,6.13,0,0,1-1.88-.27A2.18,2.18,0,0,1,150.24,82v-.16l.15-.07c.87-.38,1.22-.27,1.6.49a1.51,1.51,0,0,0,1.64.69,1.14,1.14,0,0,0,1.12-.91,1.06,1.06,0,0,0-.11-.83,1.15,1.15,0,0,0-.76-.49,8.86,8.86,0,0,0-.94-.13l-.49-.05-.2,0V79.3l.21,0,.33,0c.23,0,.47,0,.71-.09.91-.17,1.05-.61,1.07-1a1,1,0,0,0-.75-1.1c-.72-.21-1.47,0-1.63.46-.34,1-1,.79-1.56.65l-.17,0V78A2.2,2.2,0,0,1,152,75.84a3.83,3.83,0,0,1,2.55-.06,2.23,2.23,0,0,1,1.66,2,2.07,2.07,0,0,1-1.12,2.12,2,2,0,0,1,1.3,2.39,2.45,2.45,0,0,1-2.57,2.11Zm-2.94-2.2a1.7,1.7,0,0,0,1.2,1.48,5.93,5.93,0,0,0,1.88.25,2,2,0,0,0,2.12-1.72c.18-1-.23-1.58-1.45-2.08l-.43-.18.47-.27.18-.1a1.64,1.64,0,0,0,1-1.75,1.74,1.74,0,0,0-1.33-1.58,3.4,3.4,0,0,0-2.26.05,1.75,1.75,0,0,0-1.25,1.5c.47.11.66.08.83-.4a1.75,1.75,0,0,1,2.2-.75A1.41,1.41,0,0,1,155,78.19c0,.77-.52,1.25-1.44,1.42-.25,0-.5.07-.75.1h-.11v.42l.27,0a9.18,9.18,0,0,1,1,.14A1.6,1.6,0,0,1,155,81a1.53,1.53,0,0,1,.17,1.18,1.6,1.6,0,0,1-1.52,1.27,2,2,0,0,1-2.11-.94C151.33,82,151.26,82,150.72,82.17Z"/><path class="cls-3" d="M31.66,94A2,2,0,0,1,33,92.14a3.65,3.65,0,0,1,2.47-.08A2,2,0,0,1,37,93.9a1.84,1.84,0,0,1-1.16,1.92l-.23.13c1.38.59,1.8,1.27,1.56,2.45a2.25,2.25,0,0,1-2.45,1.8,6.14,6.14,0,0,1-2.11-.4A1.85,1.85,0,0,1,31.48,98c.62-.16,1.09-.28,1.35.49s1,.89,1.88.76A1.35,1.35,0,0,0,36,98.2a1.27,1.27,0,0,0-1-1.6c-.46-.1-.93-.12-1.45-.19v-.83c.43-.06.84-.09,1.23-.17a1.2,1.2,0,0,0,1.07-1.34,1.22,1.22,0,0,0-1.16-1.22,1.69,1.69,0,0,0-1.7.66C32.5,94.19,32.5,94.19,31.66,94Z"/><path class="cls-3" d="M34.76,100.43h-.07a6.33,6.33,0,0,1-2.19-.42,2,2,0,0,1-1.24-2v-.19l.18,0c.6-.16,1.3-.33,1.63.64.16.48.82.73,1.63.61a1.12,1.12,0,0,0,1.07-.9,1.09,1.09,0,0,0-.11-.84,1.14,1.14,0,0,0-.75-.48,8.73,8.73,0,0,0-.94-.13l-.49-.05-.2,0V95.38l.2,0,.41,0a8,8,0,0,0,.8-.12,1,1,0,0,0,.89-1.1c0-.57-.34-.89-1-1a1.47,1.47,0,0,0-1.46.55c-.47.77-.57.82-1.51.6l-.18,0V94a2.17,2.17,0,0,1,1.48-2.08,3.87,3.87,0,0,1,2.62-.09,2.22,2.22,0,0,1,1.67,2,2.06,2.06,0,0,1-1.11,2,2.06,2.06,0,0,1,1.27,2.51A2.48,2.48,0,0,1,34.76,100.43Zm-3-2.24a1.57,1.57,0,0,0,.94,1.39,6,6,0,0,0,2,.38h.06a2,2,0,0,0,2.15-1.61c.22-1.08-.15-1.65-1.42-2.2L35.05,96l.49-.27.17-.09a1.61,1.61,0,0,0,1-1.7,1.76,1.76,0,0,0-1.34-1.63,3.41,3.41,0,0,0-2.31.08,1.75,1.75,0,0,0-1.18,1.46c.49.11.52.06.82-.43a1.91,1.91,0,0,1,1.94-.76A1.45,1.45,0,0,1,36,94.06a1.43,1.43,0,0,1-1.25,1.58,8.32,8.32,0,0,1-.85.13l-.19,0v.42l.28,0a8.74,8.74,0,0,1,1,.14,1.59,1.59,0,0,1,1,.68,1.55,1.55,0,0,1,.18,1.2,1.58,1.58,0,0,1-1.46,1.26c-1,.15-1.9-.22-2.13-.92C32.44,98.1,32.25,98.07,31.73,98.2Z"/><path class="cls-3" d="M77.63,53.42c0,2.36,0,4.72,0,7.08,0,.4,0,.68-.56.67s-.54-.28-.54-.65q0-7.14,0-14.28c0-.38,0-.63.55-.64s.56.29.56.68C77.63,48.66,77.63,51,77.63,53.42Z"/><path class="cls-3" d="M77.1,61.41h0c-.77,0-.77-.58-.77-.88q0-7.14,0-14.28c0-.3,0-.86.77-.88a.77.77,0,0,1,.6.18,1,1,0,0,1,.19.73q0,2.68,0,5.36v3.56c0,1.77,0,3.54,0,5.31a1,1,0,0,1-.19.72A.79.79,0,0,1,77.1,61.41Zm0-15.58h0c-.3,0-.32.06-.32.41q0,7.14,0,14.28c0,.36,0,.41.31.42a.41.41,0,0,0,.27-.05c.06-.06.06-.25.06-.39q0-2.65,0-5.31V51.64q0-2.68,0-5.36c0-.17,0-.34-.05-.4A.37.37,0,0,0,77.12,45.83Z"/><path class="cls-3" d="M92.11,21.64q0,2.79,0,5.58c0,.37,0,.71-.55.69s-.52-.32-.52-.67q0-5.58,0-11.16c0-.4,0-.67.58-.67s.52.28.52.64c0,1.86,0,3.72,0,5.58Z"/><path class="cls-3" d="M91.6,28.15h0c-.74,0-.74-.55-.74-.87V24.77q0-4.34,0-8.68a.93.93,0,0,1,.2-.7.81.81,0,0,1,.61-.2h0c.76,0,.76.52.75.87q0,2.1,0,4.19v1.63h0V23q0,2.09,0,4.19a1,1,0,0,1-.19.74A.77.77,0,0,1,91.6,28.15Zm0-12.5a.44.44,0,0,0-.28.06.66.66,0,0,0-.06.37q0,4.34,0,8.68v2.48c0,.38,0,.43.29.44h0c.16,0,.22,0,.24-.05s0-.21,0-.36c0-1.45,0-2.84,0-4.24V20.24c0-1.4,0-2.79,0-4.19,0-.38,0-.41-.29-.41Z"/><path class="cls-3" d="M50.91,73.38l-7.17,9.83-.91-.59L50,72.8Z"/><path class="cls-3" d="M43.8,83.53l-1.29-.84L50,72.49l1.25.84Zm-.63-1,.52.34,6.9-9.46-.48-.32Z"/><path class="cls-3" d="M126.59,73.78,124.87,73l-8.52-4.17c-.79-.39-.8-.43-.16-1.23l10.9,5.3Z"/><path class="cls-3" d="M126.69,74.08l-.79-.38-1.13-.54L116.24,69c-.39-.19-.67-.33-.73-.6s.15-.55.49-1l.11-.15,11.28,5.49Zm-10.44-6.24a1.59,1.59,0,0,0-.29.45,2.2,2.2,0,0,0,.49.28L125,72.75l1.12.53.4.19.27-.51Z"/><path class="cls-3" d="M51.57,48l-4.31,5.82-.87-.59c.15-.22.27-.41.4-.59L50.25,48C50.82,47.27,50.82,47.27,51.57,48Z"/><path class="cls-3" d="M47.32,54.14l-1.24-.84.26-.4c.09-.14.18-.27.27-.39l3.46-4.61c.32-.43.48-.65.75-.67s.47.18.92.61l.15.14Zm-.6-1,.49.33L51.26,48a1.58,1.58,0,0,0-.42-.34,2.26,2.26,0,0,0-.41.48L47,52.79l-.25.37Z"/></g><g class="cls-4"><rect class="cls-5" x="19.36" y="83.98" width="143" height="24"/></g><path class="cls-6" d="M6.69,83.77H2.36V67.17H6.69Z"/><path class="cls-6" d="M25.59,83.77H20.78l-5.16-9-1.26-2.52h0l.1,3.12v8.38H10.62V67.17h4.81l5.16,9,1.26,2.52h0l-.1-3.12V67.17h3.82Z"/><path class="cls-6" d="M33.84,70.51V74h6.84v3.35H33.84v6.39H29.51V67.17H42.42v3.35Z"/><path class="cls-6" d="M56.83,67.93a6.85,6.85,0,0,1,2.81,2.94,11.23,11.23,0,0,1,0,9.18A6.85,6.85,0,0,1,56.83,83a9.78,9.78,0,0,1-8.69,0,6.83,6.83,0,0,1-2.82-2.94,11.24,11.24,0,0,1,0-9.18,6.84,6.84,0,0,1,2.82-2.94,9.78,9.78,0,0,1,8.69,0Zm-7.11,3.69a6.48,6.48,0,0,0-1,3.85,6.48,6.48,0,0,0,1,3.85,3.21,3.21,0,0,0,2.77,1.31,3.18,3.18,0,0,0,2.75-1.31,6.54,6.54,0,0,0,.94-3.85,6.54,6.54,0,0,0-.94-3.85,3.18,3.18,0,0,0-2.75-1.31A3.22,3.22,0,0,0,49.72,71.62Z"/><path class="cls-6" d="M70.68,77.71H68.09v6.06H63.83V67.17h7.93a7,7,0,0,1,4.64,1.36A4.83,4.83,0,0,1,78,72.45a5.21,5.21,0,0,1-.83,3,4.84,4.84,0,0,1-2.42,1.79L79,83.77H74.23Zm-2.59-3.07H71a3.23,3.23,0,0,0,2-.5,1.94,1.94,0,0,0,.63-1.61A1.91,1.91,0,0,0,73,70.94a3.23,3.23,0,0,0-2-.5H68.09Z"/><path class="cls-6" d="M100.65,83.77H96.82V76.15L96.95,71h0l-4.1,12.73H89.3L85.2,71h-.05l.13,5.11v7.62H81.42V67.17h6.16l2.62,8.45.93,3.52h0l1-3.5,2.59-8.48h5.91Z"/><path class="cls-6" d="M114.08,80h-5.74l-1.16,3.75h-4.35l5.84-16.61h5.18l5.81,16.61h-4.45Zm-.91-2.94-1.21-4-.73-2.62h0l-.68,2.59-1.26,4Z"/><path class="cls-6" d="M133.58,70.51h-5.41V83.77h-4.33V70.51h-5.43V67.17h15.17Z"/><path class="cls-6" d="M140.63,83.77H136.3V67.17h4.33Z"/><path class="cls-6" d="M156.66,82.78A8.35,8.35,0,0,1,152,84a8.84,8.84,0,0,1-4.35-1,6.82,6.82,0,0,1-2.82-2.94,11.2,11.2,0,0,1,0-9.17,6.82,6.82,0,0,1,2.82-3,9.77,9.77,0,0,1,8.93.13,5.48,5.48,0,0,1,2.49,3.43L155.27,73a3.79,3.79,0,0,0-1.08-2.11,3.16,3.16,0,0,0-2.06-.6,3.37,3.37,0,0,0-2.84,1.32,6.25,6.25,0,0,0-1,3.84,6.44,6.44,0,0,0,1,3.84,3.27,3.27,0,0,0,2.81,1.32,3.37,3.37,0,0,0,2.19-.65,3.49,3.49,0,0,0,1.11-2.06L159.27,79A6.32,6.32,0,0,1,156.66,82.78Z"/><path class="cls-6" d="M172.47,67.62a8.84,8.84,0,0,1,3.11,2.29l-2.44,2.82a5.37,5.37,0,0,0-2-1.85,5.67,5.67,0,0,0-2.68-.59,3.73,3.73,0,0,0-2,.45,1.38,1.38,0,0,0-.7,1.21,1.16,1.16,0,0,0,.74,1,9.63,9.63,0,0,0,2.53.72A11.08,11.08,0,0,1,174,75.52a4.15,4.15,0,0,1,1.47,3.4,4.32,4.32,0,0,1-.91,2.74,5.6,5.6,0,0,1-2.5,1.76,10.16,10.16,0,0,1-3.61.6,12.71,12.71,0,0,1-4.58-.69,7.92,7.92,0,0,1-3-2.13l2.21-3a5.6,5.6,0,0,0,2.21,1.91,7.21,7.21,0,0,0,3,.55,4.33,4.33,0,0,0,2.08-.39,1.22,1.22,0,0,0,.69-1.12q0-.58-.74-.94a10.63,10.63,0,0,0-2.48-.69,18.5,18.5,0,0,1-3.54-1,5.18,5.18,0,0,1-2.17-1.6,4.12,4.12,0,0,1-.77-2.57,4.83,4.83,0,0,1,.84-2.79,5.5,5.5,0,0,1,2.47-1.93,9.74,9.74,0,0,1,3.84-.69A10.4,10.4,0,0,1,172.47,67.62Z"/><path class="cls-6" d="M48.74,105.43H44.91V97.81L45,92.7H45l-4.1,12.73h-3.5L33.29,92.7h0l.13,5.11v7.62H29.51V88.83h6.16l2.62,8.45.93,3.52h.05l1-3.5,2.59-8.48h5.91Z"/><path class="cls-6" d="M62.17,101.68H56.44l-1.16,3.75H50.92l5.84-16.61h5.18l5.81,16.61H63.3Zm-.91-2.94-1.21-4-.73-2.62h0l-.68,2.59-1.26,4Z"/><path class="cls-6" d="M81.67,92.17H76.26v13.26H71.93V92.17H66.5V88.83H81.67Z"/><path class="cls-6" d="M98.36,92.17H92.95v13.26H88.62V92.17H83.18V88.83H98.36Z"/><path class="cls-6" d="M114.33,102.08v3.35H101.07V88.83H114v3.35h-8.6v3.37h6.84v3.14H105.4v3.4Z"/><path class="cls-6" d="M124,99.37h-2.59v6.06H117.2V88.83h7.93a7,7,0,0,1,4.64,1.36,4.83,4.83,0,0,1,1.62,3.93,5.21,5.21,0,0,1-.83,3,4.84,4.84,0,0,1-2.42,1.79l4.23,6.52h-4.78Zm-2.59-3.07h2.94a3.23,3.23,0,0,0,2-.5,1.94,1.94,0,0,0,.63-1.61,1.91,1.91,0,0,0-.63-1.58,3.23,3.23,0,0,0-2-.5h-2.94Z"/><path class="cls-6" d="M145.32,89.28a8.84,8.84,0,0,1,3.11,2.29L146,94.39a5.37,5.37,0,0,0-2-1.85,5.67,5.67,0,0,0-2.68-.59,3.73,3.73,0,0,0-2,.45,1.38,1.38,0,0,0-.7,1.21,1.16,1.16,0,0,0,.74,1,9.63,9.63,0,0,0,2.53.72,11.08,11.08,0,0,1,4.92,1.84,4.15,4.15,0,0,1,1.47,3.4,4.32,4.32,0,0,1-.91,2.74,5.6,5.6,0,0,1-2.5,1.76,10.16,10.16,0,0,1-3.61.6,12.71,12.71,0,0,1-4.58-.69,7.92,7.92,0,0,1-3-2.13l2.21-3a5.6,5.6,0,0,0,2.21,1.91,7.21,7.21,0,0,0,3,.55,4.33,4.33,0,0,0,2.08-.39,1.22,1.22,0,0,0,.69-1.12q0-.58-.74-.94a10.63,10.63,0,0,0-2.48-.69,18.5,18.5,0,0,1-3.54-1,5.18,5.18,0,0,1-2.17-1.6,4.12,4.12,0,0,1-.77-2.57,4.83,4.83,0,0,1,.84-2.79,5.5,5.5,0,0,1,2.47-1.93,9.74,9.74,0,0,1,3.84-.69A10.4,10.4,0,0,1,145.32,89.28Z"/><path class="cls-3" d="M8.67,112.11a1.64,1.64,0,0,0-.3-.27,2.82,2.82,0,0,0-.45-.27,3,3,0,0,0-.57-.21,2.76,2.76,0,0,0-.67-.08,1.53,1.53,0,0,0-1,.3,1,1,0,0,0-.35.83.94.94,0,0,0,.11.48,1,1,0,0,0,.34.33,2.65,2.65,0,0,0,.56.24l.78.23c.35.11.68.22,1,.33a2.69,2.69,0,0,1,.75.43,1.76,1.76,0,0,1,.48.63,2.25,2.25,0,0,1,.17.94,2.47,2.47,0,0,1-.21,1.08,2,2,0,0,1-.58.72,2.37,2.37,0,0,1-.84.41,3.81,3.81,0,0,1-1,.13,4.66,4.66,0,0,1-1.6-.28,4.39,4.39,0,0,1-1.39-.82l.53-1.09a2.6,2.6,0,0,0,.38.33,3.23,3.23,0,0,0,.58.34,4.58,4.58,0,0,0,.73.26,3.12,3.12,0,0,0,.82.11,1.67,1.67,0,0,0,1-.27.91.91,0,0,0,.36-.78.93.93,0,0,0-.13-.51,1.17,1.17,0,0,0-.39-.36,3,3,0,0,0-.62-.27l-.84-.26a7.94,7.94,0,0,1-.94-.34,2.3,2.3,0,0,1-.67-.43,1.69,1.69,0,0,1-.4-.59,2.18,2.18,0,0,1-.14-.82,2.64,2.64,0,0,1,.2-1.06,2.18,2.18,0,0,1,.55-.78,2.35,2.35,0,0,1,.83-.47,3.22,3.22,0,0,1,1-.16,3.47,3.47,0,0,1,1.37.26,4.39,4.39,0,0,1,1.08.65Z"/><path class="cls-3" d="M13.46,118.36a2.81,2.81,0,0,1-1.39-.35,3.54,3.54,0,0,1-1.08-.92,4.24,4.24,0,0,1-.7-1.32,4.81,4.81,0,0,1-.24-1.52,4.64,4.64,0,0,1,.26-1.55,4.37,4.37,0,0,1,.72-1.31,3.48,3.48,0,0,1,1.09-.91,2.87,2.87,0,0,1,1.37-.34,2.74,2.74,0,0,1,1.39.36,3.61,3.61,0,0,1,1.07.94,4.42,4.42,0,0,1,.69,1.32,4.72,4.72,0,0,1,.24,1.5,4.64,4.64,0,0,1-.26,1.55,4.29,4.29,0,0,1-.72,1.31,3.56,3.56,0,0,1-1.08.9A2.84,2.84,0,0,1,13.46,118.36Zm-2.25-4.11a3.88,3.88,0,0,0,.16,1.11,3.14,3.14,0,0,0,.45.95,2.32,2.32,0,0,0,.71.66,1.82,1.82,0,0,0,.94.24,1.8,1.8,0,0,0,1-.26,2.31,2.31,0,0,0,.71-.68,3.25,3.25,0,0,0,.44-.95,3.84,3.84,0,0,0,.15-1.07,3.76,3.76,0,0,0-.16-1.11,3.15,3.15,0,0,0-.46-.94,2.38,2.38,0,0,0-.71-.65,1.88,1.88,0,0,0-1.88,0,2.36,2.36,0,0,0-.71.67,3.13,3.13,0,0,0-.44.94A4,4,0,0,0,11.21,114.26Z"/><path class="cls-3" d="M17.92,118.31v-8.1h1.14v7h3.88v1.13Z"/><path class="cls-3" d="M26.58,117.21a1.67,1.67,0,0,0,.95-.25,1.91,1.91,0,0,0,.61-.66,3,3,0,0,0,.32-.92,5.77,5.77,0,0,0,.1-1.07v-4.11H29.7v4.11a6.86,6.86,0,0,1-.17,1.57,3.82,3.82,0,0,1-.55,1.29,2.69,2.69,0,0,1-1,.87,3,3,0,0,1-1.43.32,2.92,2.92,0,0,1-1.46-.34,2.72,2.72,0,0,1-1-.9,3.91,3.91,0,0,1-.53-1.29,6.93,6.93,0,0,1-.16-1.52v-4.11H24.6v4.11a5.83,5.83,0,0,0,.1,1.08,2.94,2.94,0,0,0,.32.92,1.83,1.83,0,0,0,.61.65A1.71,1.71,0,0,0,26.58,117.21Z"/><path class="cls-3" d="M36.51,111.34h-2.4v7H33v-7H30.56v-1.13h6Z"/><path class="cls-3" d="M37.5,118.31v-8.09h1.14v8.09Z"/><path class="cls-3" d="M43,118.36a2.81,2.81,0,0,1-1.39-.35,3.57,3.57,0,0,1-1.08-.92,4.28,4.28,0,0,1-.7-1.32,4.81,4.81,0,0,1-.24-1.52,4.68,4.68,0,0,1,.26-1.55,4.41,4.41,0,0,1,.72-1.31,3.49,3.49,0,0,1,1.09-.91,2.87,2.87,0,0,1,1.37-.34,2.74,2.74,0,0,1,1.39.36,3.63,3.63,0,0,1,1.07.94,4.46,4.46,0,0,1,.69,1.32,4.76,4.76,0,0,1,.24,1.5,4.68,4.68,0,0,1-.26,1.55,4.33,4.33,0,0,1-.72,1.31,3.53,3.53,0,0,1-1.08.9A2.84,2.84,0,0,1,43,118.36Zm-2.25-4.11a3.93,3.93,0,0,0,.16,1.11,3.1,3.1,0,0,0,.45.95,2.35,2.35,0,0,0,.71.66,1.82,1.82,0,0,0,.94.24,1.8,1.8,0,0,0,1-.26,2.33,2.33,0,0,0,.71-.68,3.25,3.25,0,0,0,.44-.95,3.88,3.88,0,0,0,0-2.18,3.16,3.16,0,0,0-.46-.94,2.35,2.35,0,0,0-.71-.65,1.88,1.88,0,0,0-1.88,0,2.38,2.38,0,0,0-.71.67,3.09,3.09,0,0,0-.44.94A3.84,3.84,0,0,0,40.77,114.26Z"/><path class="cls-3" d="M48.56,112.6v5.7H47.42v-8.1h.9L52.45,116v-5.83H53.6v8.09h-.95Z"/><path class="cls-3" d="M59.51,112.11a1.58,1.58,0,0,0-.29-.27,2.87,2.87,0,0,0-.45-.27,3.07,3.07,0,0,0-.58-.21,2.74,2.74,0,0,0-.67-.08,1.53,1.53,0,0,0-1,.3,1,1,0,0,0-.35.83.93.93,0,0,0,.11.48,1,1,0,0,0,.34.33,2.64,2.64,0,0,0,.56.24l.79.23c.35.11.68.22,1,.33a2.68,2.68,0,0,1,.75.43,1.78,1.78,0,0,1,.48.63,2.24,2.24,0,0,1,.17.94,2.5,2.5,0,0,1-.21,1.08,2,2,0,0,1-.57.72,2.41,2.41,0,0,1-.84.41,3.84,3.84,0,0,1-1,.13,4.67,4.67,0,0,1-1.6-.28,4.43,4.43,0,0,1-1.39-.82l.53-1.09a2.55,2.55,0,0,0,.38.33,3.16,3.16,0,0,0,.57.34,4.49,4.49,0,0,0,.73.26,3.09,3.09,0,0,0,.82.11,1.68,1.68,0,0,0,1-.27.92.92,0,0,0,.36-.78.93.93,0,0,0-.13-.51,1.18,1.18,0,0,0-.39-.36A3,3,0,0,0,58,115l-.83-.26a8.1,8.1,0,0,1-.94-.34,2.28,2.28,0,0,1-.66-.43,1.63,1.63,0,0,1-.4-.59,2.15,2.15,0,0,1-.14-.82,2.64,2.64,0,0,1,.2-1.06,2.17,2.17,0,0,1,.55-.78,2.34,2.34,0,0,1,.83-.47,3.23,3.23,0,0,1,1-.16,3.46,3.46,0,0,1,1.37.26,4.37,4.37,0,0,1,1.08.65Z"/><path class="cls-3" d="M64,118.31v-8.1h4.81v1.13H65.11v2.42h3.07v1.06H65.11v3.49Z"/><path class="cls-3" d="M72.79,118.36A2.8,2.8,0,0,1,71.4,118a3.54,3.54,0,0,1-1.08-.92,4.28,4.28,0,0,1-.7-1.32,4.81,4.81,0,0,1-.24-1.52,4.68,4.68,0,0,1,.26-1.55,4.38,4.38,0,0,1,.72-1.31,3.48,3.48,0,0,1,1.09-.91,2.87,2.87,0,0,1,1.37-.34,2.74,2.74,0,0,1,1.39.36,3.61,3.61,0,0,1,1.07.94,4.46,4.46,0,0,1,.69,1.32,4.76,4.76,0,0,1,.24,1.5,4.64,4.64,0,0,1-.26,1.55,4.33,4.33,0,0,1-.72,1.31,3.54,3.54,0,0,1-1.08.9A2.84,2.84,0,0,1,72.79,118.36Zm-2.25-4.11a3.93,3.93,0,0,0,.16,1.11,3.14,3.14,0,0,0,.45.95,2.33,2.33,0,0,0,.71.66,1.9,1.9,0,0,0,1.89,0,2.31,2.31,0,0,0,.71-.68,3.3,3.3,0,0,0,.44-.95,3.89,3.89,0,0,0,0-2.18,3.16,3.16,0,0,0-.46-.94,2.36,2.36,0,0,0-.71-.65,1.88,1.88,0,0,0-1.88,0,2.36,2.36,0,0,0-.71.67,3.09,3.09,0,0,0-.44.94A3.9,3.9,0,0,0,70.54,114.26Z"/><path class="cls-3" d="M77.18,118.31v-8.1h3.15a1.83,1.83,0,0,1,.9.23,2.35,2.35,0,0,1,.71.6,2.91,2.91,0,0,1,.46.84,2.87,2.87,0,0,1,.17,1,3,3,0,0,1-.39,1.48,2.22,2.22,0,0,1-.45.55,1.8,1.8,0,0,1-.58.35l1.72,3.08H81.58L80,115.49H78.32v2.82Zm1.14-3.95h2a.84.84,0,0,0,.44-.12,1.11,1.11,0,0,0,.34-.33,1.79,1.79,0,0,0,.22-.48,2,2,0,0,0,.08-.58,1.76,1.76,0,0,0-.35-1.06,1.24,1.24,0,0,0-.37-.32.86.86,0,0,0-.43-.12H78.32Z"/><path class="cls-3" d="M86.49,118.31v-8.1h2.57a3.47,3.47,0,0,1,1.53.32,3.18,3.18,0,0,1,1.1.87,3.74,3.74,0,0,1,.67,1.28,5.69,5.69,0,0,1,0,3.24,3.77,3.77,0,0,1-.71,1.28,3.14,3.14,0,0,1-1.11.82,3.53,3.53,0,0,1-1.45.29Zm4.93-4.06a4.13,4.13,0,0,0-.16-1.17,2.68,2.68,0,0,0-.46-.92,2.18,2.18,0,0,0-.74-.6,2.23,2.23,0,0,0-1-.22H87.62v5.84h1.43a2.23,2.23,0,0,0,1-.22,2.12,2.12,0,0,0,.74-.62,2.79,2.79,0,0,0,.45-.93A4.32,4.32,0,0,0,91.41,114.24Z"/><path class="cls-3" d="M93.79,118.31v-8.1h3.14a1.83,1.83,0,0,1,.9.23,2.35,2.35,0,0,1,.71.6,2.91,2.91,0,0,1,.46.84,2.87,2.87,0,0,1,.17,1,2.93,2.93,0,0,1-.1.79,2.86,2.86,0,0,1-.28.7,2.21,2.21,0,0,1-.45.55,1.79,1.79,0,0,1-.58.35l1.72,3.08H98.19l-1.59-2.82H94.93v2.82Zm1.14-3.95h2a.83.83,0,0,0,.44-.12,1.09,1.09,0,0,0,.34-.33,1.74,1.74,0,0,0,.22-.48,2,2,0,0,0,.08-.58,1.72,1.72,0,0,0-.1-.58,1.68,1.68,0,0,0-.25-.48,1.24,1.24,0,0,0-.37-.32.86.86,0,0,0-.43-.12H94.93Z"/><path class="cls-3" d="M103.55,117.21a1.67,1.67,0,0,0,.95-.25,1.91,1.91,0,0,0,.61-.66,3,3,0,0,0,.32-.92,5.77,5.77,0,0,0,.1-1.07v-4.11h1.15v4.11a6.86,6.86,0,0,1-.17,1.57,3.82,3.82,0,0,1-.55,1.29,2.69,2.69,0,0,1-1,.87,3,3,0,0,1-1.43.32,2.92,2.92,0,0,1-1.46-.34,2.72,2.72,0,0,1-1-.9,3.91,3.91,0,0,1-.53-1.29,6.93,6.93,0,0,1-.16-1.52v-4.11h1.14v4.11a5.83,5.83,0,0,0,.1,1.08,2.94,2.94,0,0,0,.32.92,1.83,1.83,0,0,0,.61.65A1.71,1.71,0,0,0,103.55,117.21Z"/><path class="cls-3" d="M113,117.3a2.59,2.59,0,0,1-3.38.71,3.61,3.61,0,0,1-1.07-.92,4.52,4.52,0,0,1-.71-1.32,4.78,4.78,0,0,1,0-3.11,4.31,4.31,0,0,1,.71-1.3,3.41,3.41,0,0,1,1.07-.88,2.87,2.87,0,0,1,1.35-.32,2.91,2.91,0,0,1,1.71.48,3,3,0,0,1,1,1.28l-.87.71a2.25,2.25,0,0,0-.8-1,2,2,0,0,0-1.12-.33,1.71,1.71,0,0,0-.9.24,2.34,2.34,0,0,0-.7.65,3.09,3.09,0,0,0-.45.94,3.92,3.92,0,0,0-.16,1.12,3.7,3.7,0,0,0,.17,1.15,3,3,0,0,0,.48.94,2.39,2.39,0,0,0,.73.63,1.82,1.82,0,0,0,.9.23,2.47,2.47,0,0,0,2-1.2v-.86h-1.52v-.95H114v4.1h-1Z"/><path class="cls-3" d="M117.8,118.31v-8.1h2.56a3.46,3.46,0,0,1,1.53.32,3.18,3.18,0,0,1,1.1.87,3.74,3.74,0,0,1,.67,1.28,5.41,5.41,0,0,1,.22,1.57,5.31,5.31,0,0,1-.25,1.67,3.77,3.77,0,0,1-.71,1.28,3.13,3.13,0,0,1-1.11.82,3.52,3.52,0,0,1-1.45.29Zm4.93-4.06a4.18,4.18,0,0,0-.16-1.17,2.65,2.65,0,0,0-.46-.92,2.19,2.19,0,0,0-.74-.6,2.23,2.23,0,0,0-1-.22h-1.42v5.84h1.42a2.24,2.24,0,0,0,1-.22,2.13,2.13,0,0,0,.74-.62,2.73,2.73,0,0,0,.45-.93A4.26,4.26,0,0,0,122.72,114.24Z"/><path class="cls-3" d="M125.11,118.31v-8.09h1.14v8.09Z"/><path class="cls-3" d="M132.16,112.11a1.59,1.59,0,0,0-.3-.27,2.73,2.73,0,0,0-.45-.27,3,3,0,0,0-.58-.21,2.74,2.74,0,0,0-.67-.08,1.53,1.53,0,0,0-1,.3,1,1,0,0,0-.34.83.93.93,0,0,0,.11.48,1,1,0,0,0,.34.33,2.6,2.6,0,0,0,.56.24l.78.23q.53.16,1,.33a2.65,2.65,0,0,1,.75.43,1.74,1.74,0,0,1,.48.63,2.24,2.24,0,0,1,.17.94,2.5,2.5,0,0,1-.21,1.08,2,2,0,0,1-.58.72,2.38,2.38,0,0,1-.84.41,3.82,3.82,0,0,1-1,.13,4.67,4.67,0,0,1-1.6-.28,4.4,4.4,0,0,1-1.39-.82l.53-1.09a2.52,2.52,0,0,0,.38.33,3.18,3.18,0,0,0,.58.34,4.53,4.53,0,0,0,.73.26,3.1,3.1,0,0,0,.82.11,1.68,1.68,0,0,0,1-.27.92.92,0,0,0,.36-.78.93.93,0,0,0-.13-.51,1.17,1.17,0,0,0-.39-.36,3,3,0,0,0-.62-.27l-.84-.26a8.07,8.07,0,0,1-.94-.34,2.29,2.29,0,0,1-.67-.43,1.67,1.67,0,0,1-.4-.59,2.15,2.15,0,0,1-.14-.82,2.64,2.64,0,0,1,.2-1.06,2.16,2.16,0,0,1,.55-.78,2.34,2.34,0,0,1,.83-.47,3.22,3.22,0,0,1,1-.16,3.47,3.47,0,0,1,1.37.26,4.4,4.4,0,0,1,1.08.65Z"/><path class="cls-3" d="M133.68,114.2a4.71,4.71,0,0,1,.23-1.45,4.32,4.32,0,0,1,.68-1.3,3.47,3.47,0,0,1,1.08-.93,3,3,0,0,1,1.45-.35,2.81,2.81,0,0,1,1.66.49,3,3,0,0,1,1,1.28l-.89.67a2.15,2.15,0,0,0-.36-.62,1.81,1.81,0,0,0-1-.61,2.28,2.28,0,0,0-.52-.06,1.84,1.84,0,0,0-1,.26,2.27,2.27,0,0,0-.71.68,3.15,3.15,0,0,0-.43.95,3.92,3.92,0,0,0-.14,1,3.76,3.76,0,0,0,.17,1.13,3.14,3.14,0,0,0,.47.95,2.42,2.42,0,0,0,.72.66,1.78,1.78,0,0,0,.92.25,2.08,2.08,0,0,0,.53-.07,1.77,1.77,0,0,0,.53-.24,2.2,2.2,0,0,0,.46-.42,2.12,2.12,0,0,0,.36-.6l.95.6a2.52,2.52,0,0,1-.48.8,3.13,3.13,0,0,1-.69.59,3.3,3.3,0,0,1-.82.37,3.16,3.16,0,0,1-.87.13,2.65,2.65,0,0,1-1.37-.37,3.72,3.72,0,0,1-1.07-1,4.51,4.51,0,0,1-.7-1.33A4.78,4.78,0,0,1,133.68,114.2Z"/><path class="cls-3" d="M143.85,118.36a2.81,2.81,0,0,1-1.39-.35,3.57,3.57,0,0,1-1.08-.92,4.28,4.28,0,0,1-.7-1.32,4.81,4.81,0,0,1-.24-1.52,4.68,4.68,0,0,1,.26-1.55,4.41,4.41,0,0,1,.72-1.31,3.49,3.49,0,0,1,1.09-.91,2.87,2.87,0,0,1,1.37-.34,2.74,2.74,0,0,1,1.39.36,3.63,3.63,0,0,1,1.07.94,4.46,4.46,0,0,1,.69,1.32,4.76,4.76,0,0,1,.24,1.5,4.68,4.68,0,0,1-.26,1.55,4.33,4.33,0,0,1-.72,1.31,3.53,3.53,0,0,1-1.08.9A2.84,2.84,0,0,1,143.85,118.36Zm-2.25-4.11a3.93,3.93,0,0,0,.16,1.11,3.1,3.1,0,0,0,.45.95,2.35,2.35,0,0,0,.71.66,1.82,1.82,0,0,0,.94.24,1.8,1.8,0,0,0,1-.26,2.33,2.33,0,0,0,.71-.68,3.25,3.25,0,0,0,.44-.95,3.88,3.88,0,0,0,0-2.18,3.16,3.16,0,0,0-.46-.94,2.35,2.35,0,0,0-.71-.65,1.88,1.88,0,0,0-1.88,0,2.38,2.38,0,0,0-.71.67,3.09,3.09,0,0,0-.44.94A3.84,3.84,0,0,0,141.6,114.26Z"/><path class="cls-3" d="M148.73,110.21l2.19,6.49,2.17-6.49h1.2l-2.88,8.1h-1l-2.91-8.1Z"/><path class="cls-3" d="M160.11,117.18v1.13h-5v-8.1H160v1.13H156.3v2.3h3.23v1.06H156.3v2.48Z"/><path class="cls-3" d="M161.33,118.31v-8.1h3.14a1.83,1.83,0,0,1,.9.23,2.35,2.35,0,0,1,.71.6,2.91,2.91,0,0,1,.46.84,2.87,2.87,0,0,1,.17,1,2.93,2.93,0,0,1-.1.79,2.86,2.86,0,0,1-.28.7,2.21,2.21,0,0,1-.45.55,1.79,1.79,0,0,1-.58.35l1.72,3.08h-1.29l-1.59-2.82h-1.67v2.82Zm1.14-3.95h2a.83.83,0,0,0,.44-.12,1.09,1.09,0,0,0,.34-.33,1.74,1.74,0,0,0,.22-.48,2,2,0,0,0,.08-.58,1.72,1.72,0,0,0-.1-.58,1.68,1.68,0,0,0-.25-.48,1.24,1.24,0,0,0-.37-.32.86.86,0,0,0-.43-.12h-1.93Z"/><path class="cls-3" d="M168.25,110.21l2,4.06,2-4.06h1.24l-2.69,5.2v2.9h-1.15v-2.92L167,110.21Z"/><circle class="cls-5" cx="94.29" cy="29.68" r="15.36"/><ellipse class="cls-3" cx="94.29" cy="29.28" rx="17.06" ry="16.77"/><g class="cls-7"><path class="cls-5" d="M63.16,38l5.47,1.74c1.79.57,3.59,1.13,5.37,1.72a1.24,1.24,0,0,0,1.12-.11c3-1.76,6.11-3.5,9.17-5.25l.77-.41.51.82c-.24.15-.44.29-.65.41-3.11,1.79-6.21,3.58-9.32,5.36a.83.83,0,0,0-.49.83q0,8.95,0,17.9a.84.84,0,0,0,.48.84q7.84,4.5,15.67,9a.91.91,0,0,0,1,0c3-1.49,6-3,9-4.44l.72-.33.45.85c-.24.14-.45.26-.67.37-2.44,1.21-4.87,2.43-7.33,3.61a1,1,0,0,0-.64,1c0,5.67,0,11.35,0,17,0,.25,0,.49,0,.72-.94.28-1.05.2-1.06-.68q0-8.2,0-16.4c0-.25,0-.49,0-.85-.67.35-1.28.72-2-.1,0,.47,0,.71,0,.95q0,8.2,0,16.4c0,.86,0,.9-1.06.71,0-.24,0-.51,0-.77,0-5.72,0-11.43,0-17.15a1,1,0,0,0-.6-1q-7-4-14-8.09a1.44,1.44,0,0,0-1.3-.14c-3.32,1.08-6.64,2.12-10,3.17l-.62.17L62.84,65l1.17-.4c3.12-1,6.23-2,9.36-3,.47-.15.67-.33.67-.86q0-8.79,0-17.58a.73.73,0,0,0-.62-.83c-3.31-1-6.6-2.11-9.9-3.17L62.86,39Z"/><path class="cls-5" d="M93.14,90.46a.91.91,0,0,1-.56-.17,1.42,1.42,0,0,1-.4-1.23V72.71a1.69,1.69,0,0,1-.84,0V89.07A1.41,1.41,0,0,1,91,90.25c-.35.29-.82.21-1.4.1l-.48-.09V85.74q0-6.94,0-13.88c0-.29,0-.37-.31-.52q-7-4-14-8.09a.87.87,0,0,0-.83-.09c-2.59.84-5.19,1.66-7.78,2.48L64,66.33l-.41.12-.74.2-.72-2,1-.33.79-.27,1.82-.59c2.51-.81,5-1.62,7.54-2.41a.65.65,0,0,0,.24-.11h0a.59.59,0,0,0,0-.2q0-8.79,0-17.59a.54.54,0,0,0,0-.19h0a.71.71,0,0,0-.19-.08q-3.92-1.24-7.83-2.5l-3.3-1.09.64-2,7.46,2.37c1.32.42,2.64.83,3.95,1.27a.66.66,0,0,0,.65-.06q3.8-2.2,7.61-4.36L84,35.6l.53-.28.73-.38,1.1,1.76-.69.44-.46.29-1.74,1q-3.79,2.19-7.59,4.36c-.19.11-.2.14-.2.32q0,9,0,17.9c0,.2,0,.24.19.34q7.85,4.5,15.67,9c.16.09.22.11.44,0q3.8-1.88,7.6-3.74l1.43-.7.48-.22.75-.34,1,1.84-.72.4-.47.26-1.64.81c-1.89.94-3.79,1.88-5.7,2.8-.28.13-.31.19-.31.52q0,6.55,0,13.1v5.08l-.41.12A3,3,0,0,1,93.14,90.46ZM91.48,71.59a.46.46,0,0,0,.35,0A1.36,1.36,0,0,1,91.48,71.59ZM93.26,71l0,.38a1.35,1.35,0,0,1,.29-.54Zm-3.33-.24a1.44,1.44,0,0,1,.23.42v-.28ZM74.29,61.93a1.88,1.88,0,0,1,.58.09,1.33,1.33,0,0,1-.33-.68,1.17,1.17,0,0,1-.46.6Zm-.1-19.82a1.12,1.12,0,0,1,.38.58,1.26,1.26,0,0,1,.34-.62A1.69,1.69,0,0,1,74.19,42.11Z"/><path class="cls-5" d="M125.21,34.12l.54.88L123,36.63q-6.43,3.84-12.88,7.67a1,1,0,0,0-.57,1c0,2.89,0,5.78,0,8.67,0,.82-.07.87-1,.69,0-.22,0-.46,0-.7,0-3.41,0-6.82,0-10.23a1.23,1.23,0,0,0-.69-1.24c-3.14-1.85-6.26-3.74-9.39-5.62-.16-.1-.31-.21-.51-.35l.49-.81c.23.12.43.22.63.33,2.63,1.56,5.26,3.12,7.87,4.71a1,1,0,0,0,1.26,0q7.4-4.45,14.82-8.86l.61-.34.54.85-15.58,9.33c.79.31,1.24.75,1,1.72Z"/><path class="cls-5" d="M109.18,55.32a3.9,3.9,0,0,1-.72-.1l-.44-.09,0-.65c0-.17,0-.35,0-.53V51.59c0-2.62,0-5.25,0-7.87a.67.67,0,0,0-.41-.73c-2.46-1.45-4.9-2.92-7.34-4.39l-2-1.23-.36-.24-.63-.44,1.06-1.74.69.36.44.24,1.67,1c2.07,1.23,4.14,2.46,6.2,3.72a.48.48,0,0,0,.65,0q5.88-3.54,11.78-7l3-1.82.41-.23.69-.38L125,32.59l-15.26,9.14a1.57,1.57,0,0,1,.43.69l15.29-9.1,1.14,1.87L121.2,38.4q-5.38,3.21-10.76,6.41a.44.44,0,0,0-.28.49c0,2.36,0,4.71,0,7.07V54a1.39,1.39,0,0,1-.35,1.15A.94.94,0,0,1,109.18,55.32Zm-.07-10.95c0,.08,0,.16,0,.24a1.41,1.41,0,0,1,.21-.37Zm-.42-1.94A1.61,1.61,0,0,1,109,43,.53.53,0,0,0,108.69,42.43Zm-1.36-.92.23.14.24-.15A1.48,1.48,0,0,1,107.34,41.52Z"/><path class="cls-5" d="M91.62,102.46c-3.29,0-5.32-2.13-5.15-5.39a8.54,8.54,0,0,1,.19-1.48A4.52,4.52,0,0,1,90.95,92a7.92,7.92,0,0,1,2.33.18,4.66,4.66,0,0,1,3.55,4.62,7.67,7.67,0,0,1-.17,2C96.13,101.18,94.32,102.46,91.62,102.46Zm3.71-5.19c0-.33,0-.6,0-.87a3.38,3.38,0,0,0-3.34-3.29,3.42,3.42,0,0,0-3.8,2.7,6.67,6.67,0,0,0-.16,2,3.45,3.45,0,0,0,1.76,3.06,3.68,3.68,0,0,0,5.51-2.64A8.89,8.89,0,0,0,95.33,97.27Z"/><path class="cls-5" d="M91.63,103h0a5.77,5.77,0,0,1-4.31-1.67A5.68,5.68,0,0,1,85.88,97a9,9,0,0,1,.21-1.58,5.12,5.12,0,0,1,4.82-4.07,8.51,8.51,0,0,1,2.5.19,5.23,5.23,0,0,1,4,5.16,8.32,8.32,0,0,1-.18,2.2C96.64,101.54,94.6,103,91.63,103Zm-.29-10.51-.35,0a4,4,0,0,0-3.77,3.18A8.05,8.05,0,0,0,87,97.1a4.56,4.56,0,0,0,1.11,3.47,4.3,4.3,0,0,0,2.58,1.25,4.86,4.86,0,0,1-1.25-.46,4,4,0,0,1-2.07-3.53,7.24,7.24,0,0,1,.17-2.15A3.91,3.91,0,0,1,91.34,92.53Zm1,0a3.94,3.94,0,0,1,3.54,3.78c0,.19,0,.38,0,.59v.61a5.75,5.75,0,0,1-.06.76,4.2,4.2,0,0,1-3.21,3.51,3.84,3.84,0,0,0,3.47-3.13,7,7,0,0,0,.15-1.88,4.07,4.07,0,0,0-3.11-4.09A6.21,6.21,0,0,0,92.33,92.57Zm-.71,1.11a2.8,2.8,0,0,0-2.91,2.26,6.12,6.12,0,0,0-.14,1.8A2.87,2.87,0,0,0,90,100.33a3.26,3.26,0,0,0,3,.11,3.1,3.1,0,0,0,1.66-2.33,4.44,4.44,0,0,0,0-.6V97c0-.18,0-.35,0-.51a2.81,2.81,0,0,0-2.8-2.77Z"/><path class="cls-5" d="M131.28,24.82c3.74,0,5.48,2.67,5.09,6-.44,3.72-4,5.62-7.48,4.14a4.38,4.38,0,0,1-2.52-2.73,6.67,6.67,0,0,1-.23-3.45C126.63,26.18,128.44,24.81,131.28,24.82ZM134.91,30h0c0-.15,0-.29,0-.44a3.44,3.44,0,0,0-3.37-3.6,3.4,3.4,0,0,0-3.89,3.09,6.14,6.14,0,0,0-.07,1.43A3.54,3.54,0,0,0,131,34.17a3.4,3.4,0,0,0,3.79-3.08C134.89,30.74,134.88,30.39,134.91,30Z"/><path class="cls-5" d="M131.3,36a6.8,6.8,0,0,1-2.63-.55,4.94,4.94,0,0,1-2.85-3.08,7.23,7.23,0,0,1-.25-3.74c.53-2.84,2.55-4.4,5.68-4.4h.06A5.59,5.59,0,0,1,135.64,26,6.12,6.12,0,0,1,137,30.85a5.76,5.76,0,0,1-2.76,4.39A5.7,5.7,0,0,1,131.3,36Zm0-10.62c-2.54,0-4.11,1.2-4.54,3.46a6.1,6.1,0,0,0,.21,3.15,3.77,3.77,0,0,0,2.2,2.39,5,5,0,0,0,4.49-.15,4.56,4.56,0,0,0,2.19-3.53,5,5,0,0,0-1-4,4.42,4.42,0,0,0-3.49-1.35h0Zm0,9.36H131a4.13,4.13,0,0,1-4-4.19A6.71,6.71,0,0,1,127,29a4.23,4.23,0,0,1,8.41.46h0l0,.94a6.31,6.31,0,0,1-.07.79A4,4,0,0,1,131.27,34.75Zm-.12-8.18a2.79,2.79,0,0,0-3,2.62,5.64,5.64,0,0,0-.06,1.29,3,3,0,0,0,2.94,3.11,2.81,2.81,0,0,0,3.19-2.6,4.88,4.88,0,0,0,.05-.63v-.74a2.87,2.87,0,0,0-2.83-3Z"/><path class="cls-5" d="M88.57,30.88c0,2.62,0,5.17,0,7.73a.71.71,0,0,1-1.11.69.52.52,0,0,1-.19-.4c0-3.12,0-6.24,0-9.35,0-.36.17-.43.5-.47a1.6,1.6,0,0,1,1.74.87c1.57,2.56,3.23,5.07,4.93,7.71,0-.4,0-.67,0-.94,0-2.35,0-4.7,0-7,0-.49.2-.59.65-.59s.69.07.69.61c0,3,0,6.07,0,9.1,0,.44-.17.54-.59.57a1.62,1.62,0,0,1-1.73-.89c-1.45-2.39-3-4.73-4.51-7.09Z"/><path class="cls-5" d="M87.89,40a1.55,1.55,0,0,1-.69-.17,1.08,1.08,0,0,1-.51-.92q0-2.75,0-5.5V29.54c0-.62.34-1,1-1A2.16,2.16,0,0,1,90,29.63c1.14,1.85,2.32,3.67,3.53,5.54l.33.51v-.74c0-1.76,0-3.52,0-5.28a1.2,1.2,0,0,1,.3-.87,1.23,1.23,0,0,1,.91-.3h0a1.42,1.42,0,0,1,.85.21,1.14,1.14,0,0,1,.42,1c0,3,0,6.06,0,9.1a1.07,1.07,0,0,1-1.12,1.15,2.17,2.17,0,0,1-2.28-1.16c-1-1.73-2.15-3.42-3.24-5.12l-.53-.82V38.6a1.37,1.37,0,0,1-.61,1.2A1.22,1.22,0,0,1,87.89,40Zm0-1.16h.08s.06-.07.06-.22v-9h-.15v3.75Q87.84,36.1,87.85,38.82ZM95,29.64c0,1.83,0,3.56,0,5.29v3.84h.14c0-3.09,0-6.1,0-9.1v0H95Zm-6.53.05L90.65,33c1.1,1.71,2.21,3.41,3.26,5.15a1.26,1.26,0,0,0,.5.52L92.55,35.8c-1.21-1.87-2.4-3.71-3.54-5.56A1.21,1.21,0,0,0,88.46,29.7Z"/><path class="cls-5" d="M54.34,36.87c0,2.62,0,5.17,0,7.73a.72.72,0,0,1-1.11.68.53.53,0,0,1-.19-.41c0-3.12,0-6.24,0-9.35,0-.15.26-.4.43-.44a1.54,1.54,0,0,1,1.8.84c1.46,2.41,3,4.76,4.56,7.13l.36.54c0-.45,0-.81,0-1.17,0-2.24,0-4.49,0-6.73,0-.49.15-.66.65-.65s.69.08.69.61q0,4.52,0,9c0,.51-.19.59-.66.63a1.57,1.57,0,0,1-1.66-.89c-1.46-2.39-3-4.73-4.52-7.08Z"/><path class="cls-5" d="M53.66,46a1.51,1.51,0,0,1-.7-.18,1.08,1.08,0,0,1-.5-.92c0-3.12,0-6.24,0-9.36a1.17,1.17,0,0,1,.9-1,2.11,2.11,0,0,1,2.41,1.11c1,1.72,2.16,3.45,3.25,5.11l.6.92v-.85c0-1.7,0-3.4,0-5.1a1.09,1.09,0,0,1,1.25-1.23,1.11,1.11,0,0,1,1.25,1.2q0,4.52,0,9a1.11,1.11,0,0,1-1.19,1.22,2.15,2.15,0,0,1-2.21-1.17c-1.07-1.75-2.18-3.47-3.3-5.19l-.48-.75v5.78a1.36,1.36,0,0,1-.62,1.2A1.22,1.22,0,0,1,53.66,46Zm0-1.16a.11.11,0,0,0,.08,0s.06-.08.06-.21v-9l-.13,0C53.6,38.7,53.61,41.75,53.62,44.81Zm7.14-9.18v.06c0,1.7,0,3.41,0,5.11v4h.15c0-3.11,0-6.1,0-9.09v0h-.18Zm-6.54,0,.7,1,.24.36,1.21,1.88c1.12,1.73,2.23,3.46,3.31,5.21a1.26,1.26,0,0,0,.55.56L58,41.37C57,39.69,55.83,38,54.78,36.22A1.17,1.17,0,0,0,54.22,35.67Zm-.62,0h0Zm0-.13h0Z"/><path class="cls-5" d="M106.13,59.32c0,2.62,0,5.17,0,7.73a.72.72,0,0,1-1.11.68.53.53,0,0,1-.19-.41c0-3.12,0-6.24,0-9.35,0-.15.26-.4.43-.44a1.54,1.54,0,0,1,1.8.84c1.46,2.41,3,4.76,4.56,7.13l.36.54c0-.45,0-.81,0-1.17,0-2.24,0-4.49,0-6.73,0-.49.15-.66.65-.65s.69.08.69.61q0,4.52,0,9c0,.51-.19.59-.66.63A1.57,1.57,0,0,1,111,66.9c-1.46-2.39-3-4.73-4.52-7.08Z"/><path class="cls-5" d="M105.44,68.42a1.51,1.51,0,0,1-.7-.18,1.08,1.08,0,0,1-.5-.92c0-3.12,0-6.24,0-9.36a1.18,1.18,0,0,1,.9-1,2.11,2.11,0,0,1,2.41,1.11c1,1.73,2.18,3.47,3.27,5.14l.57.89v-.85c0-1.7,0-3.4,0-5.1a1.24,1.24,0,0,1,.31-.94,1.28,1.28,0,0,1,.93-.3,1.11,1.11,0,0,1,1.25,1.2q0,4.52,0,9a1.11,1.11,0,0,1-1.19,1.21,2.15,2.15,0,0,1-2.21-1.17c-1.07-1.75-2.19-3.48-3.3-5.2l-.47-.74V67a1.36,1.36,0,0,1-.62,1.2A1.22,1.22,0,0,1,105.44,68.42Zm0-1.16a.11.11,0,0,0,.08,0s.06-.08.06-.21v-9l-.13,0C105.39,61.15,105.4,64.21,105.41,67.26Zm7.14-9.18v.06c0,1.7,0,3.41,0,5.11v4h.15c0-3.11,0-6.1,0-9.09v0h-.18Zm-7.27,9.13h0Zm.72-9.09.69,1,.26.38,1.21,1.87c1.12,1.73,2.24,3.47,3.32,5.22a1.28,1.28,0,0,0,.55.56l-2.17-3.3c-1.1-1.68-2.23-3.43-3.29-5.18A1.2,1.2,0,0,0,106,58.12Zm-.61,0h0Z"/><path class="cls-5" d="M60.19,68c0-2.68,0-5.25,0-7.83,0-.48.1-.71.66-.71s.68.19.68.69q0,4.46,0,8.92c0,.5-.14.66-.67.69a1.57,1.57,0,0,1-1.63-.85c-1.47-2.41-3-4.76-4.55-7.14-.1-.15-.21-.3-.33-.48,0,1.19,0,2.34,0,3.49,0,1.46,0,2.91,0,4.37,0,.54-.24.6-.69.6s-.64-.11-.64-.59q0-4.55,0-9.1c0-.43.15-.56.59-.59a1.55,1.55,0,0,1,1.64.83c1.48,2.42,3.05,4.79,4.59,7.19Z"/><path class="cls-5" d="M60.69,70.37a2.1,2.1,0,0,1-2-1.13c-1.07-1.75-2.18-3.48-3.3-5.2l-.5-.78V66c0,1,0,2.08,0,3.12a1.16,1.16,0,0,1-.29.87,1.32,1.32,0,0,1-1,.32,1.31,1.31,0,0,1-.92-.3,1.21,1.21,0,0,1-.3-.88q0-4.55,0-9.1a1.06,1.06,0,0,1,1.13-1.17A2.14,2.14,0,0,1,55.74,60c1.08,1.77,2.21,3.51,3.34,5.26l.53.81v-.22c0-1.91,0-3.79,0-5.66a1.29,1.29,0,0,1,.31-1,1.24,1.24,0,0,1,.93-.32,1.28,1.28,0,0,1,1,.34,1.3,1.3,0,0,1,.29.93q0,4.46,0,8.91a1.12,1.12,0,0,1-1.23,1.27Zm.07-10.3s0,.07,0,.12c0,1.88,0,3.76,0,5.68v3.34h.17v-.1q0-4.46,0-8.93s0-.08,0-.1h-.17ZM53.6,69.2h.16c0-1.12,0-2.14,0-3.15v-6h-.15c0,3.11,0,6.11,0,9.11Zm.61-9.08.72,1,.24.34,1.24,1.92c1.12,1.73,2.24,3.47,3.31,5.23a1.07,1.07,0,0,0,.54.51l-2.14-3.24c-1.13-1.75-2.27-3.5-3.36-5.28A1,1,0,0,0,54.21,60.12Z"/><path class="cls-5" d="M106.47,11.38h-1.35V6.72H99.55v4.63H98.08V1.21a1,1,0,0,1,.21-.08C99.54,1,99.54,1,99.54,2.27c0,.85,0,1.7,0,2.56,0,.41.1.6.56.6,1.48,0,3,0,4.45,0,.42,0,.55-.15.54-.55,0-1.1,0-2.2,0-3.3,0-.5.33-.47.64-.43s.85-.25.85.41q0,4.83,0,9.66S106.51,11.27,106.47,11.38Z"/><path class="cls-5" d="M106.47,12h-1.93V7.3h-4.41v4.63H97.5V.81l.37-.14a1.1,1.1,0,0,1,.38-.11C99,.5,99.44.47,99.78.78s.34.75.34,1.48V3c0,.61,0,1.22,0,1.83,1.53,0,3,0,4.39,0,0-.6,0-1.11,0-1.63s0-1.09,0-1.64a1,1,0,0,1,.31-.82,1.17,1.17,0,0,1,1-.2,1.24,1.24,0,0,1,1,.18,1,1,0,0,1,.31.8q0,4.83,0,9.67v.13l-.24.53Zm-.77-1.16H106q0-4.55,0-9.1a1.53,1.53,0,0,1-.32,0c0,.52,0,1,0,1.51s0,1.09,0,1.64a1.16,1.16,0,0,1-.28.85,1.19,1.19,0,0,1-.84.29c-1.48,0-3,0-4.44,0a1.18,1.18,0,0,1-.86-.3,1.18,1.18,0,0,1-.29-.9c0-.6,0-1.2,0-1.8V2.27c0-.22,0-.44,0-.59a1.9,1.9,0,0,1-.29,0v9.08H99V6.14h6.73Z"/><path class="cls-5" d="M146.45,75h-5.55v4.68h-1.47V69.55c1.44-.23,1.45-.23,1.45,1.11,0,.85,0,1.7,0,2.56,0,.39.1.57.53.56,1.51,0,3,0,4.52,0,.38,0,.51-.15.51-.52,0-1.1,0-2.2,0-3.3,0-.41.2-.54.54-.46s.93-.3.93.38c0,3.26,0,6.52,0,9.84h-1.46Z"/><path class="cls-5" d="M141.49,80.3h-2.63V69.05l.49-.08c.88-.14,1.36-.22,1.75.11s.38.79.38,1.57v.75c0,.6,0,1.19,0,1.79,1.51,0,3,0,4.39,0,0-.57,0-1.07,0-1.57s0-1.11,0-1.67a1,1,0,0,1,.35-.87,1,1,0,0,1,.9-.17l.14,0a1.12,1.12,0,0,1,.94.18,1,1,0,0,1,.32.78c0,2.4,0,4.8,0,7.22v3.21h-2.62V75.62h-4.39ZM140,79.14h.31V74.46H147v4.66h.3V77.07c0-2.35,0-4.68,0-7a1.6,1.6,0,0,1-.31,0c0,.55,0,1.05,0,1.56s0,1.08,0,1.61a1.12,1.12,0,0,1-.28.82,1.09,1.09,0,0,1-.81.29c-1.5,0-3,0-4.51,0a1.12,1.12,0,0,1-.83-.29,1.15,1.15,0,0,1-.28-.87c0-.59,0-1.19,0-1.79v-.75c0-.22,0-.48,0-.64L140,70Z"/><path class="cls-5" d="M30.38,95H29V90.27H23.47v4.65H22V84.79a1,1,0,0,1,.21-.08c1.25-.09,1.25-.09,1.25,1.13,0,.85,0,1.7,0,2.56,0,.41.1.61.56.6,1.48,0,3,0,4.45,0,.41,0,.55-.15.54-.55,0-1.1,0-2.2,0-3.3,0-.5.32-.48.63-.44s.85-.26.85.41q0,4.83,0,9.66A.78.78,0,0,1,30.38,95Z"/><path class="cls-5" d="M30.38,95.53h-2V90.85H24v4.65H21.41V84.39l.37-.14a1.05,1.05,0,0,1,.38-.12c.77-.06,1.19-.09,1.53.23s.34.75.34,1.48v.74c0,.61,0,1.22,0,1.83,1.52,0,3,0,4.39,0,0-.6,0-1.11,0-1.62s0-1.09,0-1.64a1,1,0,0,1,.31-.82,1.18,1.18,0,0,1,1-.2,1.24,1.24,0,0,1,1,.18,1,1,0,0,1,.31.8q0,4.14,0,8.28V94.9l-.24.53Zm-.79-1.16h.28v-1q0-4.06,0-8.11a1.48,1.48,0,0,1-.32,0c0,.53,0,1,0,1.51s0,1.09,0,1.64a1,1,0,0,1-1.13,1.14q-2.22,0-4.44,0a1.21,1.21,0,0,1-.86-.3,1.19,1.19,0,0,1-.28-.9c0-.6,0-1.2,0-1.8v-.74c0-.22,0-.44,0-.58h-.29v9.08h.32V89.69h6.71Z"/><path class="cls-5" d="M95.11,8.21l1.17.58a4.33,4.33,0,0,1-3.09,2.58c-3.29.74-6.46-.79-6.54-4.89a7.77,7.77,0,0,1,.25-2.15A4.35,4.35,0,0,1,91.21,1a10.25,10.25,0,0,1,2.8.38,3.4,3.4,0,0,1,2.18,2.16A10.13,10.13,0,0,1,95,3.91c-.12,0-.33-.12-.42-.24a3.45,3.45,0,0,0-3.9-1.37,3.18,3.18,0,0,0-2.48,2.9A8.26,8.26,0,0,0,88.49,8a3.1,3.1,0,0,0,2.95,2.27,3.37,3.37,0,0,0,3.23-1.46Z"/><path class="cls-5" d="M91.63,12.12A5.71,5.71,0,0,1,88.07,11a5.62,5.62,0,0,1-2-4.5,8.34,8.34,0,0,1,.27-2.31A4.94,4.94,0,0,1,91.21.43h0a10.87,10.87,0,0,1,2.93.4,4,4,0,0,1,2.56,2.49L97,3.9,96,4.22a6.55,6.55,0,0,1-.89.27,1.11,1.11,0,0,1-1-.48,2.89,2.89,0,0,0-3.3-1.13,2.6,2.6,0,0,0-2,2.38,7.67,7.67,0,0,0,.22,2.62,2.52,2.52,0,0,0,2.44,1.85A2.8,2.8,0,0,0,94.2,8.49l.72-1,2.12,1L96.81,9a4.88,4.88,0,0,1-3.49,2.9A7.7,7.7,0,0,1,91.63,12.12ZM91.24,1.59h0a3.76,3.76,0,0,0-3.75,2.88,7.16,7.16,0,0,0-.23,2,4.5,4.5,0,0,0,1.56,3.61,5.09,5.09,0,0,0,4.27.73A3.64,3.64,0,0,0,95.49,9l-.19-.09-.16.23a4,4,0,0,1-3.75,1.7,3.67,3.67,0,0,1-3.45-2.69,8.79,8.79,0,0,1-.26-3,3.76,3.76,0,0,1,2.93-3.43,5.66,5.66,0,0,1,1-.13Zm1.63.14a3.9,3.9,0,0,1,2.22,1.58l.3-.09A2.56,2.56,0,0,0,93.85,2,9.06,9.06,0,0,0,92.86,1.73Z"/><path class="cls-5" d="M137.54,71.91a6.15,6.15,0,0,1-1,.33A.67.67,0,0,1,136,72a3.5,3.5,0,0,0-4-1.36,3.21,3.21,0,0,0-2.43,2.94,8.34,8.34,0,0,0,.24,2.76,3.11,3.11,0,0,0,2.94,2.28A3.37,3.37,0,0,0,136,77.2l.43-.62,1.3.61a11.45,11.45,0,0,1-1.41,1.63,5.31,5.31,0,0,1-5.52.64A4.51,4.51,0,0,1,128,75.21a8,8,0,0,1,.16-2.29,4.4,4.4,0,0,1,4-3.54,6.06,6.06,0,0,1,3.48.46A3.71,3.71,0,0,1,137.54,71.91Z"/><path class="cls-5" d="M133.17,80.52a7,7,0,0,1-2.56-.52,5,5,0,0,1-3.17-4.74,8.59,8.59,0,0,1,.17-2.45,5,5,0,0,1,4.5-4,6.57,6.57,0,0,1,3.8.52,4.29,4.29,0,0,1,2.17,2.38l.22.56-.88.31a3.78,3.78,0,0,1-.8.24,1.24,1.24,0,0,1-1.1-.45,3,3,0,0,0-3.35-1.14,2.62,2.62,0,0,0-2,2.42,7.72,7.72,0,0,0,.22,2.56,2.52,2.52,0,0,0,2.44,1.86,2.81,2.81,0,0,0,2.71-1.21l.71-1L138.68,77l-.49.58c-.16.18-.3.37-.44.55a6.33,6.33,0,0,1-1.06,1.16A5.6,5.6,0,0,1,133.17,80.52Zm0-10.62a8.39,8.39,0,0,0-1,.06,3.83,3.83,0,0,0-3.5,3.09,7.4,7.4,0,0,0-.15,2.12A3.91,3.91,0,0,0,131,78.92a4.73,4.73,0,0,0,4.95-.56,5.33,5.33,0,0,0,.86-1h0l-.19-.09-.16.23a4,4,0,0,1-3.76,1.69,3.68,3.68,0,0,1-3.44-2.7,8.84,8.84,0,0,1-.26-3,3.77,3.77,0,0,1,2.88-3.47,4.07,4.07,0,0,1,4.57,1.59l.28-.1a3.11,3.11,0,0,0-1.35-1.23A4.77,4.77,0,0,0,133.22,69.9Z"/><path class="cls-5" d="M48.6,87.11c-.26.1-.43.16-.6.24-.5.23-.81.16-1.16-.36C45.51,85.06,42,85.44,41,87.6a5.16,5.16,0,0,0-.09,4.12,3.24,3.24,0,0,0,3,2.15,3.37,3.37,0,0,0,3.13-1.43c.15-.2.29-.41.46-.66l1.18.57a4.37,4.37,0,0,1-3.11,2.58c-3.31.73-6.45-.82-6.54-4.9a7.9,7.9,0,0,1,.16-1.85,4.54,4.54,0,0,1,4.55-3.62,6.18,6.18,0,0,1,2.91.49A3.81,3.81,0,0,1,48.6,87.11Z"/><path class="cls-5" d="M44,95.69a5.72,5.72,0,0,1-3.56-1.14,5.65,5.65,0,0,1-2-4.51,8.51,8.51,0,0,1,.17-2A5.1,5.1,0,0,1,43.74,84a6.72,6.72,0,0,1,3.18.54,4.39,4.39,0,0,1,2.21,2.36l.23.55-.81.31-.32.13a1.35,1.35,0,0,1-1.89-.55,2.59,2.59,0,0,0-2.42-1,2.84,2.84,0,0,0-2.4,1.52,4.57,4.57,0,0,0-.07,3.67A2.67,2.67,0,0,0,44,93.3a2.79,2.79,0,0,0,2.62-1.19l.3-.42.44-.63,2.14,1-.24.52a4.93,4.93,0,0,1-3.51,2.9A7.72,7.72,0,0,1,44,95.69Zm.07-10.56h-.34a4,4,0,0,0-4,3.17A7.32,7.32,0,0,0,39.63,90a4.53,4.53,0,0,0,1.57,3.62,5.1,5.1,0,0,0,4.26.73,3.66,3.66,0,0,0,2.44-1.76l-.19-.09-.19.27a4,4,0,0,1-3.64,1.66,3.8,3.8,0,0,1-3.5-2.52,5.77,5.77,0,0,1,.11-4.58,4,4,0,0,1,3.35-2.19,3.73,3.73,0,0,1,3.47,1.49c.14.21.21.23.21.23h0a.53.53,0,0,0,.23-.07l0,0a3.15,3.15,0,0,0-1.38-1.23A5.26,5.26,0,0,0,44.12,85.14Z"/><path class="cls-5" d="M51.49,61.06l-.77.56c-.13-.14-.25-.25-.34-.38q-3.25-4.47-6.5-8.93a.58.58,0,0,1,0-.82c2.21-3,4.41-6,6.61-9a3.46,3.46,0,0,1,.25-.27l.79.53c-.16.24-.28.44-.42.64-1.94,2.68-3.88,5.35-5.84,8a.69.69,0,0,0,0,1c1.94,2.65,3.85,5.32,5.78,8C51.16,60.56,51.31,60.79,51.49,61.06Z"/><path class="cls-5" d="M50.64,62.4l-.47-.52a3.37,3.37,0,0,1-.26-.3l-2.2-3-4.3-5.9a1.15,1.15,0,0,1,0-1.5q2.45-3.32,4.88-6.65L50,42.13a2.08,2.08,0,0,1,.2-.23l.34-.36.5.18,1.26.85-.45.69c-.1.16-.19.3-.3.44l-1.3,1.8Q48,48.63,45.7,51.73a.54.54,0,0,0-.09.15,1.12,1.12,0,0,0,.09.14q2.31,3.16,4.6,6.35L51.48,60l.34.49.47.69ZM44.49,51.6l-.17.23s0,0,0,.13l.14.19A1.1,1.1,0,0,1,44.49,51.6Z"/><path class="cls-5" d="M110.05,10.35V9.54c.43-.06.85-.09,1.25-.18a1.18,1.18,0,0,0,1-1.28,1.2,1.2,0,0,0-1.09-1.24c-.67-.14-1.46.08-1.67.61s-.65.77-1.33.51a1.8,1.8,0,0,1,.93-1.6,3.21,3.21,0,0,1,3.38-.07,2,2,0,0,1,0,3.41l-.4.22c1.2.48,1.69,1.12,1.61,2.07a2.13,2.13,0,0,1-2,2.09,6,6,0,0,1-2-.09,1.92,1.92,0,0,1-1.49-1.32c-.09-.26-.4-.63.1-.77s.81-.22,1,.39.89,1,1.82.92a1.34,1.34,0,0,0,1.34-1,1.25,1.25,0,0,0-1-1.64C111,10.44,110.58,10.42,110.05,10.35Z"/><path class="cls-5" d="M111.07,14.7a7.29,7.29,0,0,1-1.44-.15,2.5,2.5,0,0,1-1.93-1.7,1.17,1.17,0,0,1-.13-1,.91.91,0,0,1,.63-.49,1.24,1.24,0,0,1,1.71.77c.05.16.21.6,1.22.52.59,0,.74-.32.82-.61a.77.77,0,0,0,0-.59.82.82,0,0,0-.54-.33,8.23,8.23,0,0,0-.89-.12l-1-.12V9l.91-.12a7.92,7.92,0,0,0,.79-.12c.5-.11.6-.35.59-.7s-.11-.58-.63-.69-.94.08-1,.25a1.41,1.41,0,0,1-2.07.85l-.37-.14V8a2.37,2.37,0,0,1,1.2-2.1,3.81,3.81,0,0,1,4-.08,2.45,2.45,0,0,1,1.27,2.16,2.59,2.59,0,0,1-.83,1.92,2.26,2.26,0,0,1,1,2.17,2.71,2.71,0,0,1-2.48,2.61A5.47,5.47,0,0,1,111.07,14.7Zm2-3.29a2,2,0,0,1,0,.92,2.08,2.08,0,0,1-.27.61,1.76,1.76,0,0,0,.36-1A1.25,1.25,0,0,0,113.12,11.41Zm-4.32,1v0a1.5,1.5,0,0,0,.11.25,2.23,2.23,0,0,1-.11-.27Zm3.88-5.33a1.94,1.94,0,0,1,.24.94c0,.07,0,.14,0,.2a1.41,1.41,0,0,0,0-.32A1.32,1.32,0,0,0,112.68,7.13ZM109,7.28a1.24,1.24,0,0,0-.1.19A.55.55,0,0,0,109,7.28Z"/><path class="cls-5" d="M153.5,78.39c1.31.54,1.75,1.22,1.56,2.32a2.2,2.2,0,0,1-2.31,1.9,5.87,5.87,0,0,1-1.92-.26,1.94,1.94,0,0,1-1.35-1.84c.75-.33,1-.27,1.28.37a1.7,1.7,0,0,0,1.84.81,1.35,1.35,0,0,0,1.3-1.09,1.25,1.25,0,0,0-1-1.58c-.45-.1-.92-.12-1.43-.19V78c.34,0,.69-.06,1-.13.82-.15,1.21-.54,1.23-1.19a1.18,1.18,0,0,0-.9-1.32c-.78-.23-1.67,0-1.89.6s-.72.64-1.26.49A2,2,0,0,1,151,74.57a3.53,3.53,0,0,1,2.37-.06,2,2,0,0,1,1.47,1.77,1.87,1.87,0,0,1-1.15,2Z"/><path class="cls-5" d="M152.6,83.19a6.32,6.32,0,0,1-2-.29,2.53,2.53,0,0,1-1.75-2.35l0-.41.37-.16c.89-.39,1.5-.41,2,.65a1.19,1.19,0,0,0,1.26.49.77.77,0,0,0,.79-.64.73.73,0,0,0-.06-.56.8.8,0,0,0-.53-.32,8.36,8.36,0,0,0-.89-.12l-1-.12V77.49l.84-.09c.22,0,.45,0,.67-.09.74-.14.75-.45.76-.65,0-.49-.16-.65-.49-.74-.55-.16-1.09,0-1.17.24a1.38,1.38,0,0,1-2,.86l-.43-.11v-.44A2.55,2.55,0,0,1,150.82,74a4.11,4.11,0,0,1,2.75-.07,2.53,2.53,0,0,1,1.87,2.26,2.34,2.34,0,0,1-.81,2.11,2.29,2.29,0,0,1,1,2.47,2.77,2.77,0,0,1-2.87,2.38ZM150.17,81a1.35,1.35,0,0,0,.15.27l-.09-.17ZM154.49,80a2,2,0,0,1,0,.78,2.34,2.34,0,0,1-.11.34,2.13,2.13,0,0,0,.14-.48A1.57,1.57,0,0,0,154.49,80Zm-1.11-1.78.12.2-.09-.22Zm.69-2.51a2,2,0,0,1,.21,1s0,.1,0,.15a1.35,1.35,0,0,0,0-.5A1.6,1.6,0,0,0,154.07,75.67Z"/><path class="cls-5" d="M32.59,92.41a1.93,1.93,0,0,1,1.31-1.85,3.55,3.55,0,0,1,2.43-.08,2,2,0,0,1,1.48,1.83,1.83,1.83,0,0,1-1.14,1.91l-.23.13c1.35.59,1.77,1.26,1.53,2.44a2.21,2.21,0,0,1-2.41,1.79,6,6,0,0,1-2.08-.4,1.84,1.84,0,0,1-1.08-1.77c.61-.16,1.07-.28,1.33.49s1,.89,1.85.76a1.34,1.34,0,0,0,1.24-1.07,1.26,1.26,0,0,0-1-1.59c-.45-.1-.92-.12-1.43-.19V94c.42-.06.82-.09,1.21-.17a1.19,1.19,0,0,0,1.06-1.33,1.21,1.21,0,0,0-1.14-1.21,1.66,1.66,0,0,0-1.67.65C33.41,92.6,33.41,92.6,32.59,92.41Z"/><path class="cls-5" d="M35.63,99.15h-.08a6.51,6.51,0,0,1-2.29-.44,2.4,2.4,0,0,1-1.44-2.28l0-.47.45-.12c.56-.15,1.6-.42,2,.87.1.3.61.46,1.22.37s.7-.35.76-.62a.76.76,0,0,0-.07-.58.78.78,0,0,0-.51-.32,8,8,0,0,0-.89-.12l-1-.12V93.47l.9-.12a7.23,7.23,0,0,0,.76-.11c.53-.12.62-.36.6-.74s-.13-.57-.66-.66a1.08,1.08,0,0,0-1.07.38c-.54.9-.8,1-1.86.76l-.44-.1v-.45A2.52,2.52,0,0,1,33.68,90a4.12,4.12,0,0,1,2.81-.1,2.54,2.54,0,0,1,1.89,2.35,2.42,2.42,0,0,1-.8,2,2.29,2.29,0,0,1,1,2.58A2.77,2.77,0,0,1,35.63,99.15Zm-2.57-2.29a1.26,1.26,0,0,0,.25.49,1.45,1.45,0,0,1-.12-.27.48.48,0,0,0-.1-.21Zm4.36-1a2.07,2.07,0,0,1,0,.81,2.4,2.4,0,0,1-.11.36,1.76,1.76,0,0,0,.12-.39A1.63,1.63,0,0,0,37.42,95.9ZM37,91.62a2,2,0,0,1,.21.83,2.58,2.58,0,0,1,0,.31,1.93,1.93,0,0,0,0-.42A1.42,1.42,0,0,0,37,91.62Z"/><path class="cls-5" d="M77.81,52.08c0,2.35,0,4.69,0,7,0,.39,0,.68-.56.67s-.53-.27-.53-.64q0-7.1,0-14.2c0-.38,0-.63.54-.64s.55.29.55.68C77.81,47.35,77.81,49.71,77.81,52.08Z"/><path class="cls-5" d="M77.28,60.37h0c-.73,0-1.1-.43-1.1-1.22q0-7.1,0-14.2c0-.79.37-1.2,1.1-1.22a1.12,1.12,0,0,1,.85.28,1.26,1.26,0,0,1,.3,1q0,2.67,0,5.32v3.53c0,1.76,0,3.52,0,5.27a1.26,1.26,0,0,1-.3,1A1.1,1.1,0,0,1,77.28,60.37Z"/><path class="cls-5" d="M92.06,20.49q0,2.77,0,5.55c0,.37,0,.7-.54.69s-.51-.32-.51-.67q0-5.55,0-11.1c0-.4,0-.66.57-.66s.52.28.51.64c0,1.85,0,3.7,0,5.55Z"/><path class="cls-5" d="M91.55,27.31h0a1,1,0,0,1-1.08-1.21V23.6q0-4.31,0-8.63a1.25,1.25,0,0,1,.3-.95,1.3,1.3,0,0,1,.86-.3,1,1,0,0,1,1.09,1.21c0,1.35,0,2.69,0,4V26a1.27,1.27,0,0,1-.29,1A1.1,1.1,0,0,1,91.55,27.31Z"/><path class="cls-5" d="M51.52,71.92l-7.05,9.77-.89-.59,7.09-9.76Z"/><polygon class="cls-5" points="44.61 82.48 42.75 81.25 50.53 70.55 52.34 71.77 44.61 82.48"/><path class="cls-5" d="M126,72.31l-1.69-.81-8.38-4.15c-.78-.38-.78-.43-.16-1.22l10.72,5.27Z"/><path class="cls-5" d="M126.22,73.07l-1-.49L124,72l-8.39-4.15c-.44-.22-.81-.4-.91-.83s.17-.79.55-1.27l.29-.37,11.68,5.74Z"/><path class="cls-5" d="M52.17,46.69l-4.24,5.78-.85-.58c.15-.22.26-.41.39-.59l3.4-4.59C51.43,46,51.43,46,52.17,46.69Z"/><path class="cls-5" d="M48.07,53.27l-1.79-1.22.44-.66c.1-.15.19-.29.29-.43l3.4-4.58c.35-.47.57-.77,1-.8s.71.25,1.18.71l.36.35Z"/></g><path class="cls-6" d="M68.23,62l3.14-3.16,6.88-6.88a2.23,2.23,0,0,0,.15-3.21l0-.05,2.73-2.72c.63.43,1.27.9,1.95,1.33a20.85,20.85,0,0,0,9,3.1,21.2,21.2,0,0,0,22.91-16.13c.25-1.05.35-2.14.52-3.21,0-.09,0-.17.05-.26q0-1.48,0-3c0-.09,0-.19-.05-.28-.07-.56-.11-1.12-.2-1.68A21,21,0,0,0,107.89,13,20.71,20.71,0,0,0,97.54,8.31c-.58-.09-1.17-.15-1.76-.23h-3c-.59.08-1.18.14-1.76.23A21.18,21.18,0,0,0,73.61,24.53a20.83,20.83,0,0,0,4.13,18l.11.14h0l-2.67,2.67A6.74,6.74,0,0,0,74,44.85a2.17,2.17,0,0,0-2.13.68l-2.16,2.16-7.9,7.89c-.08.08-.16.14-.24.21v.65L67.1,62Zm42.82-32.69A16.76,16.76,0,1,1,94.21,12.53,16.75,16.75,0,0,1,111.06,29.26Z"/></svg>