<?xml version="1.0" encoding="utf-8"?>
<!-- Generator: Adobe Illustrator 20.0.0, SVG Export Plug-In . SVG Version: 6.00 Build 0)  -->
<svg version="1.1" id="Layer_1" xmlns="http://www.w3.org/2000/svg" xmlns:xlink="http://www.w3.org/1999/xlink" x="0px" y="0px"
	 viewBox="0 0 276.6 80.5" enable-background="new 0 0 276.6 80.5" xml:space="preserve">
<g id="Layer_1_1_">
</g>
<g id="Layer_2">
</g>
<g id="Layer_3">
	<g>
		<g>
			
				<linearGradient id="SVGID_1_" gradientUnits="userSpaceOnUse" x1="2.6884" y1="50.7411" x2="272.9589" y2="50.7411" gradientTransform="matrix(1.014 -1.753134e-02 -1.849320e-02 -1.0696 -2.0513 89.7702)">
				<stop  offset="0.25" style="stop-color:#4AAFC8"/>
				<stop  offset="0.75" style="stop-color:#97D5CC"/>
			</linearGradient>
			<path fill="url(#SVGID_1_)" d="M0,50.7C65.4,33.5,49-4,127.5,26.9c96.7,38,146-13,146-13c-5.7,5-20.2,20-45.4,30.1
				c-7.4,2.9-28.5,17.5-101.7-6.6C51.5,12.6,60.8,43.2,0,50.7z"/>
		</g>
		<path fill="#9B2123" d="M131.9,40c0,2.3-0.6,4.6-1.8,6.8c-1.3,2.2-3.1,4-5.1,5.4c-2.4,1.5-4.9,2.3-7.4,2.3h-12.5l1.4-8.1H119
			c2.4,0,3.7-2,4-2.5c0.4-0.6,1.3-2.6-0.2-4.3l-9.4-10.7c-1.5-1.8-2.4-4-2.4-6.5c-0.1-2.3,0.6-4.6,1.8-6.8c1.3-2.2,3-4,5.1-5.4
			c2.4-1.5,4.8-2.2,7.4-2.2h10.3l-1.4,8.1h-10.3c-2.4,0-3.7,1.9-4,2.4c-0.4,0.6-1.3,2.6,0.2,4.3l9.4,10.6
			C131,35.4,131.8,37.6,131.9,40z"/>
		<path fill="#9B2123" d="M147.5,16.2l-5,28.5c-0.2,0.9,0.5,1.6,1.3,1.6h6.6l-1.4,8.1h-8.2c-4.5,0-7.5-3.6-6.7-8.1L142.2,0h8.1
			l-1.4,8.1h8.2l-1.4,8.1C155.7,16.2,147.5,16.2,147.5,16.2z"/>
		<path fill="#9B2123" d="M176.6,16.2H170c-0.9,0-1.7,0.7-1.9,1.6l-6.4,36.6h-8.1l6.7-38.2c0.8-4.5,5-8.1,9.5-8.1h8.2L176.6,16.2z"
			/>
		<path fill="#9B2123" d="M204.1,16.2l-3.4,19.1h-16.3l-1.7,9.5c-0.2,0.8,0.4,1.5,1.2,1.5h12.8l-1.4,8.1H181c-4.5,0-7.5-3.7-6.7-8.1
			l5.3-30.1c0.8-4.5,5-8.1,9.5-8.1h8.2C201.9,8.1,204.9,11.7,204.1,16.2z M195.7,17.7c0.2-0.8-0.4-1.4-1.2-1.4h-5.4
			c-0.8,0-1.5,0.6-1.7,1.4l-1.7,9.5h8.2L195.7,17.7z"/>
		<path fill="#9B2123" d="M231.8,16.2l-6.7,38.2h-16.3c-4.5,0-7.5-3.7-6.7-8.1l2.4-13.9c0.8-4.5,5-8.1,9.5-8.1h8.2l1.1-6.5
			c0.2-0.9-0.4-1.6-1.3-1.6h-11.2l1.4-8.1H225C229.6,8.1,232.5,11.7,231.8,16.2z M220.8,32.5h-6.6c-0.9,0-1.7,0.6-1.9,1.6l-1.9,10.7
			c-0.2,0.9,0.5,1.6,1.3,1.6h6.6L220.8,32.5z"/>
		<path fill="#9B2123" d="M269.8,8.1c4.5,0,7.5,3.6,6.7,8.1l-6.7,38.2h-8.1l6.4-36.6c0.2-0.9-0.4-1.6-1.3-1.6h-6.6l-6.7,38.2h-8.1
			l6.4-36.6c0.2-0.9-0.4-1.6-1.3-1.6h-6.6l-6.7,38.2h-8.1l6.7-38.2l1.4-8.1C237.2,8.1,269.8,8.1,269.8,8.1z"/>
		<path fill="#9B2123" d="M87.6,16.2l-3.4,19.1H67.9l-1.7,9.5c-0.2,0.8,0.4,1.5,1.2,1.5h12.8l-1.4,8.1H64.6c-4.5,0-7.5-3.7-6.7-8.1
			l5.3-30.1c0.8-4.5,5-8.1,9.5-8.1h8.2C85.4,8.1,88.4,11.7,87.6,16.2z M79.2,17.7c0.2-0.8-0.4-1.4-1.2-1.4h-5.4
			c-0.8,0-1.5,0.6-1.7,1.4l-1.7,9.5h8.4L79.2,17.7z"/>
		<path fill="#9B2123" d="M99.7,16.2l-5,28.5c-0.2,0.9,0.5,1.6,1.3,1.6h6.6l-1.4,8.1H93c-4.5,0-7.5-3.6-6.7-8.1L94.4,0h8.1l-1.4,8.1
			h8.2l-1.4,8.1C107.9,16.2,99.7,16.2,99.7,16.2z"/>
		<path fill="#9B2123" d="M61.2,0L49,69.7c-1.4,7.8-8.8,10.8-16.6,10.8H22.3l2.5-10.8h11.5c1.5,0,2.9-1.2,3.2-2.7L51.2,0H61.2z"/>
	</g>
</g>
</svg>
